<svg width="63" height="62" viewBox="0 0 63 62" fill="none" xmlns="http://www.w3.org/2000/svg">
<ellipse cx="31.5" cy="31" rx="31.5" ry="31" fill="#205284"/>
<path d="M27.75 35.25L36.25 26.75" stroke="white" stroke-width="2" stroke-linecap="round" stroke-linejoin="round"/>
<path d="M28.4583 28.1667C28.8495 28.1667 29.1667 27.8495 29.1667 27.4583C29.1667 27.0671 28.8495 26.75 28.4583 26.75C28.0671 26.75 27.75 27.0671 27.75 27.4583C27.75 27.8495 28.0671 28.1667 28.4583 28.1667Z" fill="white" stroke="white" stroke-width="2" stroke-linecap="round" stroke-linejoin="round"/>
<path d="M35.5423 35.25C35.9335 35.25 36.2507 34.9328 36.2507 34.5416C36.2507 34.1504 35.9335 33.8333 35.5423 33.8333C35.1511 33.8333 34.834 34.1504 34.834 34.5416C34.834 34.9328 35.1511 35.25 35.5423 35.25Z" fill="white" stroke="white" stroke-width="2" stroke-linecap="round" stroke-linejoin="round"/>
<path d="M19.25 31C19.25 32.6744 19.5798 34.3323 20.2205 35.8792C20.8613 37.4261 21.8004 38.8317 22.9844 40.0156C24.1683 41.1996 25.5739 42.1387 27.1208 42.7795C28.6677 43.4202 30.3256 43.75 32 43.75C33.6744 43.75 35.3323 43.4202 36.8792 42.7795C38.4261 42.1387 39.8317 41.1996 41.0156 40.0156C42.1996 38.8317 43.1387 37.4261 43.7795 35.8792C44.4202 34.3323 44.75 32.6744 44.75 31C44.75 29.3256 44.4202 27.6677 43.7795 26.1208C43.1387 24.5739 42.1996 23.1683 41.0156 21.9844C39.8317 20.8004 38.4261 19.8613 36.8792 19.2205C35.3323 18.5798 33.6744 18.25 32 18.25C30.3256 18.25 28.6677 18.5798 27.1208 19.2205C25.5739 19.8613 24.1683 20.8004 22.9844 21.9844C21.8004 23.1683 20.8613 24.5739 20.2205 26.1208C19.5798 27.6677 19.25 29.3256 19.25 31Z" stroke="white" stroke-width="2" stroke-linecap="round" stroke-linejoin="round"/>
</svg>
