<svg width="63" height="62" viewBox="0 0 63 62" fill="none" xmlns="http://www.w3.org/2000/svg">
<ellipse cx="31.5" cy="31" rx="31.5" ry="31" fill="#2457F5"/>
<path d="M19.25 31H20.6667M32 18.25V19.6667M43.3333 31H44.75M22.9333 21.9333L23.925 22.925M41.0667 21.9333L40.075 22.925" stroke="white" stroke-width="2" stroke-linecap="round" stroke-linejoin="round"/>
<path d="M27.7493 36.6666C26.56 35.7746 25.6815 34.531 25.2382 33.112C24.7949 31.6929 24.8094 30.1704 25.2795 28.76C25.7496 27.3496 26.6516 26.1229 27.8577 25.2537C29.0637 24.3844 30.5127 23.9166 31.9993 23.9166C33.486 23.9166 34.935 24.3844 36.141 25.2537C37.3471 26.1229 38.2491 27.3496 38.7192 28.76C39.1893 30.1704 39.2038 31.6929 38.7605 33.112C38.3172 34.531 37.4387 35.7746 36.2493 36.6666C35.6962 37.2141 35.2798 37.8842 35.0337 38.6225C34.7876 39.3608 34.7187 40.1467 34.8327 40.9166C34.8327 41.6681 34.5342 42.3887 34.0028 42.9201C33.4715 43.4514 32.7508 43.75 31.9993 43.75C31.2479 43.75 30.5272 43.4514 29.9959 42.9201C29.4645 42.3887 29.166 41.6681 29.166 40.9166C29.28 40.1467 29.2111 39.3608 28.965 38.6225C28.7189 37.8842 28.3025 37.2141 27.7493 36.6666Z" stroke="white" stroke-width="2" stroke-linecap="round" stroke-linejoin="round"/>
<path d="M28.7422 38.0834H35.2589" stroke="white" stroke-width="2" stroke-linecap="round" stroke-linejoin="round"/>
</svg>
