<svg width="63" height="62" viewBox="0 0 63 62" fill="none" xmlns="http://www.w3.org/2000/svg">
<ellipse cx="31.5" cy="31" rx="31.5" ry="31" fill="url(#paint0_linear_517032_1462)"/>
<path d="M36.25 29.5834V29.5975" stroke="white" stroke-width="2" stroke-linecap="round" stroke-linejoin="round"/>
<path d="M22.3281 25.8689C21.7067 25.3913 21.2295 24.7513 20.9492 24.0195C20.6689 23.2876 20.5963 22.4926 20.7396 21.7221C20.8829 20.9517 21.2364 20.2358 21.7611 19.6537C22.2858 19.0716 22.9612 18.6459 23.7127 18.4236C24.4641 18.2014 25.2625 18.1912 26.0193 18.3943C26.7762 18.5974 27.4622 19.0058 28.0015 19.5744C28.5408 20.143 28.9124 20.8496 29.0752 21.6162C29.238 22.3828 29.1857 23.1794 28.9241 23.9181" stroke="white" stroke-width="2" stroke-linecap="round" stroke-linejoin="round"/>
<path d="M37.6675 19.6666V25.0542C39.4208 26.0687 40.7556 27.6743 41.433 29.5833H43.3328C43.7085 29.5833 44.0688 29.7325 44.3345 29.9982C44.6002 30.2639 44.7494 30.6242 44.7494 31V33.8333C44.7494 34.209 44.6002 34.5694 44.3345 34.835C44.0688 35.1007 43.7085 35.25 43.3328 35.25H41.4316C40.9556 36.5958 40.1467 37.8 39.0828 38.7534V41.625C39.0828 42.1885 38.8589 42.729 38.4604 43.1276C38.0618 43.5261 37.5213 43.75 36.9578 43.75C36.3942 43.75 35.8537 43.5261 35.4552 43.1276C35.0566 42.729 34.8328 42.1885 34.8328 41.625V40.799C34.3646 40.8775 33.8908 40.9168 33.4161 40.9166H27.7494C27.2748 40.9168 26.8009 40.8775 26.3328 40.799V41.625C26.3328 42.1885 26.1089 42.729 25.7104 43.1276C25.3118 43.5261 24.7713 43.75 24.2078 43.75C23.6442 43.75 23.1037 43.5261 22.7051 43.1276C22.3066 42.729 22.0828 42.1885 22.0828 41.625V38.7916V38.7534C20.7992 37.6058 19.8944 36.0955 19.4881 34.4224C19.0818 32.7493 19.1932 30.9923 19.8075 29.3839C20.4218 27.7754 21.5101 26.3915 22.9283 25.4152C24.3465 24.4389 26.0277 23.9163 27.7494 23.9166H31.2911L37.6661 19.6666H37.6675Z" stroke="white" stroke-width="2" stroke-linecap="round" stroke-linejoin="round"/>
<defs>
<linearGradient id="paint0_linear_517032_1462" x1="0" y1="0" x2="74.9881" y2="38.8763" gradientUnits="userSpaceOnUse">
<stop stop-color="#3672F8"/>
<stop offset="1" stop-color="#B01EFF"/>
</linearGradient>
</defs>
</svg>
