<svg width="63" height="62" viewBox="0 0 63 62" fill="none" xmlns="http://www.w3.org/2000/svg">
<ellipse cx="31.5" cy="31" rx="31.5" ry="31" fill="#3672F8"/>
<path d="M22.084 43.75V21.0833C22.084 20.3319 22.3825 19.6112 22.9138 19.0799C23.4452 18.5485 24.1659 18.25 24.9173 18.25H39.084C39.8354 18.25 40.5561 18.5485 41.0875 19.0799C41.6188 19.6112 41.9173 20.3319 41.9173 21.0833V43.75L37.6673 40.9167L34.834 43.75L32.0007 40.9167L29.1673 43.75L26.334 40.9167L22.084 43.75Z" stroke="white" stroke-width="2" stroke-linecap="round" stroke-linejoin="round"/>
<path d="M34.8327 25.3334H31.291C30.7274 25.3334 30.1869 25.5573 29.7884 25.9558C29.3899 26.3543 29.166 26.8948 29.166 27.4584C29.166 28.022 29.3899 28.5625 29.7884 28.961C30.1869 29.3595 30.7274 29.5834 31.291 29.5834H32.7077C33.2713 29.5834 33.8118 29.8073 34.2103 30.2058C34.6088 30.6043 34.8327 31.1448 34.8327 31.7084C34.8327 32.272 34.6088 32.8125 34.2103 33.211C33.8118 33.6095 33.2713 33.8334 32.7077 33.8334H29.166M31.9993 33.8334V35.9584M31.9993 23.2084V25.3334" stroke="white" stroke-width="2" stroke-linecap="round" stroke-linejoin="round"/>
</svg>
