<svg width="63" height="62" viewBox="0 0 63 62" fill="none" xmlns="http://www.w3.org/2000/svg">
<ellipse cx="31.5" cy="31" rx="31.5" ry="31" fill="url(#paint0_linear_517032_1461)"/>
<path d="M26.3327 21.0834H23.4993C22.7479 21.0834 22.0272 21.3819 21.4959 21.9132C20.9645 22.4446 20.666 23.1653 20.666 23.9167V40.9167C20.666 41.6682 20.9645 42.3888 21.4959 42.9202C22.0272 43.4515 22.7479 43.75 23.4993 43.75H31.5701" stroke="white" stroke-width="2" stroke-linecap="round" stroke-linejoin="round"/>
<path d="M40.5007 31V23.9167C40.5007 23.1653 40.2021 22.4446 39.6708 21.9132C39.1394 21.3819 38.4188 21.0834 37.6673 21.0834H34.834" stroke="white" stroke-width="2" stroke-linecap="round" stroke-linejoin="round"/>
<path d="M26.334 21.0833C26.334 20.3319 26.6325 19.6112 27.1638 19.0799C27.6952 18.5485 28.4159 18.25 29.1673 18.25H32.0007C32.7521 18.25 33.4728 18.5485 34.0041 19.0799C34.5355 19.6112 34.834 20.3319 34.834 21.0833C34.834 21.8348 34.5355 22.5554 34.0041 23.0868C33.4728 23.6182 32.7521 23.9167 32.0007 23.9167H29.1673C28.4159 23.9167 27.6952 23.6182 27.1638 23.0868C26.6325 22.5554 26.334 21.8348 26.334 21.0833Z" stroke="white" stroke-width="2" stroke-linecap="round" stroke-linejoin="round"/>
<path d="M26.334 29.5834H32.0007" stroke="white" stroke-width="2" stroke-linecap="round" stroke-linejoin="round"/>
<path d="M26.334 35.25H30.584" stroke="white" stroke-width="2" stroke-linecap="round" stroke-linejoin="round"/>
<path d="M34.834 38.7917C34.834 39.731 35.2071 40.6318 35.8713 41.296C36.5355 41.9602 37.4363 42.3333 38.3757 42.3333C39.315 42.3333 40.2158 41.9602 40.88 41.296C41.5442 40.6318 41.9173 39.731 41.9173 38.7917C41.9173 37.8524 41.5442 36.9515 40.88 36.2873C40.2158 35.6231 39.315 35.25 38.3757 35.25C37.4363 35.25 36.5355 35.6231 35.8713 36.2873C35.2071 36.9515 34.834 37.8524 34.834 38.7917Z" stroke="white" stroke-width="2" stroke-linecap="round" stroke-linejoin="round"/>
<path d="M41.209 41.625L44.7507 45.1667" stroke="white" stroke-width="2" stroke-linecap="round" stroke-linejoin="round"/>
<defs>
<linearGradient id="paint0_linear_517032_1461" x1="31.5" y1="0" x2="31.5" y2="62" gradientUnits="userSpaceOnUse">
<stop stop-color="#4364F7"/>
<stop offset="1" stop-color="#1B1464"/>
</linearGradient>
</defs>
</svg>
