<svg width="63" height="62" viewBox="0 0 63 62" fill="none" xmlns="http://www.w3.org/2000/svg">
<ellipse cx="31.5" cy="31" rx="31.5" ry="31" fill="#212C4F"/>
<path d="M28.6219 42.3334H24.9173C24.1659 42.3334 23.4452 42.0348 22.9138 41.5035C22.3825 40.9721 22.084 40.2515 22.084 39.5V22.5C22.084 21.7486 22.3825 21.0279 22.9138 20.4966C23.4452 19.9652 24.1659 19.6667 24.9173 19.6667H36.2507C37.0021 19.6667 37.7228 19.9652 38.2541 20.4966C38.7855 21.0279 39.084 21.7486 39.084 22.5V33.8334" stroke="white" stroke-width="2" stroke-linecap="round" stroke-linejoin="round"/>
<path d="M34.834 40.9166L37.6673 43.75L43.334 38.0833" stroke="white" stroke-width="2" stroke-linecap="round" stroke-linejoin="round"/>
<path d="M27.75 25.3333H33.4167" stroke="white" stroke-width="2" stroke-linecap="round" stroke-linejoin="round"/>
<path d="M27.75 31H30.5833" stroke="white" stroke-width="2" stroke-linecap="round" stroke-linejoin="round"/>
</svg>
