<?xml version="1.0" standalone="no"?>
<!DOCTYPE svg PUBLIC "-//W3C//DTD SVG 20010904//EN"
 "http://www.w3.org/TR/2001/REC-SVG-20010904/DTD/svg10.dtd">
<svg version="1.0" xmlns="http://www.w3.org/2000/svg"
 width="1360.000000pt" height="1360.000000pt" viewBox="0 0 1360.000000 1360.000000"
 preserveAspectRatio="xMidYMid meet">
<metadata>
Created by potrace 1.14, written by Peter Selinger 2001-2017
</metadata>
<g transform="translate(0.000000,1360.000000) scale(0.100000,-0.100000)"
fill="#000000" stroke="none">
<path d="M6086 9625 c-14 -8 -26 -11 -26 -8 0 13 -90 -88 -138 -156 -34 -47
-126 -235 -155 -316 -63 -177 -78 -377 -42 -539 3 -12 7 -32 9 -46 11 -65 57
-215 79 -255 6 -11 12 -26 14 -32 9 -40 12 -48 13 -48 1 0 3 -7 5 -15 2 -8 10
-42 17 -75 21 -89 15 -186 -17 -297 -8 -27 -11 -48 -8 -48 3 0 0 -6 -6 -14 -6
-8 -11 -18 -10 -22 1 -5 0 -16 -4 -24 -3 -8 -15 -46 -28 -85 -12 -38 -26 -75
-30 -81 -5 -6 -6 -14 -3 -17 3 -3 2 -12 -2 -19 -5 -7 -9 -17 -10 -23 -1 -5 -7
-36 -14 -68 -6 -31 -12 -85 -13 -120 -1 -79 7 -137 38 -279 5 -23 33 -113 42
-138 4 -8 7 -17 7 -20 1 -3 25 -53 53 -113 29 -59 52 -110 52 -112 2 -20 109
-106 140 -113 87 -17 219 17 342 89 25 15 57 30 70 34 13 4 26 11 29 15 5 6
396 233 465 269 16 9 32 19 35 22 3 3 21 14 40 24 19 9 43 24 53 33 9 8 17 11
17 6 0 -5 4 -4 8 1 4 6 32 23 62 39 30 16 57 32 60 35 3 3 14 11 25 17 87 47
164 92 210 122 11 6 27 15 35 19 8 4 59 33 113 65 54 32 100 58 103 58 2 0 27
15 56 33 29 19 85 51 123 72 39 20 76 43 84 49 17 14 86 52 124 68 15 7 27 16
27 20 0 4 4 8 9 8 22 0 230 132 270 172 67 66 112 185 104 278 -4 56 -30 147
-43 155 -6 4 -8 10 -5 15 6 10 -100 117 -126 125 -10 4 -19 10 -19 15 0 4 -11
11 -24 14 -13 3 -48 22 -77 42 -30 20 -67 43 -84 52 -16 8 -48 27 -70 41 -22
14 -42 26 -45 26 -3 0 -48 26 -100 57 -52 30 -113 66 -135 78 -43 24 -270 155
-295 171 -72 44 -223 129 -231 129 -5 0 -9 5 -9 11 0 5 -4 8 -9 4 -5 -3 -12
-1 -15 4 -3 5 -52 35 -108 67 -57 32 -105 61 -108 65 -3 3 -15 9 -27 13 -13 4
-29 13 -35 19 -7 7 -29 20 -48 30 -19 9 -48 26 -65 36 -16 11 -48 29 -70 40
-22 12 -56 31 -75 43 -37 23 -50 31 -118 69 -24 13 -51 29 -60 34 -9 6 -39 23
-67 40 -27 16 -53 34 -57 40 -5 6 -8 6 -8 0 0 -6 -3 -6 -8 1 -8 12 -75 44 -91
44 -6 0 -11 5 -11 10 0 6 -5 10 -10 10 -6 0 -30 9 -53 21 -55 27 -88 31 -121
14z m589 -928 c32 -18 68 -40 79 -49 11 -10 23 -18 27 -18 4 0 84 -45 179
-100 94 -55 175 -100 180 -100 6 0 10 -5 10 -11 0 -5 4 -8 9 -5 5 3 14 -1 21
-9 7 -8 19 -15 26 -15 8 0 14 -4 14 -10 0 -5 4 -10 9 -10 8 0 150 -80 299
-169 29 -17 56 -31 60 -31 4 0 24 -13 44 -30 32 -26 36 -35 35 -75 0 -28 -6
-50 -16 -58 -16 -14 -590 -347 -709 -412 -20 -11 -39 -22 -42 -25 -6 -6 -229
-135 -275 -158 -16 -9 -33 -20 -37 -26 -4 -6 -8 -7 -8 -2 0 5 -8 2 -17 -6 -45
-38 -113 -21 -132 33 -11 32 2 70 75 211 13 26 25 56 27 65 1 10 23 61 49 113
57 116 80 196 80 269 -1 110 -13 152 -101 331 -37 74 -68 138 -69 142 -2 4
-19 42 -39 85 l-36 77 19 35 c10 19 27 36 37 37 11 1 21 5 24 8 5 5 25 -5 178
-87z"/>
<path d="M7691 6000 c-4 -8 -6 -136 -6 -283 1 -148 -2 -270 -7 -273 -4 -3 -8
1 -8 9 0 39 -174 157 -232 157 -13 0 -30 4 -38 10 -9 5 -19 5 -27 -2 -7 -6
-13 -6 -13 -1 0 9 -18 9 -109 -2 -138 -16 -273 -111 -347 -243 -47 -84 -68
-264 -43 -368 47 -195 214 -349 403 -372 130 -16 238 -2 331 43 138 66 220
172 262 336 11 46 10 999 -1 1000 -109 6 -159 3 -165 -11z m-198 -569 c87 -38
167 -136 182 -221 3 -18 9 -38 12 -43 4 -6 1 -7 -6 -2 -10 5 -11 3 -4 -11 28
-59 -19 -204 -88 -272 -49 -48 -179 -106 -179 -80 0 7 -4 7 -12 1 -15 -11 -90
-10 -128 1 -136 41 -224 155 -233 300 -2 36 -2 68 1 71 3 3 7 19 9 37 2 18 12
50 23 73 19 38 73 105 85 105 3 0 19 10 35 22 62 46 218 55 303 19z"/>
<path d="M8988 5924 c-2 -1 -24 -5 -49 -8 -60 -8 -148 -34 -176 -52 -13 -8
-23 -12 -23 -9 0 3 -26 -12 -57 -33 -116 -79 -196 -176 -241 -292 -28 -74 -44
-138 -37 -150 3 -6 2 -10 -2 -10 -10 0 -9 -168 1 -220 37 -187 121 -316 271
-417 110 -73 216 -105 364 -108 146 -3 274 27 381 89 93 54 189 157 239 257
22 43 38 79 35 79 -2 0 0 8 5 19 10 17 5 18 -96 18 l-106 0 -11 -28 c-6 -16
-14 -29 -18 -29 -4 0 -8 -7 -8 -15 0 -27 -118 -133 -183 -164 -73 -35 -99 -41
-190 -46 -144 -6 -259 36 -355 131 -123 123 -166 301 -117 489 17 64 83 171
127 203 9 7 23 19 31 27 80 80 302 114 450 70 68 -21 110 -48 172 -111 52 -54
61 -66 82 -108 9 -20 19 -37 22 -37 3 -1 50 -2 104 -3 116 -2 115 -5 56 113
-83 169 -238 285 -444 332 -43 10 -220 20 -227 13z"/>
<path d="M1249 5878 c0 -15 0 -280 0 -588 0 -308 0 -578 0 -600 l1 -40 459 0
460 0 3 33 c2 17 1 58 0 89 l-4 58 -361 2 -362 3 -1 181 0 181 295 1 c163 0
302 1 309 1 9 1 12 26 12 91 l0 90 -117 1 c-65 1 -122 0 -128 -1 -5 -1 -14 -2
-20 -2 -5 0 -41 0 -80 1 -133 2 -190 3 -230 5 l-40 1 0 170 0 170 357 0 c196
0 359 3 361 5 7 7 9 37 8 111 l-1 65 -460 0 -460 0 -1 -28z"/>
<path d="M11778 5905 c-1 -1 -33 -6 -70 -9 -37 -4 -81 -11 -97 -16 -49 -14
-151 -62 -151 -71 0 -5 -5 -9 -10 -9 -16 0 -87 -75 -117 -123 -32 -50 -62
-135 -71 -196 -4 -26 -7 -228 -7 -451 l0 -405 35 -5 c19 -3 47 -3 61 1 15 4
32 3 40 -1 7 -5 18 -6 24 -2 5 4 14 7 20 7 6 0 10 73 10 196 l0 196 350 -1
350 -1 2 -155 c1 -85 2 -174 3 -198 l0 -43 98 3 97 3 -2 410 c-1 404 -5 481
-24 517 -5 10 -7 18 -5 18 3 0 -11 31 -30 70 -46 90 -120 162 -209 205 -74 35
-101 42 -205 51 -36 3 -70 7 -77 9 -6 2 -13 2 -15 0z m122 -199 c70 -15 80
-18 80 -27 0 -5 6 -9 14 -9 8 0 35 -20 60 -45 68 -69 88 -130 94 -295 l4 -135
-31 0 c-17 0 -31 4 -31 8 0 5 -6 5 -12 0 -17 -10 -37 -10 -64 -1 -12 4 -25 4
-28 1 -9 -9 -175 -10 -208 -1 -15 3 -30 3 -32 0 -3 -5 -263 -8 -297 -3 -6 1
-3 246 4 271 24 92 81 170 152 208 65 35 201 47 295 28z"/>
<path d="M10041 5261 l0 -630 97 2 97 2 1 56 c0 30 4 61 8 67 4 7 4 12 -1 12
-4 0 -8 32 -8 70 0 39 4 70 8 70 5 0 5 5 1 12 -7 10 -8 47 -5 115 1 21 3 22
189 23 103 1 203 3 222 6 19 3 46 6 60 8 56 7 139 48 190 93 77 69 117 169
123 308 2 45 -14 136 -32 177 -17 40 -71 128 -71 116 0 -3 -17 10 -37 28 -34
32 -105 65 -170 80 -15 4 -173 8 -350 10 l-322 4 0 -629z m627 436 c50 -9 90
-38 123 -86 30 -45 31 -50 33 -136 4 -112 -52 -193 -154 -222 -20 -6 -401 -12
-420 -7 -12 3 -15 19 -14 72 0 38 4 74 8 80 4 7 4 12 -1 12 -4 0 -8 32 -8 70
0 39 4 70 9 70 5 0 5 5 0 13 -7 10 -10 84 -5 133 1 12 362 12 429 1z"/>
<path d="M3819 5612 c-125 -25 -238 -99 -304 -198 -35 -53 -80 -162 -70 -172
3 -3 1 -10 -4 -16 -6 -7 -9 -209 -8 -496 l2 -484 85 -1 85 0 0 282 0 283 45
-49 c87 -94 187 -135 325 -133 175 2 330 93 414 244 27 48 35 76 48 148 7 38
10 194 4 205 -3 6 -6 12 -6 15 -11 73 -54 156 -119 227 -116 128 -308 184
-497 145z m248 -184 c63 -23 131 -87 164 -155 19 -40 23 -64 24 -148 0 -89 -3
-106 -27 -156 -31 -65 -91 -123 -157 -152 -46 -20 -175 -28 -230 -14 -73 19
-174 103 -187 155 -4 12 -10 22 -14 22 -20 0 -34 172 -18 225 5 17 11 39 13
49 7 29 85 136 100 136 4 0 20 9 36 21 16 11 39 23 51 25 101 24 165 22 245
-8z"/>
<path d="M5048 5625 c-2 -2 -31 -6 -65 -9 -70 -7 -199 -56 -223 -86 -3 -3 -18
-16 -35 -28 -38 -30 -103 -116 -125 -168 -36 -84 -50 -188 -36 -284 15 -107
30 -149 83 -226 52 -76 173 -163 250 -179 13 -3 35 -8 51 -11 86 -20 232 3
309 48 45 27 113 88 113 103 0 5 9 21 20 35 l20 25 0 -97 0 -96 76 -4 c43 -2
79 1 83 7 8 11 6 521 -2 570 -35 204 -185 353 -392 390 -43 8 -123 14 -127 10z
m126 -186 c92 -25 174 -109 203 -208 19 -67 13 -196 -12 -255 -32 -75 -132
-156 -215 -174 -33 -7 -129 -7 -155 1 -11 3 -33 9 -50 13 -47 12 -117 68 -150
119 -16 26 -30 52 -31 58 -2 7 -7 26 -12 42 -5 17 -7 64 -5 105 5 101 5 100
16 100 6 0 7 3 4 6 -3 4 -1 16 5 28 7 11 11 24 10 29 -1 4 3 7 8 7 6 0 10 4
10 9 0 14 54 66 94 91 68 41 187 54 280 29z"/>
<path d="M6153 5617 c-2 -4 -9 -5 -14 -1 -10 6 -60 -7 -124 -34 -41 -17 -101
-59 -143 -101 -25 -24 -80 -126 -88 -161 -2 -11 -7 -30 -10 -42 -3 -13 -7
-159 -8 -325 l-2 -303 91 0 91 0 -1 263 c-1 283 5 338 39 407 75 150 324 183
447 60 77 -77 83 -106 84 -440 l1 -285 92 -3 93 -3 -2 56 c-1 30 1 58 4 62 4
3 2 12 -4 19 -7 9 -7 19 0 33 7 12 7 22 1 26 -6 3 -6 15 0 29 5 15 5 27 -2 34
-7 7 -6 16 1 30 7 13 7 23 1 27 -6 3 -6 15 0 29 5 15 5 27 -2 34 -7 7 -6 16 1
30 7 13 7 23 1 27 -6 3 -6 15 0 29 5 13 6 26 4 29 -3 3 -8 38 -10 78 -2 40 -9
78 -14 85 -6 6 -10 16 -9 20 1 5 0 12 -1 17 -1 4 -3 10 -4 15 -5 22 -50 96
-78 128 -55 62 -162 118 -251 130 -64 9 -178 10 -184 1z"/>
<path d="M2310 5590 c0 -5 4 -10 8 -12 5 -1 28 -30 53 -63 24 -33 46 -62 49
-65 3 -3 25 -32 50 -65 61 -80 62 -82 114 -147 25 -32 46 -62 46 -68 0 -5 4
-10 9 -10 5 0 12 -7 15 -16 4 -10 -27 -59 -91 -142 -53 -70 -102 -134 -109
-142 -39 -43 -154 -197 -154 -204 0 -3 47 -6 104 -6 l104 0 33 45 c19 25 41
54 49 64 8 11 22 29 30 41 14 21 55 76 83 110 7 8 28 39 47 67 19 29 40 53 45
53 9 0 37 -36 70 -89 6 -9 12 -18 15 -21 3 -3 18 -23 35 -45 16 -22 33 -44 37
-50 5 -5 35 -47 68 -92 l61 -83 110 0 c85 0 109 3 103 13 -4 6 -34 45 -66 84
-32 40 -58 75 -58 78 0 3 -10 16 -22 29 -13 13 -30 33 -38 46 -8 12 -20 28
-25 34 -49 52 -154 200 -148 209 4 6 14 20 24 32 30 35 163 209 189 245 13 19
29 40 35 45 6 6 24 28 40 50 16 22 35 46 42 53 7 7 13 17 13 22 0 4 -48 8
-106 7 l-105 0 -29 -41 c-15 -23 -37 -52 -49 -66 -30 -36 -34 -42 -55 -75 -11
-16 -23 -34 -28 -40 -50 -63 -88 -116 -88 -125 0 -29 -34 -2 -84 68 -30 42
-59 82 -63 87 -5 6 -26 35 -48 65 -100 138 -83 128 -208 128 -59 0 -107 -4
-107 -8z"/>
</g>
</svg>
