<svg fill="#000000" xmlns="http://www.w3.org/2000/svg"  viewBox="0 0 16 16" width="16px" height="16px"><path d="M 7.5 1 C 3.9160714 1 1 3.9160714 1 7.5 C 1 11.083929 3.9160714 14 7.5 14 C 11.083929 14 14 11.083929 14 7.5 C 14 3.9160714 11.083929 1 7.5 1 z M 7.5 2 C 10.543488 2 13 4.4565116 13 7.5 C 13 10.543488 10.543488 13 7.5 13 C 4.4565116 13 2 10.543488 2 7.5 C 2 4.4565116 4.4565116 2 7.5 2 z M 9.1113281 4.7519531 C 8.2683281 4.7519531 7.5820312 5.4353438 7.5820312 6.2773438 C 7.5820312 6.4343438 7.6367188 6.5395312 7.6367188 6.6445312 C 6.3727188 6.5925313 5.3229375 5.895 4.5859375 5 C 4.4279375 5.211 4.375 5.4733281 4.375 5.7363281 C 4.375 6.2623281 4.5799531 6.8419375 5.0019531 7.2109375 C 4.7219531 7.1729375 4.586 7.105 4.375 7 C 4.375 7.737 4.8442969 8.2248125 5.5292969 8.3828125 C 5.5292969 8.3828125 5.2654219 8.4355469 5.1074219 8.4355469 C 4.9874219 8.4355469 4.84375 8.3828125 4.84375 8.3828125 C 5.05475 8.9618125 5.580625 9.4335938 6.265625 9.4335938 C 5.739625 9.8025937 5.0541406 10 4.3691406 10 L 4 10 C 4.375 10.5 5.2494063 10.750953 6.3164062 10.751953 C 9.1074063 10.751953 10.636719 8.4355469 10.636719 6.4355469 L 10.636719 6.2246094 C 10.900719 6.0136094 11.163 5.7505469 11.375 5.4355469 C 11.059 5.5935469 10.796469 5.6442656 10.480469 5.6972656 C 10.796469 5.4872656 11.059062 5.2234688 11.164062 4.8554688 C 10.901063 5.0124687 10.585797 5.1716094 10.216797 5.2246094 C 9.9527969 4.9096094 9.5333281 4.7519531 9.1113281 4.7519531 z"/></svg>