<svg width="63" height="62" viewBox="0 0 63 62" fill="none" xmlns="http://www.w3.org/2000/svg">
<ellipse cx="31.5" cy="31" rx="31.5" ry="31" fill="#205284"/>
<path d="M34.834 17.25V22.9167C34.834 23.2924 34.9832 23.6527 35.2489 23.9184C35.5146 24.1841 35.8749 24.3333 36.2507 24.3333H41.9173M34.834 17.25H24.9173C24.1659 17.25 23.4452 17.5485 22.9138 18.0799C22.3825 18.6112 22.084 19.3319 22.084 20.0833V39.9167C22.084 40.6681 22.3825 41.3888 22.9138 41.9201C23.4452 42.4515 24.1659 42.75 24.9173 42.75H39.084C39.8354 42.75 40.5561 42.4515 41.0875 41.9201C41.6188 41.3888 41.9173 40.6681 41.9173 39.9167V24.3333M34.834 17.25L41.9173 24.3333M27.7507 37.0833V30M32.0007 37.0833V35.6667M36.2507 37.0833V32.8333" stroke="white" stroke-width="2" stroke-linecap="round" stroke-linejoin="round"/>
</svg>
