<svg width="63" height="62" viewBox="0 0 63 62" fill="none" xmlns="http://www.w3.org/2000/svg">
<ellipse cx="31.5" cy="31" rx="31.5" ry="31" fill="#4F73C3"/>
<path d="M26.5833 22.5C26.5833 23.6272 27.3296 24.7082 28.658 25.5052C29.9864 26.3022 31.788 26.75 33.6667 26.75C35.5453 26.75 37.347 26.3022 38.6753 25.5052C40.0037 24.7082 40.75 23.6272 40.75 22.5M26.5833 22.5C26.5833 21.3728 27.3296 20.2918 28.658 19.4948C29.9864 18.6978 31.788 18.25 33.6667 18.25C35.5453 18.25 37.347 18.6978 38.6753 19.4948C40.0037 20.2918 40.75 21.3728 40.75 22.5M26.5833 22.5V28.1667M40.75 22.5V28.1667M26.5833 28.1667C26.5833 30.5141 29.7552 32.4167 33.6667 32.4167C37.5781 32.4167 40.75 30.5141 40.75 28.1667M26.5833 28.1667V33.8333M40.75 28.1667V33.8333M26.5833 33.8333C26.5833 36.1807 29.7552 38.0833 33.6667 38.0833C37.5781 38.0833 40.75 36.1807 40.75 33.8333M26.5833 33.8333V39.5C26.5833 41.8474 29.7552 43.75 33.6667 43.75C37.5781 43.75 40.75 41.8474 40.75 39.5V33.8333M20.9167 26.75H17.375C16.8114 26.75 16.2709 26.9739 15.8724 27.3724C15.4739 27.7709 15.25 28.3114 15.25 28.875C15.25 29.4386 15.4739 29.9791 15.8724 30.3776C16.2709 30.7761 16.8114 31 17.375 31H18.7917C19.3553 31 19.8958 31.2239 20.2943 31.6224C20.6928 32.0209 20.9167 32.5614 20.9167 33.125C20.9167 33.6886 20.6928 34.2291 20.2943 34.6276C19.8958 35.0261 19.3553 35.25 18.7917 35.25H15.25M18.0833 35.25V36.6667M18.0833 25.3333V26.75" stroke="white" stroke-width="2" stroke-linecap="round" stroke-linejoin="round"/>
</svg>
