<svg width="59" height="62" viewBox="0 0 59 62" fill="none" xmlns="http://www.w3.org/2000/svg">
<ellipse cx="29.5" cy="31" rx="29.5" ry="31" fill="#002495"/>
<path d="M25.0625 27.125H25.0763M31.9375 27.125H31.9513M25.0625 32.9583C25.5106 33.4433 26.0454 33.8287 26.6357 34.0917C27.2259 34.3548 27.8597 34.4903 28.5 34.4903C29.1403 34.4903 29.7741 34.3548 30.3643 34.0917C30.9546 33.8287 31.4894 33.4433 31.9375 32.9583M17.5 44.625V25.6666C17.5 24.5063 17.9346 23.3935 18.7082 22.573C19.4818 21.7526 20.531 21.2916 21.625 21.2916H35.375C36.469 21.2916 37.5182 21.7526 38.2918 22.573C39.0654 23.3935 39.5 24.5063 39.5 25.6666V34.4166C39.5 35.5769 39.0654 36.6897 38.2918 37.5102C37.5182 38.3307 36.469 38.7916 35.375 38.7916H23L17.5 44.625Z" stroke="white" stroke-width="2" stroke-linecap="round" stroke-linejoin="round"/>
</svg>
