<svg width="68" height="62" viewBox="0 0 68 62" fill="none" xmlns="http://www.w3.org/2000/svg">
<ellipse cx="31.5" cy="31" rx="31.5" ry="31" fill="#212C4F"/>
<path d="M38.4706 25.25V22.125C38.4706 21.2962 38.1359 20.5013 37.5402 19.9153C36.9445 19.3292 36.1366 19 35.2941 19H24.1765C23.334 19 22.5261 19.3292 21.9304 19.9153C21.3347 20.5013 21 21.2962 21 22.125V40.875C21 41.7038 21.3347 42.4987 21.9304 43.0847C22.5261 43.6708 23.334 44 24.1765 44H35.2941C36.1366 44 36.9445 43.6708 37.5402 43.0847C38.1359 42.4987 38.4706 41.7038 38.4706 40.875V37.75M48 31.5H27.3529M27.3529 31.5L32.1176 26.8125M27.3529 31.5L32.1176 36.1875" stroke="white" stroke-width="2" stroke-linecap="round" stroke-linejoin="round"/>
</svg>
