<svg width="63" height="62" viewBox="0 0 63 62" fill="none" xmlns="http://www.w3.org/2000/svg">
<ellipse cx="31.5" cy="31" rx="31.5" ry="31" fill="#002495"/>
<path d="M26 23.5V20.5C26 19.7044 26.3161 18.9413 26.8787 18.3787C27.4413 17.8161 28.2044 17.5 29 17.5H35C35.7956 17.5 36.5587 17.8161 37.1213 18.3787C37.6839 18.9413 38 19.7044 38 20.5V23.5M32 31V31.015M18.5 32.5C22.6874 34.61 27.311 35.7091 32 35.7091C36.689 35.7091 41.3126 34.61 45.5 32.5M18.5 26.5C18.5 25.7044 18.8161 24.9413 19.3787 24.3787C19.9413 23.8161 20.7044 23.5 21.5 23.5H42.5C43.2956 23.5 44.0587 23.8161 44.6213 24.3787C45.1839 24.9413 45.5 25.7044 45.5 26.5V40C45.5 40.7956 45.1839 41.5587 44.6213 42.1213C44.0587 42.6839 43.2956 43 42.5 43H21.5C20.7044 43 19.9413 42.6839 19.3787 42.1213C18.8161 41.5587 18.5 40.7956 18.5 40V26.5Z" stroke="white" stroke-width="2" stroke-linecap="round" stroke-linejoin="round"/>
</svg>
