<svg width="63" height="62" viewBox="0 0 63 62" fill="none" xmlns="http://www.w3.org/2000/svg">
<ellipse cx="31.5" cy="31" rx="31.5" ry="31" fill="#3672F8"/>
<path d="M22.5 44H37.5M25.5 38V44M34.5 38V44M25.5 32V26M30 32V30.5M34.5 32V29M16.5 21.5C16.5 21.1022 16.658 20.7206 16.9393 20.4393C17.2206 20.158 17.6022 20 18 20H42C42.3978 20 42.7794 20.158 43.0607 20.4393C43.342 20.7206 43.5 21.1022 43.5 21.5V36.5C43.5 36.8978 43.342 37.2794 43.0607 37.5607C42.7794 37.842 42.3978 38 42 38H18C17.6022 38 17.2206 37.842 16.9393 37.5607C16.658 37.2794 16.5 36.8978 16.5 36.5V21.5Z" stroke="white" stroke-width="2" stroke-linecap="round" stroke-linejoin="round"/>
<path d="M22.5 44H37.5M25.5 38V44M34.5 38V44M25.5 32V26M30 32V30.5M34.5 32V29M16.5 21.5C16.5 21.1022 16.658 20.7206 16.9393 20.4393C17.2206 20.158 17.6022 20 18 20H42C42.3978 20 42.7794 20.158 43.0607 20.4393C43.342 20.7206 43.5 21.1022 43.5 21.5V36.5C43.5 36.8978 43.342 37.2794 43.0607 37.5607C42.7794 37.842 42.3978 38 42 38H18C17.6022 38 17.2206 37.842 16.9393 37.5607C16.658 37.2794 16.5 36.8978 16.5 36.5V21.5Z" stroke="white" stroke-width="2" stroke-linecap="round" stroke-linejoin="round"/>
</svg>
