<svg width="63" height="62" viewBox="0 0 63 62" fill="none" xmlns="http://www.w3.org/2000/svg">
<ellipse cx="31.5" cy="31" rx="31.5" ry="31" fill="#4899F7"/>
<path d="M16.625 29.5H18.1667M30.5 15.625V17.1667M42.8333 29.5H44.375M20.6333 19.6333L21.7125 20.7125M40.3667 19.6333L39.2875 20.7125M26.9542 37.2083H34.0458M25.875 35.6667C24.5807 34.696 23.6247 33.3426 23.1423 31.7984C22.6599 30.2541 22.6756 28.5972 23.1872 27.0624C23.6988 25.5276 24.6804 24.1926 25.9929 23.2467C27.3053 22.3007 28.8822 21.7917 30.5 21.7917C32.1178 21.7917 33.6947 22.3007 35.0071 23.2467C36.3196 24.1926 37.3012 25.5276 37.8128 27.0624C38.3244 28.5972 38.3401 30.2541 37.8577 31.7984C37.3753 33.3426 36.4193 34.696 35.125 35.6667C34.5231 36.2625 34.0699 36.9916 33.8021 37.7951C33.5342 38.5986 33.4593 39.4539 33.5833 40.2917C33.5833 41.1094 33.2585 41.8937 32.6802 42.4719C32.102 43.0501 31.3178 43.375 30.5 43.375C29.6822 43.375 28.898 43.0501 28.3198 42.4719C27.7415 41.8937 27.4167 41.1094 27.4167 40.2917C27.5407 39.4539 27.4658 38.5986 27.1979 37.7951C26.9301 36.9916 26.4769 36.2625 25.875 35.6667Z" stroke="white" stroke-width="2" stroke-linecap="round" stroke-linejoin="round"/>
</svg>
