<svg width="51" height="51" viewBox="0 0 51 51" fill="none" xmlns="http://www.w3.org/2000/svg">
<circle cx="25.6532" cy="25.8705" r="24.8788" fill="#06CF62"/>
<g clip-path="url(#clip0_25_232)">
<path fill-rule="evenodd" clip-rule="evenodd" d="M31.3175 14.6205H19.5042C19.4794 14.6205 19.4592 14.6415 19.4592 14.6674V17.6137C19.4592 18.0272 19.1368 18.3637 18.7405 18.3637H15.9169C15.8922 18.3637 15.872 18.3847 15.872 18.4106V35.1543C15.872 35.4125 16.0738 35.623 16.3212 35.623H31.3175C31.5649 35.623 31.7667 35.4125 31.7667 35.1543V33.2061C31.7667 33.1705 31.7305 33.148 31.7005 33.1649C31.0059 33.5563 30.2279 33.7623 29.4287 33.7623C27.3384 33.7623 25.5609 32.3641 24.9081 30.4152C24.9017 30.3961 24.8852 30.3838 24.8658 30.3838H18.0329C17.8592 30.3838 17.7184 30.2369 17.7184 30.0557C17.7184 29.8745 17.8592 29.7275 18.0329 29.7275H24.6758C24.704 29.7275 24.725 29.7012 24.7199 29.6722C24.6293 29.1568 24.617 28.6271 24.6827 28.1076C24.6863 28.0793 24.6655 28.0546 24.6382 28.0546H18.0329C17.8592 28.0546 17.7184 27.9077 17.7184 27.7265C17.7184 27.5452 17.8592 27.3983 18.0329 27.3983H24.7891C24.8094 27.3983 24.8266 27.3849 24.8323 27.3646C24.9918 26.7942 25.2465 26.2662 25.5768 25.8001C25.5988 25.7691 25.5776 25.7254 25.5406 25.7254H18.0329C17.8592 25.7254 17.7184 25.5785 17.7184 25.3972C17.7184 25.216 17.8592 25.0691 18.0329 25.0691H26.192C26.2036 25.0691 26.2136 25.0651 26.2221 25.057C27.0709 24.2577 28.1953 23.7709 29.4286 23.7709C30.2508 23.7709 31.0244 23.9875 31.7004 24.3686C31.7305 24.3855 31.7667 24.3629 31.7667 24.3273V15.0892C31.7667 14.831 31.5649 14.6205 31.3175 14.6205ZM29.4287 24.4271C31.7255 24.4271 33.5874 26.3699 33.5874 28.7666C33.5874 29.7317 33.2853 30.6232 32.7746 31.3439C32.7612 31.3627 32.7631 31.3884 32.7789 31.4049L33.2618 31.9087C33.2804 31.9281 33.2792 31.9595 33.2592 31.9774C33.237 31.9974 33.2152 32.0183 33.1941 32.0404L32.5661 32.6957C32.545 32.7177 32.5249 32.7404 32.5058 32.7637C32.4887 32.7845 32.4586 32.7857 32.44 32.7663L31.9571 32.2625C31.9413 32.246 31.9167 32.2441 31.8987 32.258C31.2081 32.7909 30.3537 33.1061 29.4288 33.1061C27.132 33.1061 25.2701 31.1632 25.2701 28.7666C25.2701 26.37 27.1319 24.4271 29.4287 24.4271ZM33.0108 33.1597C32.8033 33.3762 32.8033 33.7303 33.0108 33.9468L35.8967 36.9582C36.1041 37.1746 36.4435 37.1746 36.6509 36.9582L37.2789 36.3028C37.4864 36.0864 37.4864 35.7322 37.2789 35.5158L34.3931 32.5044C34.1856 32.288 33.8462 32.288 33.6388 32.5044L33.0108 33.1597ZM29.4287 25.37C31.227 25.37 32.6838 26.89 32.6838 28.7666C32.6838 30.6431 31.227 32.1632 29.4287 32.1632C27.6304 32.1632 26.1736 30.6431 26.1736 28.7666C26.1736 26.8901 27.6304 25.37 29.4287 25.37ZM29.4287 26.0262C30.8798 26.0262 32.0548 27.2524 32.0548 28.7666C32.0548 30.2808 30.8798 31.5069 29.4287 31.5069C27.9776 31.5069 26.8025 30.2807 26.8025 28.7666C26.8025 27.2524 27.9776 26.0262 29.4287 26.0262ZM26.6117 20.4661C26.0231 20.4661 25.7278 21.2101 26.144 21.6444C26.2206 21.7243 26.2206 21.8541 26.144 21.9341L25.7213 22.3751C25.6447 22.4551 25.5203 22.4551 25.4436 22.3751C25.0275 21.9409 24.3145 22.249 24.3145 22.8632C24.3145 22.9763 24.2266 23.068 24.1182 23.068H23.5205C23.4121 23.068 23.3242 22.9763 23.3242 22.8632C23.3242 22.2483 22.6117 21.9403 22.195 22.3751C22.1184 22.4551 21.9941 22.4551 21.9174 22.3751L21.4947 21.9341C21.418 21.8541 21.418 21.7243 21.4947 21.6444C21.9109 21.2101 21.6155 20.4661 21.027 20.4661C20.9186 20.4661 20.8307 20.3744 20.8307 20.2613V19.6376C20.8307 19.5245 20.9186 19.4328 21.027 19.4328C21.6156 19.4328 21.9109 18.6888 21.4947 18.2545C21.418 18.1745 21.418 18.0448 21.4947 17.9648L21.9174 17.5237C21.994 17.4438 22.1184 17.4438 22.195 17.5237C22.6112 17.958 23.3242 17.6498 23.3242 17.0357C23.3242 16.9226 23.4121 16.8309 23.5205 16.8309H24.1182C24.2266 16.8309 24.3145 16.9226 24.3145 17.0357C24.3145 17.6498 25.0275 17.958 25.4436 17.5237C25.5203 17.4438 25.6447 17.4438 25.7213 17.5237L26.144 17.9648C26.2206 18.0447 26.2206 18.1745 26.144 18.2545C25.7278 18.6888 26.0231 19.4328 26.6117 19.4328C26.7201 19.4328 26.808 19.5245 26.808 19.6376V20.2613C26.808 20.3744 26.7201 20.4661 26.6117 20.4661ZM23.8194 18.451C24.6124 18.451 25.2553 19.1219 25.2553 19.9494C25.2553 20.777 24.6124 21.4478 23.8194 21.4478C23.0263 21.4478 22.3834 20.777 22.3834 19.9494C22.3834 19.1219 23.0263 18.451 23.8194 18.451ZM18.7537 15.0286C18.782 14.9991 18.8303 15.02 18.8303 15.0618V17.6137C18.8303 17.6649 18.7896 17.7074 18.7405 17.7074H16.2949C16.2548 17.7074 16.2348 17.657 16.2631 17.6274L18.7537 15.0286Z" fill="white"/>
</g>
<defs>
<clipPath id="clip0_25_232">
<rect width="23" height="24" fill="white" transform="translate(15.1533 13.8705)"/>
</clipPath>
</defs>
</svg>
