<svg width="80" height="80" viewBox="0 0 80 80" fill="none" xmlns="http://www.w3.org/2000/svg">
<circle cx="40" cy="40" r="40" fill="#7B42F6"/>
<path d="M23.375 39.5C23.375 41.6176 23.7921 43.7144 24.6024 45.6708C25.4128 47.6271 26.6006 49.4048 28.0979 50.9021C29.5952 52.3994 31.3729 53.5872 33.3292 54.3976C35.2856 55.2079 37.3824 55.625 39.5 55.625C41.6176 55.625 43.7144 55.2079 45.6708 54.3976C47.6271 53.5872 49.4048 52.3994 50.9021 50.9021C52.3994 49.4048 53.5872 47.6271 54.3976 45.6708C55.2079 43.7144 55.625 41.6176 55.625 39.5C55.625 37.3824 55.2079 35.2856 54.3976 33.3292C53.5872 31.3729 52.3994 29.5952 50.9021 28.0979C49.4048 26.6006 47.6271 25.4128 45.6708 24.6024C43.7144 23.7921 41.6176 23.375 39.5 23.375C37.3824 23.375 35.2856 23.7921 33.3292 24.6024C31.3729 25.4128 29.5952 26.6006 28.0979 28.0979C26.6006 29.5952 25.4128 31.3729 24.6024 33.3292C23.7921 35.2856 23.375 37.3824 23.375 39.5Z" stroke="white" stroke-width="2" stroke-linecap="round" stroke-linejoin="round"/>
<path d="M39.5 23.375C37.3617 23.375 35.311 24.2244 33.799 25.7365C32.2869 27.2485 31.4375 29.2992 31.4375 31.4375C31.4375 33.5758 32.2869 35.6265 33.799 37.1385C35.311 38.6506 37.3617 39.5 39.5 39.5C41.6383 39.5 43.689 40.3494 45.201 41.8615C46.7131 43.3735 47.5625 45.4242 47.5625 47.5625C47.5625 49.7008 46.7131 51.7515 45.201 53.2635C43.689 54.7756 41.6383 55.625 39.5 55.625" stroke="white" stroke-width="2" stroke-linecap="round" stroke-linejoin="round"/>
<path d="M39.5003 32.3332C39.9951 32.3332 40.3962 31.9321 40.3962 31.4373C40.3962 30.9426 39.9951 30.5415 39.5003 30.5415C39.0056 30.5415 38.6045 30.9426 38.6045 31.4373C38.6045 31.9321 39.0056 32.3332 39.5003 32.3332Z" fill="white" stroke="white" stroke-width="2" stroke-linecap="round" stroke-linejoin="round"/>
<path d="M39.5003 48.4582C39.9951 48.4582 40.3962 48.0571 40.3962 47.5623C40.3962 47.0676 39.9951 46.6665 39.5003 46.6665C39.0056 46.6665 38.6045 47.0676 38.6045 47.5623C38.6045 48.0571 39.0056 48.4582 39.5003 48.4582Z" fill="white" stroke="white" stroke-width="2" stroke-linecap="round" stroke-linejoin="round"/>
</svg>
