<svg width="58" height="58" viewBox="0 0 58 58" fill="none" xmlns="http://www.w3.org/2000/svg">
<circle cx="29.2086" cy="28.7003" r="28.6534" fill="#55CEE1"/>
<g clip-path="url(#clip0_47_705)">
<path d="M30 27.9392C33.3739 27.9392 36.1191 25.194 36.1191 21.8201C36.1191 18.4462 33.3739 15.7009 30 15.7009C26.5276 15.7009 23.2629 17.0532 20.8076 19.5085C18.3523 21.9638 17 25.2285 17 28.7009C17 32.1733 18.3523 35.4381 20.8076 37.8933C21.7364 38.8221 22.7804 39.593 23.9083 40.1922C22.9353 38.91 22.3574 37.3124 22.3574 35.5818C22.3574 31.3675 25.7857 27.9392 30 27.9392ZM30 18.9743C31.5691 18.9743 32.8458 20.2509 32.8458 21.8201C32.8458 23.3892 31.5691 24.6658 30 24.6658C28.4309 24.6658 27.1542 23.3892 27.1542 21.8201C27.1542 20.2509 28.4309 18.9743 30 18.9743Z" fill="white"/>
<path d="M39.1924 19.5086C38.2636 18.5798 37.2196 17.8089 36.0917 17.2097C37.0647 18.4919 37.6426 20.0895 37.6426 21.8201C37.6426 26.0345 34.2143 29.4627 30 29.4627C26.6261 29.4627 23.8809 32.208 23.8809 35.5819C23.8809 38.9558 26.6261 41.701 30 41.701C33.4724 41.701 36.7371 40.3487 39.1924 37.8934C41.6477 35.4382 43 32.1734 43 28.701C43 25.2286 41.6477 21.9639 39.1924 19.5086ZM30 38.4276C28.4309 38.4276 27.1542 37.151 27.1542 35.5819C27.1542 34.0127 28.4309 32.7361 30 32.7361C31.5691 32.7361 32.8458 34.0127 32.8458 35.5819C32.8458 37.151 31.5691 38.4276 30 38.4276Z" fill="white"/>
<path d="M30.0001 23.1425C30.7304 23.1425 31.3224 22.5505 31.3224 21.8201C31.3224 21.0898 30.7304 20.4978 30.0001 20.4978C29.2698 20.4978 28.6777 21.0898 28.6777 21.8201C28.6777 22.5505 29.2698 23.1425 30.0001 23.1425Z" fill="white"/>
<path d="M30.0001 36.9042C30.7304 36.9042 31.3224 36.3122 31.3224 35.5819C31.3224 34.8516 30.7304 34.2595 30.0001 34.2595C29.2698 34.2595 28.6777 34.8516 28.6777 35.5819C28.6777 36.3122 29.2698 36.9042 30.0001 36.9042Z" fill="white"/>
</g>
<defs>
<clipPath id="clip0_47_705">
<rect width="26" height="26" fill="white" transform="translate(17 15.7009)"/>
</clipPath>
</defs>
</svg>
