<svg width="80" height="80" viewBox="0 0 80 80" fill="none" xmlns="http://www.w3.org/2000/svg">
<circle cx="40" cy="40" r="40" fill="#D9E0EC" fill-opacity="0.3"/>
<path d="M33.9998 48.3402L27.0598 41.4002C26.6858 41.0262 26.1787 40.8161 25.6498 40.8161C25.121 40.8161 24.6138 41.0262 24.2398 41.4002C23.8658 41.7741 23.6558 42.2813 23.6558 42.8102C23.6558 43.072 23.7073 43.3313 23.8075 43.5732C23.9078 43.8152 24.0546 44.035 24.2398 44.2201L32.5998 52.5802C33.3798 53.3602 34.6398 53.3602 35.4198 52.5802L56.5798 31.4202C56.9538 31.0462 57.1638 30.539 57.1638 30.0102C57.1638 29.4813 56.9538 28.9741 56.5798 28.6002C56.2058 28.2262 55.6987 28.0161 55.1698 28.0161C54.6409 28.0161 54.1338 28.2262 53.7598 28.6002L33.9998 48.3402Z" fill="#5CC97B"/>
</svg>
