<svg width="65" height="65" viewBox="0 0 65 65" fill="none" xmlns="http://www.w3.org/2000/svg">
<circle cx="32.5" cy="32.5" r="32.5" fill="#EAB652"/>
<path d="M34.875 28.75L45.0266 38.9497C46.1582 40.0772 46.1582 41.9033 45.0266 43.0294C44.483 43.5701 43.7474 43.8737 42.9806 43.8737C42.2139 43.8737 41.4783 43.5701 40.9346 43.0294L30.75 32.875" stroke="white" stroke-width="2" stroke-linecap="round" stroke-linejoin="round"/>
<path d="M25.25 27.375L30.75 32.875" stroke="white" stroke-width="2" stroke-linecap="round" stroke-linejoin="round"/>
<path d="M34.875 28.75L29.375 23.25" stroke="white" stroke-width="2" stroke-linecap="round" stroke-linejoin="round"/>
<path d="M21.125 43.875H30.75" stroke="white" stroke-width="2" stroke-linecap="round" stroke-linejoin="round"/>
<path d="M26.3402 36.7154L21.4094 31.7847C21.1516 31.5268 21.0068 31.1771 21.0068 30.8125C21.0068 30.4479 21.1516 30.0983 21.4094 29.8404L24.5623 26.6875L25.2498 27.375L29.3748 23.25L28.6873 22.5625L31.8402 19.4097C32.098 19.1519 32.4477 19.0071 32.8123 19.0071C33.1769 19.0071 33.5266 19.1519 33.7844 19.4097L38.7152 24.3404C38.9729 24.5983 39.1177 24.9479 39.1177 25.3125C39.1177 25.6771 38.9729 26.0268 38.7152 26.2847L35.5623 29.4375L34.8748 28.75L30.7498 32.875L31.4373 33.5625L28.2844 36.7154C28.0266 36.9732 27.6769 37.118 27.3123 37.118C26.9477 37.118 26.598 36.9732 26.3402 36.7154V36.7154Z" stroke="white" stroke-width="2" stroke-linecap="round" stroke-linejoin="round"/>
</svg>
