<svg width="65" height="65" viewBox="0 0 65 65" fill="none" xmlns="http://www.w3.org/2000/svg">
<circle cx="32.5" cy="32.5" r="32.5" fill="#0657CF"/>
<path d="M31.5 47.375C39.163 47.375 45.375 41.163 45.375 33.5C45.375 25.837 39.163 19.625 31.5 19.625C23.837 19.625 17.625 25.837 17.625 33.5C17.625 41.163 23.837 47.375 31.5 47.375Z" stroke="white" stroke-width="2" stroke-linecap="round" stroke-linejoin="round"/>
<path d="M35.2022 27.3334C34.1708 26.3652 32.8897 25.7917 31.5007 25.7917C28.0936 25.7917 25.334 29.2435 25.334 33.5001C25.334 37.7566 28.0936 41.2084 31.5007 41.2084C32.8882 41.2084 34.1693 40.6349 35.2007 39.6667" stroke="white" stroke-width="2" stroke-linecap="round" stroke-linejoin="round"/>
<path d="M23.791 31.1875H29.9577" stroke="white" stroke-width="2" stroke-linecap="round" stroke-linejoin="round"/>
<path d="M23.791 35.8125H29.9577" stroke="white" stroke-width="2" stroke-linecap="round" stroke-linejoin="round"/>
</svg>
