<svg width="65" height="65" viewBox="0 0 65 65" fill="none" xmlns="http://www.w3.org/2000/svg">
<circle cx="32.5" cy="32.5" r="32.5" fill="#002495"/>
<path d="M31.5 47.375C39.163 47.375 45.375 41.163 45.375 33.5C45.375 25.837 39.163 19.625 31.5 19.625C23.837 19.625 17.625 25.837 17.625 33.5C17.625 41.163 23.837 47.375 31.5 47.375Z" stroke="white" stroke-width="2" stroke-linecap="round" stroke-linejoin="round"/>
<path d="M35.8167 28.875C35.5374 28.3905 35.1316 27.9911 34.6428 27.7196C34.154 27.448 33.6005 27.3145 33.0417 27.3333H29.9583C29.1406 27.3333 28.3563 27.6581 27.7781 28.2364C27.1999 28.8146 26.875 29.5989 26.875 30.4166C26.875 31.2344 27.1999 32.0186 27.7781 32.5969C28.3563 33.1751 29.1406 33.5 29.9583 33.5H33.0417C33.8594 33.5 34.6437 33.8248 35.2219 34.403C35.8001 34.9813 36.125 35.7655 36.125 36.5833C36.125 37.401 35.8001 38.1853 35.2219 38.7635C34.6437 39.3418 33.8594 39.6666 33.0417 39.6666H29.9583C29.3995 39.6854 28.846 39.5519 28.3572 39.2804C27.8684 39.0088 27.4626 38.6094 27.1833 38.125" stroke="white" stroke-width="2" stroke-linecap="round" stroke-linejoin="round"/>
<path d="M31.5 25.7917V41.2084" stroke="white" stroke-width="2" stroke-linecap="round" stroke-linejoin="round"/>
</svg>
