<svg width="65" height="65" viewBox="0 0 65 65" fill="none" xmlns="http://www.w3.org/2000/svg">
<circle cx="32.5" cy="32.5" r="32.5" fill="#1B1464"/>
<path d="M20.125 45.5625L20.478 43.2934C20.6866 41.9525 21.561 40.8073 22.8478 40.3764C24.9993 39.656 28.6141 38.6875 32.5 38.6875C36.3859 38.6875 40.0007 39.656 42.1522 40.3764C43.439 40.8073 44.3134 41.9525 44.522 43.2934L44.875 45.5625" stroke="white" stroke-width="2" stroke-linecap="round" stroke-linejoin="round"/>
<path d="M32.5 32.5C36.297 32.5 39.375 29.422 39.375 25.625C39.375 21.828 36.297 18.75 32.5 18.75C28.703 18.75 25.625 21.828 25.625 25.625C25.625 29.422 28.703 32.5 32.5 32.5Z" stroke="white" stroke-width="2" stroke-linecap="round" stroke-linejoin="round"/>
</svg>
