<svg width="51" height="50" viewBox="0 0 51 50" fill="none" xmlns="http://www.w3.org/2000/svg">
<circle cx="25.3952" cy="25.0811" r="24.8788" fill="#0657CF"/>
<g clip-path="url(#clip0_25_174)">
<path d="M23.0588 20.2796C22.9784 20.3662 22.8718 20.4093 22.7652 20.4093L19.792 20.4094V22.4658C19.792 23.3994 20.1583 24.2485 20.7485 24.8643C21.3387 25.4801 22.1524 25.8624 23.0471 25.8624C23.9126 25.8624 24.7344 25.5023 25.3457 24.8643C25.9359 24.2485 26.3022 23.3994 26.3022 22.4658V20.2343H26.1234C26.0086 20.2343 25.905 20.1852 25.8304 20.1061L24.5109 18.7292L23.0588 20.2796ZM18.9706 22.4658V19.9808C18.9706 19.744 19.1545 19.5521 19.3813 19.5521H22.594L24.1942 17.8445C24.3491 17.6528 24.6284 17.6397 24.7988 17.8175L26.2934 19.3772H26.7129C26.9398 19.3772 27.1237 19.5691 27.1237 19.8058V22.4658C27.1237 23.636 26.6652 24.6995 25.9265 25.4703C25.1878 26.2411 24.1686 26.7196 23.0471 26.7196C21.9632 26.7196 20.9335 26.2694 20.1677 25.4703C19.429 24.6995 18.9706 23.636 18.9706 22.4658Z" fill="white"/>
<path d="M25.4574 25.6675C25.4574 25.4308 25.2735 25.239 25.0467 25.239C24.8198 25.239 24.6359 25.4308 24.6359 25.6675V27.5954L22.986 29.3854L21.4583 27.6052V25.6676C21.4583 25.4309 21.2744 25.239 21.0476 25.239C20.8207 25.239 20.6368 25.4309 20.6368 25.6676V27.7664C20.6368 27.8683 20.6714 27.9705 20.7416 28.0523L20.7428 28.0511L22.6459 30.2687C22.6593 30.2875 22.6742 30.3053 22.6909 30.3221C22.8544 30.4862 23.1144 30.4808 23.2717 30.3103L23.2709 30.3094L25.3212 28.0851C25.4048 28.0067 25.4574 27.893 25.4574 27.7664V25.6675Z" fill="white"/>
<path fill-rule="evenodd" clip-rule="evenodd" d="M37.8953 23.4483H28.7628V36.2611H37.8953V23.4483ZM30.0599 33.671H31.5741V35.3318H30.0599V33.671ZM30.0599 30.8489H31.5741V32.5097H30.0599V30.8489ZM30.0599 28.0269H31.5741V29.6877H30.0599V28.0269ZM32.572 33.671H34.0862V35.3318H32.572V33.671ZM32.572 30.8489H34.0862V32.5097H32.572V30.8489ZM32.572 28.0269H34.0862V29.6877H32.572V28.0269ZM35.084 33.671H36.5983V35.3318H35.084V33.671ZM35.084 30.8489H36.5983V32.5097H35.084V30.8489ZM35.084 28.0269H36.5983V29.6877H35.084V28.0269ZM29.7967 24.3775H36.8614V26.3823H29.7967V24.3775Z" fill="white"/>
<path fill-rule="evenodd" clip-rule="evenodd" d="M26.7386 16.6092C26.5335 15.3787 24.6365 14.282 24.6365 14.282C19.5865 12.5165 17.9459 17.4651 17.9459 17.4651C17.3306 21.317 19.3856 22.653 19.3856 22.653C19.3828 22.5909 19.3813 22.5285 19.3813 22.4658V19.9808H22.7652L24.5084 18.1206L26.1234 19.8058H26.7129V19.9808V22.4658C26.7129 22.5629 26.7094 22.6592 26.7025 22.7546C28.5757 20.5699 28.1677 18.2421 27.9398 17.4233C27.7939 16.8989 27.2628 16.8508 26.7386 16.6092Z" fill="white"/>
<path fill-rule="evenodd" clip-rule="evenodd" d="M22.9757 30.0132L21.0476 27.7664V27.7639C18.2627 28.062 14.8953 29.1229 14.8953 32.6281V35.283H28.3521V28.5694C27.3194 28.1172 26.1383 27.8833 25.0467 27.7664L22.9757 30.0132Z" fill="white"/>
</g>
<defs>
<clipPath id="clip0_25_174">
<rect width="23" height="24" fill="white" transform="translate(14.8953 13.0812)"/>
</clipPath>
</defs>
</svg>
