<svg width="60" height="59" viewBox="0 0 60 59" fill="none" xmlns="http://www.w3.org/2000/svg">
<circle cx="29.7693" cy="29.4776" r="29.4786" fill="#0657CF"/>
<g clip-path="url(#clip0_115_207)">
<path d="M33.9722 30.6318L31.6444 32.9675C30.7005 33.9148 29.0395 33.9352 28.0752 32.9675L25.7473 30.6318L17.3865 39.0198C17.6977 39.1637 18.0408 39.2496 18.4056 39.2496H41.314C41.6788 39.2496 42.0218 39.1638 42.3329 39.0198L33.9722 30.6318Z" fill="white"/>
<path d="M41.314 19.707H18.4056C18.0408 19.707 17.6977 19.7929 17.3866 19.9368L26.3207 28.9006C26.3213 28.9011 26.322 28.9013 26.3226 28.9019C26.3232 28.9025 26.3233 28.9033 26.3233 28.9033L29.2283 31.8178C29.5368 32.1264 30.1829 32.1264 30.4915 31.8178L33.3958 28.9038C33.3958 28.9038 33.3965 28.9025 33.3971 28.9019C33.3971 28.9019 33.3984 28.9011 33.399 28.9006L42.3329 19.9368C42.0218 19.7928 41.6788 19.707 41.314 19.707Z" fill="white"/>
<path d="M16.2226 21.0752C16.0616 21.4008 15.9628 21.7622 15.9628 22.1494V36.8064C15.9628 37.1936 16.0615 37.555 16.2226 37.8806L24.5978 29.4782L16.2226 21.0752Z" fill="white"/>
<path d="M43.497 21.0752L35.1218 29.4783L43.497 37.8808C43.658 37.5552 43.7568 37.1938 43.7568 36.8065V22.1495C43.7568 21.7622 43.658 21.4008 43.497 21.0752Z" fill="white"/>
</g>
<defs>
<clipPath id="clip0_115_207">
<rect width="27.794" height="27.794" fill="white" transform="translate(15.9628 15.5811)"/>
</clipPath>
</defs>
</svg>
