<svg width="51" height="50" viewBox="0 0 51 50" fill="none" xmlns="http://www.w3.org/2000/svg">
<circle cx="25.4024" cy="24.9762" r="24.8788" fill="#55CEE1"/>
<g clip-path="url(#clip0_25_199)">
<path d="M22.5523 23.0415H28.9976C29.3539 23.0415 29.6421 22.7531 29.6421 22.397V21.7524C29.6421 19.6199 27.9074 17.8853 25.7749 17.8853C23.6424 17.8853 21.9077 19.6199 21.9077 21.7524V22.397C21.9077 22.7531 22.1961 23.0415 22.5523 23.0415Z" fill="white"/>
<path d="M36.1304 17.8853C35.0603 17.8853 34.1538 18.7488 34.1538 19.8188V25.5552C34.1538 25.697 34.0893 25.8387 33.9863 25.9419C33.9863 25.9419 30.6089 29.3193 30.4414 29.4868C30.1706 29.7575 29.771 29.7317 29.5261 29.4868C29.281 29.2419 29.281 28.8423 29.5132 28.5974C29.5132 28.5974 32.6586 25.4649 32.6586 25.4521C32.8721 25.2146 32.8966 24.8418 32.6457 24.5625C31.9275 23.8446 30.6787 23.778 29.9128 24.5625C29.9128 24.5625 27.2187 27.2568 27.1413 27.3342C26.6772 27.9142 26.4194 28.6232 26.4194 29.3708C26.4194 29.6476 26.4194 34.1739 26.4194 34.0415C26.4194 34.4025 26.7029 34.686 27.064 34.686H32.2202C32.5812 34.686 32.8647 34.4025 32.8647 34.0415V32.3098C35.3715 28.7894 35.443 28.6769 36.0916 27.8755C36.5429 27.3083 36.7749 26.5993 36.7749 25.8904V18.5298C36.7749 18.1687 36.4914 17.8853 36.1304 17.8853Z" fill="white"/>
<path d="M18.6851 32.3098V34.0415C18.6851 34.4025 18.9686 34.686 19.3296 34.686H24.4858C24.8469 34.686 25.1304 34.4025 25.1304 34.0415C25.1304 34.1737 25.1304 29.6476 25.1304 29.3708C25.1304 28.6231 24.8726 27.9142 24.4085 27.334C24.3312 27.2568 21.637 24.5625 21.637 24.5625C20.8711 23.7778 19.6223 23.8446 18.9041 24.5625C18.6532 24.8416 18.6777 25.2146 18.8913 25.4519C18.8913 25.4649 22.0366 28.5974 22.0366 28.5974C22.2688 28.8423 22.2688 29.2419 22.0239 29.4868C21.7788 29.7317 21.3793 29.7575 21.1086 29.4868C20.9409 29.3191 17.5637 25.9419 17.5637 25.9419C17.4605 25.8387 17.396 25.697 17.396 25.5552V19.8188C17.396 18.7488 16.4895 17.8853 15.4194 17.8853C15.0584 17.8853 14.7749 18.1687 14.7749 18.5298V25.8904C14.7749 26.5993 15.007 27.3083 15.4582 27.8755C16.1068 28.6769 16.1783 28.7894 18.6851 32.3098Z" fill="white"/>
<path d="M25.7749 16.5962C26.8427 16.5962 27.7085 15.6875 27.7085 14.6196C27.7085 13.5518 26.8427 12.686 25.7749 12.686C24.7071 12.686 23.8413 13.5518 23.8413 14.6196C23.8413 15.6875 24.7071 16.5962 25.7749 16.5962Z" fill="white"/>
</g>
<defs>
<clipPath id="clip0_25_199">
<rect width="22" height="22" fill="white" transform="translate(14.7749 12.686)"/>
</clipPath>
</defs>
</svg>
