<svg width="13" height="13" viewBox="0 0 13 13" fill="none" xmlns="http://www.w3.org/2000/svg">
<path d="M6.60876 12.0234C9.92247 12.0234 12.6088 9.33708 12.6088 6.02338C12.6088 2.70967 9.92247 0.0233765 6.60876 0.0233765C3.29506 0.0233765 0.608765 2.70967 0.608765 6.02338C0.608765 9.33708 3.29506 12.0234 6.60876 12.0234Z" fill="#F0F0F0"/>
<path d="M1.84905 2.37042C1.37774 2.98362 1.02236 3.69038 0.81543 4.45816H3.93679L1.84905 2.37042Z" fill="#0052B4"/>
<path d="M12.4021 4.45814C12.1951 3.69038 11.8397 2.98362 11.3685 2.37042L9.28076 4.45814H12.4021Z" fill="#0052B4"/>
<path d="M0.81543 7.58856C1.02238 8.35633 1.37777 9.06309 1.84905 9.67626L3.93672 7.58856H0.81543Z" fill="#0052B4"/>
<path d="M10.2617 1.26368C9.64847 0.792377 8.94174 0.436995 8.17395 0.230042V3.35138L10.2617 1.26368Z" fill="#0052B4"/>
<path d="M2.95581 10.783C3.56901 11.2544 4.27576 11.6097 5.04353 11.8167V8.69537L2.95581 10.783Z" fill="#0052B4"/>
<path d="M5.04351 0.230042C4.27574 0.436995 3.56898 0.792377 2.95581 1.26366L5.04351 3.35135V0.230042Z" fill="#0052B4"/>
<path d="M8.17395 11.8167C8.94172 11.6097 9.64847 11.2543 10.2616 10.7831L8.17395 8.69537V11.8167Z" fill="#0052B4"/>
<path d="M9.28076 7.58856L11.3685 9.67628C11.8397 9.06311 12.1951 8.35633 12.4021 7.58856H9.28076Z" fill="#0052B4"/>
<path d="M12.558 5.24077H7.39141H7.39139V0.0741655C7.13519 0.040814 6.87401 0.0233765 6.60876 0.0233765C6.34348 0.0233765 6.08233 0.040814 5.82616 0.0741655V5.24073V5.24075H0.659554C0.626202 5.49695 0.608765 5.75813 0.608765 6.02338C0.608765 6.28867 0.626202 6.54981 0.659554 6.80598H5.82612H5.82614V11.9726C6.08233 12.0059 6.34348 12.0234 6.60876 12.0234C6.87401 12.0234 7.13519 12.006 7.39137 11.9726V6.80603V6.806H12.558C12.5913 6.54981 12.6088 6.28867 12.6088 6.02338C12.6088 5.75813 12.5913 5.49695 12.558 5.24077Z" fill="#D80027"/>
<path d="M8.17395 7.58859L10.8514 10.266C10.9745 10.1429 11.092 10.0142 11.204 9.8808L8.91181 7.58856H8.17395V7.58859Z" fill="#D80027"/>
<path d="M5.04352 7.58868H5.04347L2.36609 10.2661C2.48918 10.3892 2.61788 10.5067 2.75128 10.6188L5.04352 8.32647V7.58868Z" fill="#D80027"/>
<path d="M5.04352 4.45818V4.45813L2.36612 1.7807C2.24297 1.90379 2.12551 2.03249 2.01343 2.1659L4.30569 4.45815L5.04352 4.45818Z" fill="#D80027"/>
<path d="M8.17395 4.45816L10.8514 1.7807C10.7283 1.65756 10.5996 1.54009 10.4662 1.42804L8.17395 3.7203V4.45816Z" fill="#D80027"/>
</svg>
