<svg width="51" height="51" viewBox="0 0 51 51" fill="none" xmlns="http://www.w3.org/2000/svg">
<circle cx="25.286" cy="25.3856" r="24.8788" fill="#0657CF"/>
<g clip-path="url(#clip0_196_3622)">
<path d="M22.436 23.4509H28.8813C29.2377 23.4509 29.5259 23.1626 29.5259 22.8064V22.1619C29.5259 20.0294 27.7912 18.2947 25.6587 18.2947C23.5262 18.2947 21.7915 20.0294 21.7915 22.1619V22.8064C21.7915 23.1626 22.0799 23.4509 22.436 23.4509Z" fill="white"/>
<path d="M36.0141 18.2947C34.9441 18.2947 34.0376 19.1582 34.0376 20.2283V25.9646C34.0376 26.1064 33.9731 26.2481 33.8701 26.3513C33.8701 26.3513 30.4927 29.7287 30.3252 29.8962C30.0544 30.167 29.6548 30.1411 29.4099 29.8962C29.1648 29.6513 29.1648 29.2517 29.397 29.0068C29.397 29.0068 32.5424 25.8743 32.5424 25.8615C32.7559 25.624 32.7804 25.2512 32.5295 24.9719C31.8113 24.2541 30.5625 24.1874 29.7966 24.9719C29.7966 24.9719 27.1025 27.6662 27.0251 27.7436C26.561 28.3237 26.3032 29.0326 26.3032 29.7802C26.3032 30.057 26.3032 34.5833 26.3032 34.4509C26.3032 34.8119 26.5867 35.0954 26.9478 35.0954H32.104C32.465 35.0954 32.7485 34.8119 32.7485 34.4509V32.7192C35.2553 29.1988 35.3268 29.0864 35.9754 28.2849C36.4267 27.7177 36.6587 27.0088 36.6587 26.2998V18.9392C36.6587 18.5782 36.3752 18.2947 36.0141 18.2947Z" fill="white"/>
<path d="M18.5688 32.7192V34.4509C18.5688 34.8119 18.8523 35.0954 19.2134 35.0954H24.3696C24.7306 35.0954 25.0141 34.8119 25.0141 34.4509C25.0141 34.5832 25.0141 30.057 25.0141 29.7802C25.0141 29.0325 24.7563 28.3237 24.2922 27.7434C24.215 27.6662 21.5208 24.9719 21.5208 24.9719C20.7549 24.1873 19.5061 24.2541 18.7879 24.9719C18.5369 25.2511 18.5615 25.624 18.7751 25.8614C18.7751 25.8743 21.9204 29.0068 21.9204 29.0068C22.1525 29.2517 22.1525 29.6513 21.9076 29.8962C21.6626 30.1411 21.2631 30.167 20.9924 29.8962C20.8247 29.7285 17.4475 26.3513 17.4475 26.3513C17.3442 26.2481 17.2798 26.1064 17.2798 25.9646V20.2283C17.2798 19.1582 16.3732 18.2947 15.3032 18.2947C14.9422 18.2947 14.6587 18.5782 14.6587 18.9392V26.2998C14.6587 27.0088 14.8908 27.7177 15.342 28.2849C15.9906 29.0864 16.0621 29.1988 18.5688 32.7192Z" fill="white"/>
<path d="M25.6587 17.0056C26.7265 17.0056 27.5923 16.0969 27.5923 15.029C27.5923 13.9612 26.7265 13.0955 25.6587 13.0955C24.5908 13.0955 23.7251 13.9612 23.7251 15.029C23.7251 16.0969 24.5908 17.0056 25.6587 17.0056Z" fill="white"/>
</g>
<defs>
<clipPath id="clip0_196_3622">
<rect width="22" height="22" fill="white" transform="translate(14.6587 13.0955)"/>
</clipPath>
</defs>
</svg>
