<svg width="50" height="51" viewBox="0 0 50 51" fill="none" xmlns="http://www.w3.org/2000/svg">
<circle cx="24.8875" cy="25.3856" r="24.8788" fill="#0657CF"/>
<path d="M17.5752 22.1903V20.1387C17.5752 19.6899 17.2114 19.3262 16.7627 19.3262H15.1377C14.6889 19.3262 14.3252 19.6899 14.3252 20.1387V24.4901C15.1669 23.4483 16.2893 22.647 17.5752 22.1903Z" fill="white"/>
<path d="M21.6377 21.952V16.8887C21.6377 16.4399 21.2739 16.0762 20.8252 16.0762H19.2002C18.7514 16.0762 18.3877 16.4399 18.3877 16.8887V21.952C18.9112 21.8326 19.4536 21.7637 20.0127 21.7637C20.5718 21.7637 21.1142 21.8326 21.6377 21.952Z" fill="white"/>
<path d="M25.7002 24.4901V13.6387C25.7002 13.1899 25.3364 12.8262 24.8877 12.8262H23.2627C22.8139 12.8262 22.4502 13.1899 22.4502 13.6387V22.1903C23.736 22.647 24.8585 23.4483 25.7002 24.4901Z" fill="white"/>
<path d="M20.0127 22.5762C16.4286 22.5762 13.5127 25.4921 13.5127 29.0762C13.5127 32.6602 16.4286 35.5762 20.0127 35.5762C23.5967 35.5762 26.5127 32.6602 26.5127 29.0762C26.5127 25.4921 23.5967 22.5762 20.0127 22.5762ZM20.0127 28.6699C21.3568 28.6699 22.4502 29.7633 22.4502 31.1074C22.4502 32.3124 21.5694 33.3091 20.4189 33.5039V34.3574C20.4189 34.582 20.2372 34.7637 20.0127 34.7637C19.7881 34.7637 19.6064 34.582 19.6064 34.3574V33.5039C18.456 33.3091 17.5752 32.3124 17.5752 31.1074C17.5752 30.8829 17.7569 30.7012 17.9814 30.7012C18.206 30.7012 18.3877 30.8829 18.3877 31.1074C18.3877 32.0036 19.1165 32.7324 20.0127 32.7324C20.9089 32.7324 21.6377 32.0036 21.6377 31.1074C21.6377 30.2112 20.9089 29.4824 20.0127 29.4824C18.6686 29.4824 17.5752 28.389 17.5752 27.0449C17.5752 25.8399 18.456 24.8433 19.6064 24.6485V23.7949C19.6064 23.5704 19.7881 23.3887 20.0127 23.3887C20.2372 23.3887 20.4189 23.5704 20.4189 23.7949V24.6485C21.5694 24.8433 22.4502 25.8399 22.4502 27.0449C22.4502 27.2695 22.2685 27.4512 22.0439 27.4512C21.8194 27.4512 21.6377 27.2695 21.6377 27.0449C21.6377 26.1487 20.9089 25.4199 20.0127 25.4199C19.1165 25.4199 18.3877 26.1487 18.3877 27.0449C18.3877 27.9411 19.1165 28.6699 20.0127 28.6699Z" fill="white"/>
<path d="M33.8252 18.5137V20.9512H36.2627L33.8252 18.5137Z" fill="white"/>
<path d="M33.8252 21.7637C33.3764 21.7637 33.0127 21.3999 33.0127 20.9512V18.5137H28.1377C27.6889 18.5137 27.3252 18.8774 27.3252 19.3262V29.8887C27.3252 30.3374 27.6889 30.7012 28.1377 30.7012H35.4502C35.8989 30.7012 36.2627 30.3374 36.2627 29.8887V21.7637H33.8252ZM34.2314 28.2637H29.3564C29.1319 28.2637 28.9502 28.082 28.9502 27.8574C28.9502 27.6329 29.1319 27.4512 29.3564 27.4512H34.2314C34.456 27.4512 34.6377 27.6329 34.6377 27.8574C34.6377 28.082 34.456 28.2637 34.2314 28.2637ZM34.2314 26.6387H29.3564C29.1319 26.6387 28.9502 26.457 28.9502 26.2324C28.9502 26.0079 29.1319 25.8262 29.3564 25.8262H34.2314C34.456 25.8262 34.6377 26.0079 34.6377 26.2324C34.6377 26.457 34.456 26.6387 34.2314 26.6387ZM34.2314 25.0137H29.3564C29.1319 25.0137 28.9502 24.832 28.9502 24.6074C28.9502 24.3829 29.1319 24.2012 29.3564 24.2012H34.2314C34.456 24.2012 34.6377 24.3829 34.6377 24.6074C34.6377 24.832 34.456 25.0137 34.2314 25.0137Z" fill="white"/>
</svg>
