<svg width="51" height="51" viewBox="0 0 51 51" fill="none" xmlns="http://www.w3.org/2000/svg">
<circle cx="25.3952" cy="25.8705" r="24.8788" fill="#FE6D34"/>
<path d="M18.0827 22.6752V20.6235C18.0827 20.1748 17.719 19.811 17.2702 19.811H15.6452C15.1965 19.811 14.8327 20.1748 14.8327 20.6235V24.975C15.6744 23.9331 16.7969 23.1319 18.0827 22.6752Z" fill="white"/>
<path d="M22.1452 22.4368V17.3735C22.1452 16.9248 21.7815 16.561 21.3327 16.561H19.7077C19.259 16.561 18.8952 16.9248 18.8952 17.3735V22.4368C19.4187 22.3174 19.9611 22.2485 20.5202 22.2485C21.0794 22.2485 21.6218 22.3174 22.1452 22.4368Z" fill="white"/>
<path d="M26.2077 24.975V14.1235C26.2077 13.6748 25.844 13.311 25.3952 13.311H23.7702C23.3215 13.311 22.9577 13.6748 22.9577 14.1235V22.6752C24.2436 23.1319 25.3661 23.9331 26.2077 24.975Z" fill="white"/>
<path d="M20.5202 23.061C16.9362 23.061 14.0202 25.977 14.0202 29.561C14.0202 33.1451 16.9362 36.061 20.5202 36.061C24.1043 36.061 27.0202 33.1451 27.0202 29.561C27.0202 25.977 24.1043 23.061 20.5202 23.061ZM20.5202 29.1548C21.8644 29.1548 22.9577 30.2482 22.9577 31.5923C22.9577 32.7973 22.0769 33.7939 20.9265 33.9887V34.8423C20.9265 35.0668 20.7448 35.2485 20.5202 35.2485C20.2957 35.2485 20.114 35.0668 20.114 34.8423V33.9887C18.9636 33.7939 18.0827 32.7973 18.0827 31.5923C18.0827 31.3677 18.2645 31.186 18.489 31.186C18.7135 31.186 18.8952 31.3677 18.8952 31.5923C18.8952 32.4885 19.624 33.2173 20.5202 33.2173C21.4165 33.2173 22.1452 32.4885 22.1452 31.5923C22.1452 30.6961 21.4165 29.9673 20.5202 29.9673C19.1761 29.9673 18.0827 28.8739 18.0827 27.5298C18.0827 26.3248 18.9636 25.3281 20.114 25.1333V24.2798C20.114 24.0552 20.2957 23.8735 20.5202 23.8735C20.7448 23.8735 20.9265 24.0552 20.9265 24.2798V25.1333C22.0769 25.3281 22.9577 26.3248 22.9577 27.5298C22.9577 27.7543 22.776 27.936 22.5515 27.936C22.327 27.936 22.1452 27.7543 22.1452 27.5298C22.1452 26.6336 21.4165 25.9048 20.5202 25.9048C19.624 25.9048 18.8952 26.6336 18.8952 27.5298C18.8952 28.426 19.624 29.1548 20.5202 29.1548Z" fill="white"/>
<path d="M34.3327 18.9985V21.436H36.7702L34.3327 18.9985Z" fill="white"/>
<path d="M34.3327 22.2485C33.884 22.2485 33.5202 21.8847 33.5202 21.436V18.9985H28.6452C28.1965 18.9985 27.8327 19.3623 27.8327 19.811V30.3735C27.8327 30.8222 28.1965 31.186 28.6452 31.186H35.9577C36.4065 31.186 36.7702 30.8222 36.7702 30.3735V22.2485H34.3327ZM34.739 28.7485H29.864C29.6395 28.7485 29.4577 28.5668 29.4577 28.3423C29.4577 28.1177 29.6395 27.936 29.864 27.936H34.739C34.9635 27.936 35.1452 28.1177 35.1452 28.3423C35.1452 28.5668 34.9635 28.7485 34.739 28.7485ZM34.739 27.1235H29.864C29.6395 27.1235 29.4577 26.9418 29.4577 26.7173C29.4577 26.4927 29.6395 26.311 29.864 26.311H34.739C34.9635 26.311 35.1452 26.4927 35.1452 26.7173C35.1452 26.9418 34.9635 27.1235 34.739 27.1235ZM34.739 25.4985H29.864C29.6395 25.4985 29.4577 25.3168 29.4577 25.0923C29.4577 24.8677 29.6395 24.686 29.864 24.686H34.739C34.9635 24.686 35.1452 24.8677 35.1452 25.0923C35.1452 25.3168 34.9635 25.4985 34.739 25.4985Z" fill="white"/>
</svg>
