<svg width="28" height="28" viewBox="0 0 28 28" fill="none" xmlns="http://www.w3.org/2000/svg">
<g clip-path="url(#clip0_516388_1346)">
<path d="M27.9998 21C27.9998 21.8251 27.6721 22.6164 27.0886 23.1999C26.5052 23.7833 25.7138 24.1111 24.8887 24.1111H18.6665V3.88889H24.8887C25.7138 3.88889 26.5052 4.21666 27.0886 4.80011C27.6721 5.38356 27.9998 6.17488 27.9998 7V21Z" fill="#ED2939"/>
<path d="M3.11111 3.88889C2.28599 3.88889 1.49467 4.21666 0.911223 4.80011C0.327777 5.38356 0 6.17488 0 7L0 21C0 21.8251 0.327777 22.6164 0.911223 23.1999C1.49467 23.7833 2.28599 24.1111 3.11111 24.1111H9.33333V3.88889H3.11111Z" fill="#002495"/>
<path d="M9.3335 3.88889H18.6668V24.1111H9.3335V3.88889Z" fill="#EEEEEE"/>
</g>
<defs>
<clipPath id="clip0_516388_1346">
<rect width="28" height="28" fill="white"/>
</clipPath>
</defs>
</svg>
