<svg width="13" height="13" viewBox="0 0 13 13" fill="none" xmlns="http://www.w3.org/2000/svg">
<g clip-path="url(#clip0_3_16)">
<path d="M6.44385 12.3766C9.75756 12.3766 12.4438 9.6903 12.4438 6.37659C12.4438 3.06288 9.75756 0.376587 6.44385 0.376587C3.13014 0.376587 0.443848 3.06288 0.443848 6.37659C0.443848 9.6903 3.13014 12.3766 6.44385 12.3766Z" fill="#F0F0F0"/>
<path d="M12.4439 6.37659C12.4439 3.7968 10.8156 1.59754 8.53082 0.749786V12.0034C10.8156 11.1556 12.4439 8.95638 12.4439 6.37659Z" fill="#D80027"/>
<path d="M0.443848 6.37659C0.443848 8.95638 2.07212 11.1556 4.3569 12.0034V0.749786C2.07212 1.59754 0.443848 3.7968 0.443848 6.37659Z" fill="#0052B4"/>
</g>
<defs>
<clipPath id="clip0_3_16">
<rect width="12" height="12" fill="white" transform="translate(0.443848 0.376587)"/>
</clipPath>
</defs>
</svg>
