<svg width="188" height="299" viewBox="0 0 188 299" fill="none" xmlns="http://www.w3.org/2000/svg">
<path d="M187.423 298.556L94.064 298.556C42.5034 298.556 0.705265 256.758 0.705269 205.197L0.705287 0.293929L187.423 0.293945L187.423 298.556Z" fill="white"/>
<path d="M89.1761 101.311L89.1237 101.337C89.2546 100.918 89.3856 100.525 89.5428 100.132C89.569 100.079 89.569 100.027 89.6214 99.9746L89.6738 100.027C89.7 100.079 89.7524 100.106 89.8048 100.158L89.1761 101.311Z" fill="url(#paint0_linear_18_662)"/>
<path d="M89.7524 108.726C89.6476 108.543 89.5429 108.385 89.4643 108.202C89.3857 108.071 89.3333 107.914 89.2809 107.783C89.2023 107.547 89.0975 107.337 89.0451 107.102C89.0189 106.997 88.9927 106.918 88.9665 106.813C88.8879 106.578 88.8355 106.316 88.7831 106.08C88.7569 105.923 88.7308 105.739 88.7046 105.582C88.7046 105.53 88.6784 105.451 88.6784 105.399V105.32C88.6784 105.268 88.6522 105.215 88.6522 105.163C88.626 104.953 88.626 104.744 88.626 104.534C88.626 104.534 88.626 104.534 88.626 104.508V104.482C88.626 104.22 88.626 103.932 88.6522 103.67C88.6522 103.617 88.6522 103.565 88.6784 103.512C88.6784 103.408 88.7046 103.277 88.7046 103.172C88.7046 103.093 88.7307 103.041 88.7307 102.962C88.7307 102.936 88.7307 102.884 88.7569 102.857C88.8355 102.412 88.9141 101.967 89.0451 101.547C89.0451 101.495 89.0713 101.443 89.0713 101.39C89.2023 100.971 89.3333 100.578 89.4905 100.185C89.5167 100.133 89.5167 100.08 89.5691 100.028C89.5691 100.028 89.5429 100.002 89.5429 99.9755C89.5429 99.9755 89.5429 99.9755 89.5429 99.9493C89.5167 99.8969 89.4643 99.8445 89.4643 99.7921C89.4381 99.7397 89.4119 99.6874 89.3857 99.6088C89.3595 99.5302 89.3595 99.4516 89.3595 99.373C89.3595 99.3206 89.3595 99.2944 89.3595 99.242L90.8265 96.2291C90.7741 96.1505 90.7217 96.0457 90.6955 95.9671C90.3026 95.2859 89.8572 94.5786 89.3333 93.9236C89.2809 93.8974 89.2809 93.8712 89.2547 93.845C89.2547 93.8188 89.2547 93.8188 89.2285 93.7926C89.2023 93.7664 89.1761 93.714 89.1237 93.6878C88.626 93.059 88.0496 92.4564 87.4995 91.9063C87.4733 91.9063 87.4733 91.9063 87.4733 91.9063C87.0279 91.4609 86.5564 91.0679 86.0587 90.7011C85.7705 90.4653 85.4823 90.2557 85.168 90.0461C85.0894 89.9937 84.9846 89.9151 84.906 89.8627C84.4344 89.5484 83.9629 89.2602 83.4652 88.9982C83.0198 88.7624 82.5483 88.5266 82.0767 88.3432L81.8933 88.2646C81.8147 88.2384 81.71 88.2122 81.6052 88.1598C81.579 88.1598 81.5266 88.1336 81.4742 88.1074C81.579 88.4218 81.6837 88.7624 81.7885 89.103C82.1029 90.2033 82.2601 90.8059 82.3125 91.6443C82.4435 93.2162 81.055 97.1723 80.924 97.5914C80.8716 97.7224 80.7407 98.0892 80.6097 98.587C80.4787 99.111 80.3739 99.5826 80.3215 99.8707C80.0857 101.233 80.3739 102.936 80.4525 103.329C80.7407 105.058 81.2908 106.447 81.6838 107.337C82.5221 109.171 83.177 110.639 84.513 110.979C84.9846 111.11 85.4299 111.058 85.9015 111.005C85.9015 111.005 87.1589 110.848 88.4164 110.141C88.4426 110.115 88.6522 110.01 88.9141 109.853C89.0189 109.774 89.1761 109.722 89.3333 109.617C89.4643 109.538 89.569 109.486 89.6476 109.433C89.7 109.433 90.0144 109.381 90.0406 109.276C90.0144 109.25 90.0144 109.25 89.9882 109.224C89.8834 109.014 89.8048 108.857 89.7524 108.726Z" fill="url(#paint1_linear_18_662)"/>
<path d="M91.8481 88.3425L89.3856 83.2861C89.3594 82.9717 89.4642 82.6836 89.6476 82.474C89.6738 82.4478 89.7262 82.3954 89.7524 82.3954C89.7262 82.3168 89.6738 82.2644 89.6476 82.1858C89.2546 81.3474 88.9927 80.509 88.8093 79.6707C88.5735 78.5703 88.5735 77.47 88.7569 76.422C88.9403 75.4788 89.2808 74.5881 89.8048 73.7759C89.831 73.7235 89.8834 73.6711 89.9096 73.6187C89.9881 73.5139 90.0405 73.4091 90.1191 73.3043L88.7831 72.5446L88.0234 72.0992L87.84 72.0206C85.9014 71.0774 85.5609 70.632 84.1986 71.8372C83.4913 72.7542 83.0721 73.2519 82.8102 73.6187C82.7054 73.8283 81.5265 75.898 80.924 77.6534C80.6096 78.5703 80.4262 79.4873 80.3738 79.6969C80.3215 79.9851 80.2953 80.2209 80.2691 80.3256C80.2429 80.6924 80.0333 82.3954 80.4524 84.4651C80.5834 85.1987 80.924 86.561 80.924 86.561C81.0812 86.954 81.2645 87.4518 81.4741 88.0543C81.5003 88.0805 81.5527 88.0805 81.6051 88.1067C81.6837 88.1591 81.7885 88.1853 81.8933 88.2115L82.0767 88.2901C82.5744 88.4735 83.0197 88.7093 83.4651 88.9451C83.9628 89.2071 84.4344 89.4953 84.9059 89.8097C85.0107 89.8621 85.0893 89.9407 85.1679 89.9931C85.4823 90.2026 85.7704 90.4122 86.0586 90.648C86.5563 91.0148 87.0279 91.4078 87.4732 91.8532C87.4732 91.8532 87.4732 91.8532 87.4994 91.8532C88.0496 92.4034 88.6259 93.0059 89.1236 93.6347C89.176 93.6609 89.2022 93.7133 89.2284 93.7395C89.2546 93.7395 89.2546 93.7657 89.2546 93.7919C89.2808 93.8181 89.2808 93.8443 89.3332 93.8705C89.8572 94.5255 90.3025 95.2328 90.6955 95.914C90.7479 96.0188 90.8003 96.0974 90.8265 96.176L91.7957 94.1849L91.8219 94.1325C92.7388 92.3248 92.7388 90.1764 91.8481 88.3425Z" fill="url(#paint2_linear_18_662)"/>
<path d="M116.316 91.2507C116.316 92.8751 115.504 94.4994 113.906 95.4426L113.434 95.7307L110.998 97.1193L102.746 101.887L90.0668 109.197C90.0406 109.171 90.0144 109.145 89.9882 109.118C89.9096 108.987 89.8048 108.856 89.7524 108.725C89.6476 108.542 89.5428 108.385 89.4642 108.201C89.3856 108.07 89.3332 107.913 89.2808 107.782C89.2022 107.546 89.0975 107.337 89.0451 107.101C89.0189 106.996 88.9927 106.918 88.9665 106.813C88.8879 106.577 88.8355 106.315 88.7831 106.079C88.7569 105.922 88.7307 105.739 88.7045 105.582C88.7045 105.529 88.6783 105.451 88.6783 105.398V105.32C88.6783 105.267 88.6521 105.215 88.6521 105.162C88.6259 104.953 88.6259 104.743 88.6259 104.534C88.6259 104.534 88.6259 104.534 88.6259 104.507V104.481C88.6259 104.219 88.6259 103.931 88.6521 103.669C88.6521 103.617 88.6521 103.564 88.6783 103.512C88.6783 103.407 88.7045 103.276 88.7045 103.171C88.7045 103.093 88.7307 103.04 88.7307 102.962C88.7307 102.935 88.7307 102.883 88.7569 102.857C88.8355 102.411 88.9141 101.966 89.0451 101.547C89.0451 101.495 89.0713 101.442 89.0713 101.39C89.2023 100.971 89.3332 100.578 89.4904 100.185C89.5166 100.132 89.5166 100.08 89.569 100.027L89.6214 100.08C89.6476 100.132 89.7 100.158 89.7524 100.211C90.0668 100.473 90.5383 100.551 90.9836 100.316L102.798 93.5038L103.244 93.2419L104.528 92.5083L104.947 92.2725C104.973 92.2725 104.973 92.2463 104.973 92.2463C105.078 92.1939 105.156 92.1153 105.209 92.0367C105.235 92.0105 105.287 92.0105 105.313 91.9843C105.34 91.9843 105.34 91.9843 105.366 91.9581C105.392 91.9319 105.444 91.9319 105.497 91.8795C105.968 91.6437 106.44 91.3817 106.885 91.1197C107.278 90.8839 107.645 90.622 108.012 90.3862C108.378 90.1242 108.745 89.8622 109.086 89.574C109.453 89.2858 109.793 88.9714 110.134 88.6308C110.92 87.8711 111.627 87.0327 112.229 86.1943L112.78 86.5087L112.989 86.6397L113.644 87.0065L113.696 87.0327L113.827 87.1113C113.906 87.1637 114.011 87.2161 114.063 87.2947C115.583 88.1593 116.316 89.6788 116.316 91.2507Z" fill="url(#paint3_linear_18_662)"/>
<path d="M112.282 86.115C111.679 86.9796 110.972 87.7917 110.186 88.5515C109.845 88.8659 109.505 89.1803 109.138 89.4946C108.798 89.7828 108.431 90.0448 108.064 90.3068C107.697 90.5688 107.331 90.8308 106.938 91.0404C106.492 91.3286 106.021 91.5644 105.549 91.8002C105.471 91.8264 105.418 91.8264 105.34 91.8526C105.471 91.643 105.549 91.4334 105.549 91.1976C105.549 90.857 105.366 90.5164 105.051 90.333C105.025 90.3068 105.025 90.3068 104.999 90.3068L91.0622 82.2637C91.0098 82.2375 90.9574 82.2113 90.9312 82.1851H90.905C90.8526 82.1589 90.8002 82.1589 90.7479 82.1328C90.5907 82.1066 90.4335 82.1066 90.3025 82.1328C90.2763 82.1328 90.2239 82.1589 90.1977 82.1589C90.0929 82.1851 89.9619 82.2375 89.8834 82.3161C89.8572 82.3423 89.831 82.3685 89.8048 82.3947C89.7786 82.3161 89.7262 82.2637 89.7 82.1851C89.307 81.3468 89.045 80.5084 88.8617 79.6701C88.6259 78.5697 88.6259 77.4693 88.8093 76.4214C88.9927 75.4782 89.3332 74.5875 89.8572 73.7753C89.8834 73.7229 89.9357 73.6705 89.9619 73.6181C90.0405 73.5133 90.0929 73.4085 90.1715 73.3037L94.1273 75.583L94.4154 75.7402L94.6512 75.8712L96.0658 76.7096L102.772 80.587L105.811 82.3685L112.282 86.115Z" fill="url(#paint4_linear_18_662)"/>
<path d="M105.025 90.3342L104.973 90.308L91.0099 82.2388L90.9051 82.1602C90.9313 82.1864 90.9837 82.1864 91.0361 82.2388L104.973 90.2818C104.999 90.308 104.999 90.308 105.025 90.3342Z" fill="#1B1464"/>
<path d="M32.5905 132.382H24.1289V137.439H34.11V139.928H21.4306V122.715H34.0838V125.204H24.1289V129.946H32.5905V132.382Z" fill="#1B1464"/>
<path d="M38.7468 139.903H35.7341L40.8687 133.301L35.9437 126.908H39.035L42.7287 131.965H42.7549L46.4487 126.908H49.4352L44.4839 133.301L49.6447 139.903H46.5535L42.6501 134.611H42.5977L38.7468 139.903Z" fill="#1B1464"/>
<path d="M51.3738 145.456V133.509C51.3738 131.413 52.0025 129.736 53.2862 128.479C54.5698 127.195 56.2464 126.566 58.316 126.566C60.3594 126.566 62.0622 127.221 63.3458 128.505C64.6557 129.789 65.3106 131.439 65.3106 133.431C65.3106 135.526 64.6557 137.203 63.372 138.435C62.0884 139.666 60.5427 140.268 58.7613 140.268C57.6873 140.268 56.718 140.033 55.8535 139.587C55.0152 139.116 54.3602 138.513 53.9149 137.727H53.8625V145.482H51.3738V145.456ZM58.316 128.872C57.0061 128.872 55.9321 129.291 55.0938 130.156C54.2816 130.994 53.8625 132.094 53.8625 133.404C53.8625 134.714 54.2816 135.815 55.0938 136.653C55.9059 137.491 56.9799 137.937 58.316 137.937C59.652 137.937 60.7261 137.518 61.5644 136.679C62.3765 135.841 62.7957 134.74 62.7957 133.404C62.7957 132.068 62.3765 130.994 61.5644 130.129C60.7261 129.291 59.652 128.872 58.316 128.872Z" fill="#1B1464"/>
<path d="M80.793 133.509V139.901H78.5139V137.177H78.4615C78.0423 138.12 77.4136 138.854 76.5229 139.404C75.6322 139.954 74.6105 140.242 73.4316 140.242C71.6503 140.242 70.1046 139.64 68.7948 138.408C67.4849 137.177 66.8562 135.5 66.8562 133.404C66.8562 131.413 67.5111 129.789 68.821 128.479C70.1308 127.195 71.8074 126.54 73.8508 126.54C75.8942 126.54 77.5708 127.169 78.8544 128.453C80.1643 129.763 80.793 131.439 80.793 133.509ZM70.6024 136.679C71.4145 137.517 72.5148 137.937 73.8508 137.937C75.1868 137.937 76.2609 137.517 77.0992 136.679C77.9113 135.841 78.3305 134.74 78.3305 133.404C78.3305 132.068 77.9113 130.994 77.0992 130.129C76.2871 129.291 75.1868 128.872 73.8508 128.872C72.5148 128.872 71.4407 129.291 70.6024 130.129C69.7641 130.968 69.3711 132.068 69.3711 133.404C69.3711 134.74 69.7903 135.841 70.6024 136.679Z" fill="#1B1464"/>
<path d="M96.2231 139.902H93.7343V133.142C93.7343 131.754 93.3938 130.706 92.6865 129.972C91.9791 129.239 91.036 128.872 89.831 128.872C88.6259 128.872 87.6566 129.239 86.9493 129.972C86.242 130.706 85.9014 131.754 85.9014 133.142V139.902H83.4127V133.142C83.4127 131.02 83.9891 129.396 85.1417 128.269C86.2944 127.143 87.8662 126.566 89.831 126.566C91.7958 126.566 93.3676 127.143 94.5202 128.243C95.6729 129.37 96.2493 130.994 96.2493 133.142V139.902H96.2231Z" fill="#1B1464"/>
<path d="M112.229 121.222V133.299C112.229 135.395 111.601 137.072 110.317 138.329C109.033 139.613 107.357 140.242 105.287 140.242C103.244 140.242 101.541 139.613 100.257 138.303C98.9476 137.019 98.2926 135.369 98.2926 133.404C98.2926 131.308 98.9476 129.631 100.231 128.4C101.515 127.169 103.06 126.566 104.842 126.566C105.942 126.566 106.885 126.802 107.75 127.247C108.588 127.693 109.243 128.321 109.688 129.107H109.741V121.195H112.229V121.222ZM105.287 137.936C106.597 137.936 107.671 137.517 108.509 136.653C109.322 135.814 109.741 134.714 109.741 133.404C109.741 132.094 109.322 130.994 108.509 130.155C107.671 129.291 106.623 128.872 105.287 128.872C103.951 128.872 102.877 129.291 102.039 130.129C101.201 130.968 100.808 132.068 100.808 133.404C100.808 134.74 101.227 135.814 102.039 136.679C102.851 137.543 103.951 137.936 105.287 137.936Z" fill="#1B1464"/>
<path d="M137.562 128.323H134.706C134.235 127.144 133.475 126.174 132.427 125.493C131.379 124.786 130.148 124.445 128.734 124.445C126.847 124.445 125.302 125.048 124.097 126.279C122.892 127.484 122.289 129.03 122.289 130.916C122.289 132.803 122.892 134.348 124.097 135.554C125.302 136.759 126.847 137.388 128.734 137.388C130.148 137.388 131.353 137.021 132.427 136.34C133.475 135.632 134.235 134.689 134.706 133.51H137.562C137.038 135.423 135.99 136.968 134.392 138.121C132.794 139.274 130.908 139.876 128.734 139.876C126.061 139.876 123.861 139.038 122.158 137.361C120.429 135.685 119.565 133.536 119.565 130.943C119.565 128.349 120.429 126.201 122.158 124.524C123.887 122.847 126.061 122.009 128.734 122.009C130.908 122.009 132.794 122.585 134.392 123.764C135.99 124.864 137.038 126.41 137.562 128.323Z" fill="#1B1464"/>
<path d="M144.137 139.718H141.465V122.505H148.669C150.765 122.505 152.311 123.029 153.359 124.051C154.407 125.072 154.931 126.435 154.931 128.164C154.931 129.893 154.407 131.255 153.359 132.303C152.311 133.351 150.739 133.875 148.669 133.875H144.137V139.718ZM144.137 131.36H148.722C151.053 131.36 152.232 130.286 152.232 128.138C152.232 126.016 151.053 124.968 148.722 124.968H144.137V131.36Z" fill="#1B1464"/>
<path d="M173.766 139.877H171.094V134.427H161.401V139.877H158.808V129.738C158.808 127.432 159.463 125.624 160.746 124.314C162.03 122.978 163.864 122.323 166.274 122.323C168.684 122.323 170.544 122.978 171.854 124.314C173.164 125.624 173.819 127.458 173.819 129.738V139.877H173.766ZM171.068 131.964V129.764C171.068 128.192 170.649 126.96 169.837 126.096C169.025 125.231 167.819 124.812 166.221 124.812C164.65 124.812 163.445 125.231 162.606 126.096C161.794 126.96 161.375 128.166 161.375 129.764V131.964H171.068Z" fill="#1B1464"/>
<defs>
<linearGradient id="paint0_linear_18_662" x1="89.1219" y1="100.655" x2="89.7874" y2="100.655" gradientUnits="userSpaceOnUse">
<stop stop-color="#3A7BD5"/>
<stop offset="1" stop-color="#1B1464"/>
</linearGradient>
<linearGradient id="paint1_linear_18_662" x1="85.9171" y1="108.65" x2="85.3375" y2="91.7308" gradientUnits="userSpaceOnUse">
<stop stop-color="#4364F7"/>
<stop offset="1" stop-color="#1B1464"/>
</linearGradient>
<linearGradient id="paint2_linear_18_662" x1="85.5018" y1="72.8513" x2="86.8315" y2="93.7855" gradientUnits="userSpaceOnUse">
<stop offset="0.00686036" stop-color="#4364F7"/>
<stop offset="1" stop-color="#1B1464"/>
</linearGradient>
<linearGradient id="paint3_linear_18_662" x1="115.118" y1="91.0427" x2="92.088" y2="101.974" gradientUnits="userSpaceOnUse">
<stop stop-color="#4364F7"/>
<stop offset="1" stop-color="#1B1464"/>
</linearGradient>
<linearGradient id="paint4_linear_18_662" x1="88.7937" y1="78.7986" x2="110.544" y2="88.0355" gradientUnits="userSpaceOnUse">
<stop stop-color="#4364F7"/>
<stop offset="1" stop-color="#1B1464"/>
</linearGradient>
</defs>
</svg>
