<svg width="658" height="360" viewBox="0 0 658 360" fill="none" xmlns="http://www.w3.org/2000/svg">
<g clip-path="url(#clip0_196_2949)">
<path d="M290.238 105.657C300.456 109.308 310.202 114.162 319.647 119.531C329.285 125.072 338.386 131.557 346.908 138.752C355.387 146.011 363.308 154.086 369.834 163.299C373.161 167.852 376.124 172.684 378.721 177.731C381.34 182.778 383.443 188.061 385.182 193.473C386.062 196.179 386.685 198.949 387.393 201.72C387.865 204.533 388.552 207.304 388.81 210.138L389.282 214.391L389.39 215.443L389.432 216.581L389.518 218.643L389.797 226.911C389.991 229.617 389.712 232.517 389.69 235.33C389.54 238.143 389.647 240.978 389.261 243.77L388.338 252.146C387.994 254.916 387.393 257.665 386.921 260.435C386.513 263.206 385.762 265.933 385.01 268.639C384.302 271.367 383.572 274.073 382.563 276.693C381.64 279.356 380.782 282.019 379.601 284.575C378.506 287.152 377.433 289.75 376.059 292.22C373.655 297.289 370.392 301.927 367.086 306.416C363.815 310.583 360.237 314.519 355.968 317.714C355.727 317.895 355.483 318.073 355.237 318.249L355.151 317.412C355.424 317.512 355.696 317.613 355.968 317.714C361.726 319.854 367.469 322.06 373.29 324.069L382.392 327.248L391.536 330.254C394.563 331.328 397.654 332.187 400.724 333.111C403.793 333.991 406.82 335.043 409.911 335.86L419.184 338.265C422.254 339.188 425.366 339.768 428.5 340.413L437.903 342.324L447.39 344.149C453.723 345.374 460.098 346.877 466.366 348.445C472.634 350.055 478.881 351.816 485.042 353.62L494.294 356.326C497.247 357.08 500.161 357.757 503.128 358.081C503.289 358.098 503.449 358.115 503.61 358.13L503.137 358.581C503.133 358.414 503.13 358.247 503.128 358.081C503.095 355.571 503.264 353.111 503.545 350.614C503.846 347.972 504.275 345.331 504.855 342.71C505.413 340.09 506.186 337.513 507.023 334.936L508.483 331.113L510.243 327.377C511.552 324.928 512.947 322.501 514.794 320.311C515.631 319.151 516.554 318.056 517.648 317.068C518.722 316.102 519.645 314.942 520.933 314.169C522.178 313.374 523.337 312.408 524.689 311.763L528.832 309.938C530.27 309.53 531.773 309.251 533.233 308.907L534.349 308.692L534.478 308.649H534.843L535.079 308.606H535.573L537.526 308.521C539.973 308.306 543.193 308.671 545.962 308.907C548.688 309.358 551.436 309.766 554.033 310.582C556.695 311.227 559.228 312.214 561.782 313.052C564.272 314.061 566.763 315.092 569.167 316.295C573.997 318.571 578.569 321.277 582.991 324.241C587.213 327.133 591.335 330.187 595.082 333.676C595.202 333.788 595.322 333.9 595.441 334.013L594.797 334.056C594.892 333.929 594.987 333.802 595.082 333.676C598.419 329.249 602.074 325.181 605.852 321.234C609.716 317.154 613.773 313.267 617.894 309.508C619.998 307.64 622.037 305.729 624.205 303.925C626.352 302.121 628.456 300.274 630.688 298.556C634.827 295.227 639.062 292.013 643.592 289.096C643.855 288.926 644.118 288.758 644.383 288.591L644.512 289.428C644.204 289.321 643.897 289.21 643.592 289.096C638.929 287.341 634.66 284.67 630.731 281.525C628.67 279.807 626.717 277.96 624.914 275.92C623.948 274.953 623.175 273.837 622.338 272.763C621.501 271.71 620.728 270.572 620.062 269.37C618.56 267.072 617.401 264.58 616.306 262.068C615.769 260.801 615.447 259.469 614.997 258.159C614.546 256.849 614.138 255.539 613.945 254.186L613.172 250.127C612.979 248.774 612.979 247.4 612.871 246.025C612.593 243.285 612.784 240.587 612.977 237.868C612.978 237.86 612.978 237.851 612.979 237.843L613.108 235.802C613.108 235.358 613.191 234.581 613.255 233.983C613.256 233.974 613.257 233.965 613.258 233.955L613.623 230.09C613.902 227.491 613.773 225.193 613.837 222.723C613.623 220.318 613.709 217.805 613.193 215.486C613.191 215.471 613.189 215.457 613.187 215.442C613.017 214.275 612.845 213.089 612.442 212.007C612.077 210.89 611.884 209.709 611.347 208.7C610.897 207.647 610.489 206.552 609.823 205.671C609.523 205.199 609.222 204.705 608.9 204.254L607.762 203.073C607.097 202.149 606.088 201.72 605.251 200.99C604.242 200.582 603.298 199.937 602.16 199.787C600.013 199.121 597.609 199.229 595.248 199.723C592.844 200.131 590.611 201.312 588.379 202.536L587.048 203.266L587.585 202.021C587.992 199.186 588.529 196.351 589.109 193.516C589.366 192.077 589.924 190.746 590.354 189.371L591.727 185.226C592.178 183.83 592.93 182.563 593.531 181.232L595.505 177.301C596.235 176.034 597.094 174.832 597.91 173.608C598.747 172.405 599.563 171.159 600.443 170L603.341 166.671C604.328 165.597 605.251 164.437 606.367 163.492C607.462 162.526 608.514 161.538 609.651 160.593C610.768 159.67 611.841 158.66 613.022 157.866C615.426 156.233 617.766 154.537 620.256 153.098C622.665 151.759 625.113 150.46 627.62 149.332C627.727 149.284 627.834 149.237 627.94 149.189L627.726 149.662C627.69 149.552 627.655 149.442 627.62 149.332C626.777 146.668 626.204 143.966 625.729 141.243C625.279 138.387 625 135.509 624.871 132.631C624.785 131.171 624.871 129.732 624.871 128.272C624.871 126.811 624.978 125.372 625.107 123.933C625.386 121.034 625.729 118.135 626.438 115.279C627.039 112.422 627.812 109.587 628.885 106.838C629.872 104.068 631.117 101.383 632.62 98.8493C633.272 97.565 634.131 96.3839 634.974 95.225C634.991 95.2018 635.007 95.1786 635.024 95.1554C635.819 93.9313 636.849 92.836 637.793 91.7192C638.738 90.6025 639.854 89.6361 640.927 88.6482C641.69 87.99 642.525 87.3944 643.354 86.8105C643.715 86.556 644.074 86.3038 644.426 86.0495L644.684 86.9301C644.241 86.8912 643.797 86.8513 643.354 86.8105C640.126 86.5139 636.899 86.1695 633.672 85.7918C630.001 85.2764 626.373 84.6536 622.703 84.0737C619.054 83.408 615.469 82.506 611.841 81.7543C608.213 80.9597 604.693 79.8215 601.108 78.8765C597.502 77.9531 594.046 76.643 590.525 75.4833C586.983 74.3451 583.527 72.9921 580.071 71.6176C576.594 70.2861 573.202 68.7828 569.811 67.2365L564.745 64.96L559.786 62.4044C556.48 60.7292 553.175 58.9897 549.998 57.0998C546.756 55.2743 543.536 53.4059 540.467 51.3012C537.333 49.2825 534.22 47.2637 531.236 45.0302C528.188 42.8826 525.247 40.6276 522.414 38.2008L518.099 34.6572L513.999 30.856C511.23 28.3647 508.654 25.7017 506.164 22.9313C503.567 20.2897 501.356 17.2616 499.016 14.4053C496.793 11.6713 494.958 8.62721 493.013 5.71493C492.911 5.56172 492.808 5.40886 492.705 5.25644L493.306 5.42825C493.209 5.52542 493.111 5.62095 493.013 5.71493C491.33 7.32412 489.484 8.47623 487.618 9.55166C486.609 10.0671 485.621 10.6255 484.548 11.0765C483.496 11.5489 482.401 11.957 481.307 12.365C480.233 12.7946 479.139 13.1811 477.894 13.3529C476.691 13.6106 475.489 13.7825 474.309 13.9328C473.729 14.0616 473.107 13.9972 472.506 13.9328C471.905 13.8898 471.304 13.8469 470.702 13.761C469.724 13.6386 468.773 13.5019 467.828 13.2931C467.613 13.2454 467.397 13.194 467.182 13.1382L467.697 12.5583C467.744 12.8029 467.788 13.0478 467.828 13.2931C468.216 15.6323 468.315 18.0001 468.062 20.3327C467.869 22.9313 467.332 25.4655 466.731 27.9782C466.109 30.4909 465.229 32.9391 464.284 35.3445C464.261 35.3998 464.237 35.4552 464.214 35.5105C463.228 37.8399 462.236 40.185 460.957 42.3457C459.755 44.6651 458.317 46.8127 456.878 49.0033C455.268 51.065 453.766 53.2126 451.92 55.0595C450.202 57.0353 448.206 58.7964 446.21 60.5145C445.201 61.3735 444.042 62.0822 442.968 62.8554C441.917 63.65 440.758 64.3587 439.555 64.96C437.259 66.3345 434.726 67.3224 432.193 68.2244C430.905 68.6539 429.552 68.8472 428.243 69.1693L426.118 69.5988L424.229 69.7921C422.941 69.878 421.803 70.0928 420.408 70.0713L416.308 69.9639C413.646 69.6633 411.006 69.3411 408.451 68.6324C403.321 67.258 398.491 64.9385 394.241 61.8889C392.137 60.3426 390.162 58.6246 388.381 56.7561C387.198 55.5585 386.096 54.3068 385.098 52.9657C384.558 52.2386 384.048 51.4851 383.572 50.6999L384.474 50.3348C384.7 51.2093 384.908 52.0865 385.098 52.9657C385.665 55.5845 386.079 58.2213 386.384 60.8581C386.792 64.4016 386.921 67.9881 386.857 71.5747C386.814 73.3786 386.663 75.1826 386.513 76.9866C386.449 77.8886 386.255 78.7906 386.127 79.6926C385.998 80.5946 385.826 81.4966 385.547 82.3771C385.29 83.2577 385.118 84.1596 384.731 85.0187C384.366 85.8777 384.087 86.7583 383.637 87.5743C383.164 88.3904 382.714 89.2065 382.177 89.9797C381.576 90.7099 380.91 91.3971 380.266 92.0414L379.987 92.3206L379.773 92.2347C375.716 91.7622 371.68 91.1823 367.645 90.6669C365.627 90.3877 363.587 90.2589 361.591 90.0226L355.516 89.3998C351.481 88.9273 347.402 88.9059 343.367 88.5193C339.342 88.1552 335.276 88.0261 331.23 87.8976C331.218 87.8972 331.207 87.8969 331.195 87.8965L325.099 87.6817L323.575 87.6173H323.189C323.189 87.6173 322.995 87.6173 322.931 87.6173H322.158C321.149 87.6817 320.097 87.6388 319.132 87.7247L316.362 88.1327C315.439 88.2831 314.495 88.6052 313.572 88.82C311.726 89.3783 309.88 90.0441 308.141 90.9461C306.359 91.7622 304.642 92.7286 303.011 93.8454C301.358 94.9192 299.791 96.1433 298.288 97.4534C295.412 99.9231 292.75 102.694 290.41 105.7L290.238 105.657ZM288.993 105.593C289.981 103.746 291.14 102.028 292.385 100.353C293.673 98.7204 294.961 97.0668 296.485 95.6279C297.945 94.1246 299.533 92.7501 301.207 91.483C302.023 90.8172 302.903 90.2159 303.783 89.6575C304.642 89.0347 305.565 88.4978 306.531 88.0468C308.399 87.016 310.416 86.2428 312.434 85.5985C313.465 85.3194 314.473 84.9757 315.547 84.761L318.831 84.2241C319.883 84.0952 320.87 84.1167 321.901 84.0523L322.673 84.0093H323.167H323.553L325.099 84.0952L331.217 84.4174C335.317 84.6106 339.395 84.8254 343.495 85.2335C347.574 85.62 351.674 85.9207 355.709 86.5864L361.784 87.5099C363.802 87.8535 365.841 88.0468 367.838 88.5193C371.852 89.3998 375.866 90.2374 379.837 91.1823L379.343 91.3756C379.601 90.5166 379.859 89.7005 380.181 88.9273C380.374 88.0898 380.567 87.2737 380.803 86.4791C381.125 84.8254 381.49 83.1932 381.705 81.5181C382.22 78.1893 382.671 74.7961 382.842 71.3384C383.079 67.9022 383.207 64.4231 383.25 60.944L383.379 50.4207L382.971 48.6596L384.281 50.0341C385.976 51.8166 387.865 53.4488 389.797 54.9521C391.729 56.4769 393.833 57.7655 395.937 58.9682C400.187 61.3305 404.716 63.0486 409.396 63.9506C411.714 64.4446 414.097 64.6379 416.458 64.7882C418.733 64.7452 421.009 64.7667 423.606 64.4016L425.495 64.2083C425.796 64.101 426.547 63.9506 427.062 63.8218C428.178 63.5211 429.338 63.3493 430.432 62.9627L433.717 61.7171C434.811 61.3305 435.799 60.6648 436.851 60.1494C437.924 59.6339 438.933 59.0541 439.899 58.3454C440.865 57.6581 441.895 57.0568 442.818 56.2837C444.643 54.7374 446.532 53.2555 448.163 51.4945C449.945 49.8623 451.405 47.908 452.972 46.061C454.431 44.1067 455.912 42.1739 457.179 40.0907C458.553 38.0719 459.648 35.8814 460.828 33.7123L462.417 30.3835L463.812 26.9688C465.551 22.3729 466.796 17.5408 466.645 12.6227L466.517 12.2791L467.161 12.0214C468.277 11.5704 469.372 11.2268 470.445 10.9047C471.497 10.561 472.591 10.4537 473.579 10.0027C475.597 9.10066 477.55 8.62819 479.632 7.66176C481.672 6.75977 483.754 6.07253 485.986 5.40677C488.219 4.82692 490.494 4.35444 492.941 4.37592L493.242 4.22559L493.542 4.54773C496.011 7.27519 498.243 10.1745 500.776 12.7946C503.352 15.3717 505.778 18.0777 508.59 20.44C511.295 22.8883 513.935 25.3581 516.833 27.5701L521.04 31.0063L525.419 34.2492C526.9 35.323 528.339 36.4183 529.82 37.4491L534.349 40.4773C537.311 42.5604 540.424 44.4503 543.536 46.3188C546.606 48.2516 549.783 50.0126 552.96 51.7737C556.094 53.5992 559.314 55.2743 562.577 56.8635C565.818 58.5387 569.059 60.1279 572.387 61.6097C575.671 63.156 578.977 64.6808 582.347 66.0123C585.696 67.3868 589.023 68.8901 592.457 70.1143C595.87 71.3814 599.241 72.7558 602.718 73.8941C606.174 75.0323 609.587 76.3423 613.086 77.3302C616.585 78.3611 620.041 79.5423 623.583 80.4658L634.166 83.3436C637.729 84.1167 641.314 84.9757 644.877 85.8563H645.8L645.135 86.7368L642.623 90.0871C641.915 91.2897 641.056 92.342 640.412 93.5662C639.79 94.7903 638.995 95.8856 638.459 97.1527C637.901 98.3983 637.257 99.5795 636.763 100.847C636.248 102.092 635.711 103.338 635.325 104.648C634.853 105.915 634.402 107.182 634.058 108.492C633.65 109.781 633.328 111.112 633.028 112.422C632.684 113.732 632.362 115.042 632.148 116.395C631.633 119.058 631.182 121.764 630.838 124.47C630.495 127.198 630.151 129.925 629.98 132.674C629.722 135.423 629.55 138.194 629.357 140.985C629.164 143.777 629.078 146.591 628.799 149.447L628.842 149.662L628.563 149.941C626.588 152.046 624.484 153.957 622.381 155.825C621.286 156.727 620.363 157.78 619.311 158.703L616.22 161.517C615.147 162.397 614.224 163.428 613.236 164.394C612.292 165.382 611.261 166.306 610.274 167.272C609.244 168.196 608.471 169.312 607.526 170.3L604.779 173.328C603.942 174.402 603.169 175.519 602.353 176.614C601.537 177.71 600.657 178.762 599.906 179.9L597.802 183.422C597.115 184.603 596.257 185.699 595.699 186.966L593.853 190.681C593.252 191.948 592.543 193.151 592.007 194.439C590.955 197.038 589.86 199.615 588.636 202.214L587.842 201.72C589.774 199.937 591.921 198.155 594.539 197.188C597.094 196.158 599.992 195.556 602.933 195.964C604.435 196.029 605.809 196.63 607.226 197.081C608.492 197.833 609.973 198.391 611.025 199.443L612.7 200.925C613.193 201.462 613.623 202.063 614.073 202.643C615.061 203.782 615.705 205.049 616.392 206.316C617.165 207.561 617.572 208.914 618.045 210.246C618.581 211.577 618.86 212.93 619.139 214.283C619.848 217.011 619.998 219.717 620.299 222.444C620.299 225.15 620.406 228.05 620.191 230.605L619.59 238.337C619.397 240.785 619.161 243.233 619.376 245.66C619.461 246.884 619.419 248.108 619.569 249.311L620.084 252.919C620.191 254.143 620.513 255.303 620.835 256.484C621.157 257.644 621.393 258.846 621.823 259.984C622.724 262.261 623.497 264.58 624.699 266.728C625.214 267.845 625.815 268.919 626.524 269.928C627.211 270.959 627.769 272.076 628.542 273.021C629.958 275.061 631.59 276.951 633.285 278.798C635.003 280.623 636.849 282.341 638.802 283.952C640.734 285.584 642.816 287.109 644.984 288.419L645.628 288.591L645.113 289.278C641.657 293.788 637.879 297.976 634.015 302.056C632.083 304.118 630.087 306.072 628.091 308.048C626.094 310.024 624.034 311.914 621.994 313.847C617.873 317.648 613.666 321.342 609.265 324.842C604.886 328.364 600.378 331.736 595.527 334.743L595.119 335.022L594.904 334.786C590.289 332.359 585.631 330.04 580.952 327.913C578.612 326.84 576.272 325.787 573.911 324.799C571.507 323.876 569.188 322.845 566.784 322.008C564.423 321.063 561.976 320.44 559.593 319.581C557.167 318.936 554.785 318.163 552.359 317.734C549.933 317.154 547.508 316.875 545.103 316.51C542.699 316.402 540.724 316.059 537.977 316.338L536.023 316.445H535.53L535.272 316.488H535.208C535.122 316.488 535.637 316.445 535.401 316.488H535.293L534.499 316.681C533.447 316.918 532.353 317.068 531.279 317.326L528.253 318.593C527.244 319.044 526.385 319.774 525.419 320.332C524.432 320.848 523.637 321.728 522.736 322.437C521.834 323.124 521.019 323.983 520.267 324.885C518.614 326.582 517.305 328.622 515.91 330.619L513.978 333.776L512.282 337.105C511.166 339.36 510.092 341.658 509.191 344.042C508.203 346.383 507.345 348.81 506.508 351.236C505.67 353.685 504.876 356.154 504.168 358.646V359.097H503.717C502.107 359.14 500.368 359.397 498.737 359.226C497.106 359.054 495.453 358.946 493.843 358.71C490.623 358.216 487.382 357.787 484.226 357.142L465.25 353.449C462.095 352.783 458.961 352.181 455.805 351.602C452.65 351.043 449.559 350.334 446.36 349.798L436.829 348.101L427.277 346.061C424.078 345.374 420.88 344.729 417.767 343.763L408.387 341.014C405.274 340.09 402.226 338.952 399.157 337.9C396.108 336.805 393.017 335.774 390.033 334.528C383.98 332.187 378.013 329.674 372.131 326.968C369.169 325.637 366.292 324.177 363.373 322.781C360.453 321.385 357.598 319.86 354.743 318.292L353.992 317.884L354.658 317.433C358.607 313.739 361.956 309.358 364.918 304.848C367.773 300.231 370.392 295.485 372.496 290.502C373.676 288.075 374.578 285.52 375.501 282.964C376.51 280.451 377.197 277.831 377.948 275.254C378.764 272.677 379.343 270.035 379.88 267.394C380.46 264.752 381.018 262.111 381.383 259.426C381.748 256.742 382.284 254.1 382.52 251.416L383.186 243.319C383.465 240.613 383.358 237.95 383.465 235.266C383.465 232.56 383.723 229.939 383.508 227.148L383.143 218.901L383.057 216.839L383.014 215.916L382.907 214.928L382.499 210.955C382.284 208.292 381.64 205.714 381.211 203.073C380.567 200.496 380.009 197.876 379.193 195.341C377.626 190.252 375.63 185.269 373.247 180.48C370.886 175.691 368.181 171.03 365.09 166.628C362.106 162.139 358.629 158.037 355.13 153.893C351.524 149.855 347.767 145.946 343.753 142.274C335.768 134.886 326.988 128.379 317.886 122.323C313.314 119.316 308.635 116.46 303.848 113.775C299.039 111.134 294.188 108.556 289.208 106.302L288.693 106.087L288.95 105.593H288.993Z" fill="#0657CF"/>
<path d="M290.238 105.657C300.456 109.308 310.202 114.162 319.647 119.531C329.285 125.072 338.386 131.557 346.908 138.752C355.387 146.011 363.308 154.086 369.834 163.299C373.161 167.852 376.124 172.684 378.721 177.731C381.34 182.778 383.443 188.061 385.182 193.473C386.062 196.179 386.685 198.949 387.393 201.72C387.865 204.533 388.552 207.304 388.81 210.138L389.282 214.391L389.39 215.443L389.432 216.581L389.518 218.643L389.797 226.911C389.991 229.617 389.712 232.517 389.69 235.33C389.54 238.143 389.647 240.978 389.261 243.77L388.338 252.146C387.994 254.916 387.393 257.665 386.921 260.435C386.513 263.206 385.762 265.933 385.01 268.639C384.302 271.367 383.572 274.073 382.563 276.693C381.64 279.356 380.782 282.019 379.601 284.575C378.506 287.152 377.433 289.75 376.059 292.22C373.655 297.289 370.392 301.927 367.086 306.416C363.815 310.583 360.237 314.519 355.968 317.714C361.726 319.854 367.469 322.06 373.29 324.069L382.392 327.248L391.536 330.254C394.563 331.328 397.654 332.187 400.724 333.111C403.793 333.991 406.82 335.043 409.911 335.86L419.184 338.265C422.254 339.188 425.366 339.768 428.5 340.413L437.903 342.324L447.39 344.149C453.723 345.374 460.098 346.877 466.366 348.445C472.634 350.055 478.881 351.816 485.042 353.62L494.294 356.326C497.247 357.08 500.161 357.757 503.128 358.081C503.095 355.571 503.264 353.111 503.545 350.614C503.846 347.972 504.275 345.331 504.855 342.71C505.413 340.09 506.186 337.513 507.023 334.936L508.483 331.113L510.243 327.377C511.552 324.928 512.947 322.501 514.794 320.311C515.631 319.151 516.554 318.056 517.648 317.068C518.722 316.102 519.645 314.942 520.933 314.169C522.178 313.374 523.337 312.408 524.689 311.763L528.832 309.938C530.27 309.53 531.773 309.251 533.233 308.907L534.349 308.692L534.478 308.649H534.843L535.079 308.606H535.573L537.526 308.521C539.973 308.306 543.193 308.671 545.962 308.907C548.688 309.358 551.436 309.766 554.033 310.582C556.695 311.227 559.228 312.214 561.782 313.052C564.272 314.061 566.763 315.092 569.167 316.295C573.997 318.571 578.569 321.277 582.991 324.241C587.213 327.133 591.335 330.187 595.082 333.676C598.419 329.249 602.074 325.181 605.852 321.234C609.716 317.154 613.773 313.267 617.894 309.508C619.998 307.64 622.037 305.729 624.205 303.925C626.352 302.121 628.456 300.274 630.688 298.556C634.827 295.227 639.062 292.013 643.592 289.096C638.929 287.341 634.66 284.67 630.731 281.525C628.67 279.807 626.717 277.96 624.914 275.92C623.948 274.953 623.175 273.837 622.338 272.763C621.501 271.71 620.728 270.572 620.062 269.37C618.56 267.072 617.401 264.58 616.306 262.068C615.769 260.801 615.447 259.469 614.997 258.159C614.546 256.849 614.138 255.539 613.945 254.186L613.172 250.127C612.979 248.774 612.979 247.4 612.871 246.025C612.593 243.285 612.784 240.587 612.977 237.868L612.979 237.843L613.108 235.802C613.108 235.358 613.191 234.581 613.255 233.983L613.258 233.955L613.623 230.09C613.902 227.491 613.773 225.193 613.837 222.723C613.623 220.318 613.709 217.805 613.193 215.486L613.187 215.442C613.017 214.275 612.845 213.089 612.442 212.007C612.077 210.89 611.884 209.709 611.347 208.7C610.897 207.647 610.489 206.552 609.823 205.671C609.523 205.199 609.222 204.705 608.9 204.254L607.762 203.073C607.097 202.149 606.088 201.72 605.251 200.99C604.242 200.582 603.298 199.937 602.16 199.787C600.013 199.121 597.609 199.229 595.248 199.723C592.844 200.131 590.611 201.312 588.379 202.536L587.048 203.266L587.585 202.021C587.992 199.186 588.529 196.351 589.109 193.516C589.366 192.077 589.924 190.746 590.354 189.371L591.727 185.226C592.178 183.83 592.93 182.563 593.531 181.232L595.505 177.301C596.235 176.034 597.094 174.832 597.91 173.608C598.747 172.405 599.563 171.159 600.443 170L603.341 166.671C604.328 165.597 605.251 164.437 606.367 163.492C607.462 162.526 608.514 161.538 609.651 160.593C610.768 159.67 611.841 158.66 613.022 157.866C615.426 156.233 617.766 154.537 620.256 153.098C622.665 151.759 625.113 150.46 627.62 149.332C626.777 146.668 626.204 143.966 625.729 141.243C625.279 138.387 625 135.509 624.871 132.631C624.785 131.171 624.871 129.732 624.871 128.272C624.871 126.811 624.978 125.372 625.107 123.933C625.386 121.034 625.729 118.135 626.438 115.279C627.039 112.422 627.812 109.587 628.885 106.838C629.872 104.068 631.117 101.383 632.62 98.8493C633.272 97.565 634.131 96.3839 634.974 95.225L635.024 95.1554C635.819 93.9313 636.849 92.836 637.793 91.7192C638.738 90.6025 639.854 89.6361 640.927 88.6482C641.69 87.99 642.525 87.3944 643.354 86.8105C640.126 86.5139 636.899 86.1695 633.672 85.7918C630.001 85.2764 626.373 84.6536 622.703 84.0737C619.054 83.408 615.469 82.506 611.841 81.7543C608.213 80.9597 604.693 79.8215 601.108 78.8765C597.502 77.9531 594.046 76.643 590.525 75.4833C586.983 74.3451 583.527 72.9921 580.071 71.6176C576.594 70.2861 573.202 68.7828 569.811 67.2365L564.745 64.96L559.786 62.4044C556.48 60.7292 553.175 58.9897 549.998 57.0998C546.756 55.2743 543.536 53.4059 540.467 51.3012C537.333 49.2825 534.22 47.2637 531.236 45.0302C528.188 42.8826 525.247 40.6276 522.414 38.2008L518.099 34.6572L513.999 30.856C511.23 28.3647 508.654 25.7017 506.164 22.9313C503.567 20.2897 501.356 17.2616 499.016 14.4053C496.793 11.6713 494.958 8.62721 493.013 5.71493C491.33 7.32412 489.484 8.47623 487.618 9.55166C486.609 10.0671 485.621 10.6255 484.548 11.0765C483.496 11.5489 482.401 11.957 481.307 12.365C480.233 12.7946 479.139 13.1811 477.894 13.3529C476.691 13.6106 475.489 13.7825 474.309 13.9328C473.729 14.0616 473.107 13.9972 472.506 13.9328C471.905 13.8898 471.304 13.8469 470.702 13.761C469.724 13.6386 468.773 13.5019 467.828 13.2931C468.216 15.6323 468.315 18.0001 468.062 20.3327C467.869 22.9313 467.332 25.4655 466.731 27.9782C466.109 30.4909 465.229 32.9391 464.284 35.3445L464.214 35.5105C463.228 37.8399 462.236 40.185 460.957 42.3457C459.755 44.6651 458.317 46.8127 456.878 49.0033C455.268 51.065 453.766 53.2126 451.92 55.0595C450.202 57.0353 448.206 58.7964 446.21 60.5145C445.201 61.3735 444.042 62.0822 442.968 62.8554C441.917 63.65 440.758 64.3587 439.555 64.96C437.259 66.3345 434.726 67.3224 432.193 68.2244C430.905 68.6539 429.552 68.8472 428.243 69.1693L426.118 69.5988L424.229 69.7921C422.941 69.878 421.803 70.0928 420.408 70.0713L416.308 69.9639C413.646 69.6633 411.006 69.3411 408.451 68.6324C403.321 67.258 398.491 64.9385 394.241 61.8889C392.137 60.3426 390.162 58.6246 388.381 56.7561C387.198 55.5585 386.096 54.3068 385.098 52.9657C385.665 55.5845 386.079 58.2213 386.384 60.8581C386.792 64.4016 386.921 67.9881 386.857 71.5747C386.814 73.3786 386.663 75.1826 386.513 76.9866C386.449 77.8886 386.255 78.7906 386.127 79.6926C385.998 80.5946 385.826 81.4966 385.547 82.3771C385.29 83.2577 385.118 84.1596 384.731 85.0187C384.366 85.8777 384.087 86.7583 383.637 87.5743C383.164 88.3904 382.714 89.2065 382.177 89.9797C381.576 90.7099 380.91 91.3971 380.266 92.0414L379.987 92.3206L379.773 92.2347C375.716 91.7622 371.68 91.1823 367.645 90.6669C365.627 90.3877 363.587 90.2589 361.591 90.0226L355.516 89.3998C351.481 88.9273 347.402 88.9059 343.367 88.5193C339.342 88.1552 335.276 88.0261 331.23 87.8976L331.195 87.8965L325.099 87.6817L323.575 87.6173H323.189H322.931H322.158C321.149 87.6817 320.097 87.6388 319.132 87.7247L316.362 88.1327C315.439 88.2831 314.495 88.6052 313.572 88.82C311.726 89.3783 309.88 90.0441 308.141 90.9461C306.359 91.7622 304.642 92.7286 303.011 93.8454C301.358 94.9192 299.791 96.1433 298.288 97.4534C295.412 99.9231 292.75 102.694 290.41 105.7L290.238 105.657Z" fill="#0657CF"/>
</g>
<g clip-path="url(#clip1_196_2949)">
<path d="M301.974 101.657C312.192 105.308 321.937 110.162 331.382 115.531C341.021 121.072 350.122 127.557 358.644 134.752C367.123 142.011 375.044 150.086 381.57 159.299C384.897 163.852 387.859 168.684 390.457 173.731C393.076 178.778 395.179 184.061 396.918 189.473C397.798 192.179 398.421 194.949 399.129 197.72C399.601 200.533 400.288 203.304 400.546 206.138L401.018 210.391L401.125 211.443L401.168 212.581L401.254 214.643L401.533 222.911C401.726 225.617 401.447 228.517 401.426 231.33C401.275 234.143 401.383 236.978 400.996 239.77L400.073 248.146C399.73 250.916 399.129 253.665 398.657 256.435C398.249 259.206 397.497 261.933 396.746 264.639C396.038 267.367 395.308 270.073 394.299 272.693C393.376 275.356 392.517 278.019 391.337 280.575C390.242 283.152 389.169 285.75 387.795 288.22C385.391 293.289 382.128 297.927 378.822 302.416C375.551 306.583 371.972 310.519 367.704 313.714C367.462 313.895 367.219 314.073 366.973 314.249L366.887 313.412C367.159 313.512 367.431 313.613 367.704 313.714C373.462 315.854 379.205 318.06 385.026 320.069L394.127 323.248L403.272 326.254C406.299 327.328 409.39 328.187 412.459 329.111C415.529 329.991 418.556 331.043 421.647 331.86L430.92 334.265C433.99 335.188 437.102 335.768 440.236 336.413L449.638 338.324L459.126 340.149C465.459 341.374 471.834 342.877 478.102 344.445C484.37 346.055 490.617 347.816 496.777 349.62L506.029 352.326C508.982 353.08 511.897 353.757 514.864 354.081C515.024 354.098 515.185 354.115 515.345 354.13L514.873 354.581C514.869 354.414 514.866 354.247 514.864 354.081C514.831 351.571 514.999 349.111 515.281 346.614C515.582 343.972 516.011 341.331 516.59 338.71C517.149 336.09 517.921 333.513 518.759 330.936L520.218 327.113L521.978 323.377C523.288 320.928 524.683 318.501 526.529 316.311C527.366 315.151 528.289 314.056 529.384 313.068C530.458 312.102 531.381 310.942 532.668 310.169C533.914 309.374 535.073 308.408 536.425 307.763L540.568 305.938C542.006 305.53 543.509 305.251 544.968 304.907L546.085 304.692L546.214 304.649H546.578L546.815 304.606H547.308L549.262 304.521C551.709 304.306 554.929 304.671 557.698 304.907C560.424 305.358 563.172 305.766 565.769 306.582C568.431 307.227 570.964 308.214 573.518 309.052C576.008 310.061 578.498 311.092 580.902 312.295C585.732 314.571 590.305 317.277 594.727 320.241C598.949 323.133 603.07 326.187 606.818 329.676C606.938 329.788 607.057 329.9 607.177 330.013L606.533 330.056C606.627 329.929 606.722 329.802 606.818 329.676C610.154 325.249 613.81 321.181 617.588 317.234C621.452 313.154 625.509 309.267 629.63 305.508C631.734 303.64 633.773 301.729 635.941 299.925C638.088 298.121 640.191 296.274 642.424 294.556C646.563 291.227 650.797 288.013 655.327 285.096C655.59 284.926 655.854 284.758 656.119 284.591L656.248 285.428C655.939 285.321 655.632 285.21 655.327 285.096C650.665 283.341 646.395 280.67 642.467 277.525C640.406 275.807 638.453 273.96 636.65 271.92C635.684 270.953 634.911 269.837 634.074 268.763C633.236 267.71 632.464 266.572 631.798 265.37C630.296 263.072 629.136 260.58 628.042 258.068C627.505 256.801 627.183 255.469 626.732 254.159C626.281 252.849 625.874 251.539 625.68 250.186L624.908 246.127C624.714 244.774 624.714 243.4 624.607 242.025C624.329 239.285 624.52 236.587 624.713 233.868C624.713 233.86 624.714 233.851 624.714 233.843L624.843 231.802C624.843 231.358 624.926 230.581 624.991 229.983C624.992 229.974 624.992 229.965 624.993 229.955L625.358 226.09C625.638 223.491 625.509 221.193 625.573 218.723C625.358 216.318 625.444 213.805 624.929 211.486C624.927 211.471 624.925 211.457 624.923 211.442C624.753 210.275 624.581 209.089 624.178 208.007C623.813 206.89 623.62 205.709 623.083 204.7C622.632 203.647 622.224 202.552 621.559 201.671C621.258 201.199 620.958 200.705 620.636 200.254L619.498 199.073C618.833 198.149 617.824 197.72 616.987 196.99C615.978 196.582 615.033 195.937 613.896 195.787C611.749 195.121 609.345 195.229 606.984 195.723C604.579 196.131 602.347 197.312 600.114 198.536L598.784 199.266L599.32 198.021C599.728 195.186 600.265 192.351 600.844 189.516C601.102 188.077 601.66 186.746 602.089 185.371L603.463 181.226C603.914 179.83 604.665 178.563 605.266 177.232L607.241 173.301C607.971 172.034 608.83 170.832 609.645 169.608C610.483 168.405 611.298 167.159 612.178 166L615.076 162.671C616.064 161.597 616.987 160.437 618.103 159.492C619.198 158.526 620.25 157.538 621.387 156.593C622.503 155.67 623.577 154.66 624.757 153.866C627.162 152.233 629.501 150.537 631.991 149.098C634.4 147.759 636.849 146.46 639.356 145.332C639.462 145.284 639.569 145.237 639.676 145.189L639.462 145.662C639.426 145.552 639.391 145.442 639.356 145.332C638.512 142.668 637.939 139.966 637.465 137.243C637.014 134.387 636.735 131.509 636.607 128.631C636.521 127.171 636.607 125.732 636.607 124.272C636.607 122.811 636.714 121.372 636.843 119.933C637.122 117.034 637.465 114.135 638.174 111.279C638.775 108.422 639.547 105.587 640.621 102.838C641.608 100.068 642.853 97.3835 644.356 94.8493C645.008 93.565 645.867 92.3839 646.709 91.225C646.726 91.2018 646.743 91.1786 646.76 91.1554C647.554 89.9313 648.585 88.836 649.529 87.7192C650.474 86.6025 651.59 85.6361 652.663 84.6482C653.426 83.99 654.261 83.3944 655.089 82.8105C655.45 82.556 655.81 82.3038 656.162 82.0495L656.42 82.9301C655.976 82.8912 655.533 82.8513 655.089 82.8105C651.862 82.5139 648.635 82.1695 645.408 81.7918C641.737 81.2764 638.109 80.6536 634.439 80.0737C630.789 79.408 627.204 78.506 623.577 77.7543C619.949 76.9597 616.429 75.8215 612.844 74.8765C609.238 73.9531 605.781 72.643 602.261 71.4833C598.719 70.3451 595.263 68.9921 591.807 67.6176C588.33 66.2861 584.938 64.7828 581.546 63.2365L576.48 60.96L571.522 58.4044C568.216 56.7292 564.91 54.9897 561.733 53.0998C558.492 51.2743 555.272 49.4059 552.202 47.3012C549.068 45.2825 545.956 43.2637 542.972 41.0302C539.924 38.8826 536.983 36.6276 534.15 34.2008L529.835 30.6572L525.735 26.856C522.966 24.3647 520.39 21.7017 517.9 18.9313C515.303 16.2897 513.092 13.2616 510.752 10.4053C508.529 7.6713 506.694 4.62721 504.749 1.71493C504.646 1.56172 504.544 1.40886 504.441 1.25644L505.042 1.42825C504.945 1.52542 504.847 1.62095 504.749 1.71493C503.066 3.32412 501.219 4.47623 499.353 5.55166C498.344 6.06709 497.357 6.62546 496.284 7.07646C495.232 7.54894 494.137 7.95698 493.042 8.36503C491.969 8.79455 490.874 9.18112 489.629 9.35293C488.427 9.61064 487.225 9.78245 486.044 9.93279C485.465 10.0616 484.842 9.99721 484.241 9.93279C483.64 9.88983 483.039 9.84688 482.438 9.76098C481.459 9.63858 480.509 9.50194 479.564 9.29311C479.349 9.24545 479.133 9.19403 478.918 9.13817L479.433 8.55831C479.48 8.80288 479.524 9.04784 479.564 9.29311C479.951 11.6323 480.05 14.0001 479.798 16.3327C479.605 18.9313 479.068 21.4655 478.467 23.9782C477.844 26.4909 476.964 28.9391 476.02 31.3445C475.996 31.3998 475.973 31.4552 475.95 31.5105C474.964 33.8399 473.972 36.185 472.693 38.3457C471.491 40.6651 470.052 42.8127 468.614 45.0033C467.004 47.065 465.502 49.2126 463.655 51.0595C461.938 53.0353 459.942 54.7964 457.946 56.5145C456.937 57.3735 455.777 58.0822 454.704 58.8554C453.652 59.65 452.493 60.3587 451.291 60.96C448.994 62.3345 446.461 63.3224 443.928 64.2244C442.64 64.6539 441.288 64.8472 439.979 65.1693L437.853 65.5988L435.964 65.7921C434.676 65.878 433.539 66.0928 432.144 66.0713L428.044 65.9639C425.382 65.6633 422.741 65.3411 420.187 64.6324C415.057 63.258 410.227 60.9385 405.977 57.8889C403.873 56.3426 401.898 54.6246 400.116 52.7561C398.933 51.5585 397.831 50.3068 396.834 48.9657C396.293 48.2386 395.783 47.4851 395.308 46.6999L396.21 46.3348C396.436 47.2093 396.644 48.0865 396.834 48.9657C397.401 51.5845 397.815 54.2213 398.12 56.8581C398.528 60.4016 398.657 63.9881 398.592 67.5747C398.549 69.3786 398.399 71.1826 398.249 72.9866C398.184 73.8886 397.991 74.7906 397.862 75.6926C397.734 76.5946 397.562 77.4966 397.283 78.3771C397.025 79.2577 396.854 80.1596 396.467 81.0187C396.102 81.8777 395.823 82.7583 395.372 83.5743C394.9 84.3904 394.449 85.2065 393.913 85.9797C393.312 86.7099 392.646 87.3971 392.002 88.0414L391.723 88.3206L391.508 88.2347C387.451 87.7622 383.416 87.1823 379.38 86.6669C377.362 86.3877 375.323 86.2589 373.327 86.0226L367.252 85.3998C363.216 84.9273 359.138 84.9059 355.102 84.5193C351.078 84.1552 347.011 84.0261 342.966 83.8976C342.954 83.8972 342.943 83.8969 342.931 83.8965L336.835 83.6817L335.311 83.6173H334.924C334.924 83.6173 334.731 83.6173 334.667 83.6173H333.894C332.885 83.6817 331.833 83.6388 330.867 83.7247L328.098 84.1327C327.175 84.2831 326.231 84.6052 325.308 84.82C323.461 85.3783 321.615 86.0441 319.877 86.9461C318.095 87.7622 316.378 88.7286 314.746 89.8454C313.093 90.9192 311.526 92.1433 310.024 93.4534C307.147 95.9231 304.486 98.6935 302.146 101.7L301.974 101.657ZM300.729 101.593C301.716 99.7458 302.876 98.0278 304.121 96.3526C305.409 94.7204 306.697 93.0668 308.221 91.6279C309.68 90.1246 311.269 88.7501 312.943 87.483C313.759 86.8172 314.639 86.2159 315.519 85.6575C316.378 85.0347 317.301 84.4978 318.267 84.0468C320.134 83.016 322.152 82.2428 324.17 81.5985C325.2 81.3194 326.209 80.9757 327.282 80.761L330.567 80.2241C331.619 80.0952 332.606 80.1167 333.636 80.0523L334.409 80.0093H334.903H335.289L336.835 80.0952L342.953 80.4174C347.053 80.6106 351.131 80.8254 355.231 81.2335C359.31 81.62 363.41 81.9207 367.445 82.5864L373.52 83.5099C375.538 83.8535 377.577 84.0468 379.573 84.5193C383.588 85.3998 387.602 86.2374 391.573 87.1823L391.079 87.3756C391.337 86.5166 391.594 85.7005 391.916 84.9273C392.11 84.0898 392.303 83.2737 392.539 82.4791C392.861 80.8254 393.226 79.1932 393.44 77.5181C393.956 74.1893 394.406 70.7961 394.578 67.3384C394.814 63.9022 394.943 60.4231 394.986 56.944L395.115 46.4207L394.707 44.6596L396.016 46.0341C397.712 47.8166 399.601 49.4488 401.533 50.9521C403.465 52.4769 405.569 53.7655 407.672 54.9682C411.923 57.3305 416.452 59.0486 421.131 59.9506C423.45 60.4446 425.833 60.6379 428.194 60.7882C430.469 60.7452 432.745 60.7667 435.342 60.4016L437.231 60.2083C437.531 60.101 438.283 59.9506 438.798 59.8218C439.914 59.5211 441.073 59.3493 442.168 58.9627L445.452 57.7171C446.547 57.3305 447.535 56.6648 448.586 56.1494C449.66 55.6339 450.669 55.0541 451.635 54.3454C452.601 53.6581 453.631 53.0568 454.554 52.2837C456.379 50.7374 458.268 49.2555 459.899 47.4945C461.681 45.8623 463.14 43.908 464.707 42.061C466.167 40.1067 467.648 38.1739 468.915 36.0907C470.288 34.0719 471.383 31.8814 472.564 29.7123L474.152 26.3835L475.548 22.9688C477.286 18.3729 478.531 13.5408 478.381 8.62274L478.252 8.27913L478.896 8.02141C480.013 7.57041 481.107 7.2268 482.181 6.90465C483.232 6.56104 484.327 6.45366 485.315 6.00266C487.332 5.10066 489.286 4.62819 491.368 3.66176C493.407 2.75977 495.489 2.07253 497.722 1.40677C499.954 0.826917 502.23 0.354443 504.677 0.375919L504.977 0.225586L505.278 0.547727C507.747 3.27519 509.979 6.17447 512.512 8.79455C515.088 11.3717 517.514 14.0777 520.326 16.44C523.03 18.8883 525.671 21.3581 528.568 23.5701L532.776 27.0063L537.155 30.2492C538.636 31.323 540.074 32.4183 541.555 33.4491L546.085 36.4773C549.047 38.5604 552.16 40.4503 555.272 42.3188C558.342 44.2516 561.519 46.0126 564.696 47.7737C567.83 49.5992 571.05 51.2743 574.312 52.8635C577.554 54.5387 580.795 56.1279 584.122 57.6097C587.407 59.156 590.712 60.6808 594.083 62.0123C597.431 63.3868 600.758 64.8901 604.193 66.1143C607.606 67.3814 610.976 68.7558 614.454 69.8941C617.91 71.0323 621.323 72.3423 624.822 73.3302C628.321 74.3611 631.777 75.5423 635.319 76.4658L645.901 79.3436C649.465 80.1167 653.049 80.9757 656.613 81.8563H657.536L656.87 82.7368L654.359 86.0871C653.651 87.2897 652.792 88.342 652.148 89.5662C651.525 90.7903 650.731 91.8856 650.194 93.1527C649.636 94.3983 648.992 95.5795 648.499 96.8466C647.984 98.0922 647.447 99.3378 647.06 100.648C646.588 101.915 646.137 103.182 645.794 104.492C645.386 105.781 645.064 107.112 644.764 108.422C644.42 109.732 644.098 111.042 643.884 112.395C643.368 115.058 642.918 117.764 642.574 120.47C642.231 123.198 641.887 125.925 641.715 128.674C641.458 131.423 641.286 134.194 641.093 136.985C640.9 139.777 640.814 142.591 640.535 145.447L640.578 145.662L640.299 145.941C638.324 148.046 636.22 149.957 634.116 151.825C633.022 152.727 632.099 153.78 631.047 154.703L627.956 157.517C626.883 158.397 625.959 159.428 624.972 160.394C624.028 161.382 622.997 162.306 622.01 163.272C620.979 164.196 620.207 165.312 619.262 166.3L616.514 169.328C615.677 170.402 614.905 171.519 614.089 172.614C613.273 173.71 612.393 174.762 611.642 175.9L609.538 179.422C608.851 180.603 607.992 181.699 607.434 182.966L605.588 186.681C604.987 187.948 604.279 189.151 603.742 190.439C602.69 193.038 601.596 195.615 600.372 198.214L599.578 197.72C601.51 195.937 603.656 194.155 606.275 193.188C608.83 192.158 611.728 191.556 614.668 191.964C616.171 192.029 617.545 192.63 618.962 193.081C620.228 193.833 621.709 194.391 622.761 195.443L624.435 196.925C624.929 197.462 625.358 198.063 625.809 198.643C626.797 199.782 627.441 201.049 628.128 202.316C628.9 203.561 629.308 204.914 629.78 206.246C630.317 207.577 630.596 208.93 630.875 210.283C631.584 213.011 631.734 215.717 632.034 218.444C632.034 221.15 632.142 224.05 631.927 226.605L631.326 234.337C631.133 236.785 630.897 239.233 631.111 241.66C631.197 242.884 631.154 244.108 631.304 245.311L631.82 248.919C631.927 250.143 632.249 251.303 632.571 252.484C632.893 253.644 633.129 254.846 633.558 255.984C634.46 258.261 635.233 260.58 636.435 262.728C636.95 263.845 637.551 264.919 638.259 265.928C638.946 266.959 639.504 268.076 640.277 269.021C641.694 271.061 643.325 272.951 645.021 274.798C646.738 276.623 648.585 278.341 650.538 279.952C652.47 281.584 654.552 283.109 656.72 284.419L657.364 284.591L656.849 285.278C653.393 289.788 649.615 293.976 645.751 298.056C643.819 300.118 641.823 302.072 639.826 304.048C637.83 306.024 635.769 307.914 633.73 309.847C629.609 313.648 625.401 317.342 621.001 320.842C616.622 324.364 612.114 327.736 607.263 330.743L606.855 331.022L606.64 330.786C602.025 328.359 597.367 326.04 592.687 323.913C590.347 322.84 588.008 321.787 585.646 320.799C583.242 319.876 580.924 318.845 578.52 318.008C576.159 317.063 573.711 316.44 571.329 315.581C568.903 314.936 566.52 314.163 564.095 313.734C561.669 313.154 559.243 312.875 556.839 312.51C554.435 312.402 552.46 312.059 549.712 312.338L547.759 312.445H547.265L547.008 312.488H546.943C546.857 312.488 547.373 312.445 547.137 312.488H547.029L546.235 312.681C545.183 312.918 544.088 313.068 543.015 313.326L539.988 314.593C538.979 315.044 538.121 315.774 537.155 316.332C536.167 316.848 535.373 317.728 534.472 318.437C533.57 319.124 532.754 319.983 532.003 320.885C530.35 322.582 529.041 324.622 527.645 326.619L525.714 329.776L524.018 333.105C522.901 335.36 521.828 337.658 520.927 340.042C519.939 342.383 519.081 344.81 518.243 347.236C517.406 349.685 516.612 352.154 515.904 354.646V355.097H515.453C513.843 355.14 512.104 355.397 510.473 355.226C508.841 355.054 507.188 354.946 505.578 354.71C502.359 354.216 499.117 353.787 495.962 353.142L476.986 349.449C473.83 348.783 470.696 348.181 467.541 347.602C464.385 347.043 461.294 346.334 458.096 345.798L448.565 344.101L439.013 342.061C435.814 341.374 432.616 340.729 429.503 339.763L420.123 337.014C417.01 336.09 413.962 334.952 410.892 333.9C407.844 332.805 404.753 331.774 401.769 330.528C395.716 328.187 389.748 325.674 383.867 322.968C380.904 321.637 378.028 320.177 375.109 318.781C372.189 317.385 369.334 315.86 366.479 314.292L365.728 313.884L366.393 313.433C370.343 309.739 373.692 305.358 376.654 300.848C379.509 296.231 382.128 291.485 384.232 286.502C385.412 284.075 386.314 281.52 387.237 278.964C388.246 276.451 388.933 273.831 389.684 271.254C390.5 268.677 391.079 266.035 391.616 263.394C392.195 260.752 392.754 258.111 393.118 255.426C393.483 252.742 394.02 250.1 394.256 247.416L394.922 239.319C395.201 236.613 395.093 233.95 395.201 231.266C395.201 228.56 395.458 225.939 395.244 223.148L394.879 214.901L394.793 212.839L394.75 211.916L394.643 210.928L394.235 206.955C394.02 204.292 393.376 201.714 392.947 199.073C392.303 196.496 391.745 193.876 390.929 191.341C389.362 186.252 387.366 181.269 384.983 176.48C382.622 171.691 379.917 167.03 376.826 162.628C373.842 158.139 370.365 154.037 366.866 149.893C363.259 145.855 359.503 141.946 355.489 138.274C347.503 130.886 338.724 124.379 329.622 118.323C325.05 115.316 320.37 112.46 315.583 109.775C310.775 107.134 305.924 104.556 300.944 102.302L300.429 102.087L300.686 101.593H300.729Z" fill="#1B1464"/>
<path d="M301.974 101.657C312.192 105.308 321.937 110.162 331.382 115.531C341.021 121.072 350.122 127.557 358.644 134.752C367.123 142.011 375.044 150.086 381.57 159.299C384.897 163.852 387.859 168.684 390.457 173.731C393.076 178.778 395.179 184.061 396.918 189.473C397.798 192.179 398.421 194.949 399.129 197.72C399.601 200.533 400.288 203.304 400.546 206.138L401.018 210.391L401.125 211.443L401.168 212.581L401.254 214.643L401.533 222.911C401.726 225.617 401.447 228.517 401.426 231.33C401.275 234.143 401.383 236.978 400.996 239.77L400.073 248.146C399.73 250.916 399.129 253.665 398.657 256.435C398.249 259.206 397.497 261.933 396.746 264.639C396.038 267.367 395.308 270.073 394.299 272.693C393.376 275.356 392.517 278.019 391.337 280.575C390.242 283.152 389.169 285.75 387.795 288.22C385.391 293.289 382.128 297.927 378.822 302.416C375.551 306.583 371.972 310.519 367.704 313.714C373.462 315.854 379.205 318.06 385.026 320.069L394.127 323.248L403.272 326.254C406.299 327.328 409.39 328.187 412.459 329.111C415.529 329.991 418.556 331.043 421.647 331.86L430.92 334.265C433.99 335.188 437.102 335.768 440.236 336.413L449.638 338.324L459.126 340.149C465.459 341.374 471.834 342.877 478.102 344.445C484.37 346.055 490.617 347.816 496.777 349.62L506.029 352.326C508.982 353.08 511.897 353.757 514.864 354.081C514.831 351.571 514.999 349.111 515.281 346.614C515.582 343.972 516.011 341.331 516.59 338.71C517.149 336.09 517.921 333.513 518.759 330.936L520.218 327.113L521.978 323.377C523.288 320.928 524.683 318.501 526.529 316.311C527.366 315.151 528.289 314.056 529.384 313.068C530.458 312.102 531.381 310.942 532.668 310.169C533.914 309.374 535.073 308.408 536.425 307.763L540.568 305.938C542.006 305.53 543.509 305.251 544.968 304.907L546.085 304.692L546.214 304.649H546.578L546.815 304.606H547.308L549.262 304.521C551.709 304.306 554.929 304.671 557.698 304.907C560.424 305.358 563.172 305.766 565.769 306.582C568.431 307.227 570.964 308.214 573.518 309.052C576.008 310.061 578.498 311.092 580.902 312.295C585.732 314.571 590.305 317.277 594.727 320.241C598.949 323.133 603.07 326.187 606.818 329.676C610.154 325.249 613.81 321.181 617.588 317.234C621.452 313.154 625.509 309.267 629.63 305.508C631.734 303.64 633.773 301.729 635.941 299.925C638.088 298.121 640.191 296.274 642.424 294.556C646.563 291.227 650.797 288.013 655.327 285.096C650.665 283.341 646.395 280.67 642.467 277.525C640.406 275.807 638.453 273.96 636.65 271.92C635.684 270.953 634.911 269.837 634.074 268.763C633.236 267.71 632.464 266.572 631.798 265.37C630.296 263.072 629.136 260.58 628.042 258.068C627.505 256.801 627.183 255.469 626.732 254.159C626.281 252.849 625.874 251.539 625.68 250.186L624.908 246.127C624.714 244.774 624.714 243.4 624.607 242.025C624.329 239.285 624.52 236.587 624.713 233.868L624.714 233.843L624.843 231.802C624.843 231.358 624.926 230.581 624.991 229.983L624.993 229.955L625.358 226.09C625.638 223.491 625.509 221.193 625.573 218.723C625.358 216.318 625.444 213.805 624.929 211.486L624.923 211.442C624.753 210.275 624.581 209.089 624.178 208.007C623.813 206.89 623.62 205.709 623.083 204.7C622.632 203.647 622.224 202.552 621.559 201.671C621.258 201.199 620.958 200.705 620.636 200.254L619.498 199.073C618.833 198.149 617.824 197.72 616.987 196.99C615.978 196.582 615.033 195.937 613.896 195.787C611.749 195.121 609.345 195.229 606.984 195.723C604.579 196.131 602.347 197.312 600.114 198.536L598.784 199.266L599.32 198.021C599.728 195.186 600.265 192.351 600.844 189.516C601.102 188.077 601.66 186.746 602.089 185.371L603.463 181.226C603.914 179.83 604.665 178.563 605.266 177.232L607.241 173.301C607.971 172.034 608.83 170.832 609.645 169.608C610.483 168.405 611.298 167.159 612.178 166L615.076 162.671C616.064 161.597 616.987 160.437 618.103 159.492C619.198 158.526 620.25 157.538 621.387 156.593C622.503 155.67 623.577 154.66 624.757 153.866C627.162 152.233 629.501 150.537 631.991 149.098C634.4 147.759 636.849 146.46 639.356 145.332C638.512 142.668 637.939 139.966 637.465 137.243C637.014 134.387 636.735 131.509 636.607 128.631C636.521 127.171 636.607 125.732 636.607 124.272C636.607 122.811 636.714 121.372 636.843 119.933C637.122 117.034 637.465 114.135 638.174 111.279C638.775 108.422 639.547 105.587 640.621 102.838C641.608 100.068 642.853 97.3835 644.356 94.8493C645.008 93.565 645.867 92.3839 646.709 91.225L646.76 91.1554C647.554 89.9313 648.585 88.836 649.529 87.7192C650.474 86.6025 651.59 85.6361 652.663 84.6482C653.426 83.99 654.261 83.3944 655.089 82.8105C651.862 82.5139 648.635 82.1695 645.408 81.7918C641.737 81.2764 638.109 80.6536 634.439 80.0737C630.789 79.408 627.204 78.506 623.577 77.7543C619.949 76.9597 616.429 75.8215 612.844 74.8765C609.238 73.9531 605.781 72.643 602.261 71.4833C598.719 70.3451 595.263 68.9921 591.807 67.6176C588.33 66.2861 584.938 64.7828 581.546 63.2365L576.48 60.96L571.522 58.4044C568.216 56.7292 564.91 54.9897 561.733 53.0998C558.492 51.2743 555.272 49.4059 552.202 47.3012C549.068 45.2825 545.956 43.2637 542.972 41.0302C539.924 38.8826 536.983 36.6276 534.15 34.2008L529.835 30.6572L525.735 26.856C522.966 24.3647 520.39 21.7017 517.9 18.9313C515.303 16.2897 513.092 13.2616 510.752 10.4053C508.529 7.6713 506.694 4.62721 504.749 1.71493C503.066 3.32412 501.219 4.47623 499.353 5.55166C498.344 6.06709 497.357 6.62546 496.284 7.07646C495.232 7.54894 494.137 7.95698 493.042 8.36503C491.969 8.79455 490.874 9.18112 489.629 9.35293C488.427 9.61064 487.225 9.78245 486.044 9.93279C485.465 10.0616 484.842 9.99721 484.241 9.93279C483.64 9.88983 483.039 9.84688 482.438 9.76098C481.459 9.63858 480.509 9.50194 479.564 9.29311C479.951 11.6323 480.05 14.0001 479.798 16.3327C479.605 18.9313 479.068 21.4655 478.467 23.9782C477.844 26.4909 476.964 28.9391 476.02 31.3445L475.95 31.5105C474.964 33.8399 473.972 36.185 472.693 38.3457C471.491 40.6651 470.052 42.8127 468.614 45.0033C467.004 47.065 465.502 49.2126 463.655 51.0595C461.938 53.0353 459.942 54.7964 457.946 56.5145C456.937 57.3735 455.777 58.0822 454.704 58.8554C453.652 59.65 452.493 60.3587 451.291 60.96C448.994 62.3345 446.461 63.3224 443.928 64.2244C442.64 64.6539 441.288 64.8472 439.979 65.1693L437.853 65.5988L435.964 65.7921C434.676 65.878 433.539 66.0928 432.144 66.0713L428.044 65.9639C425.382 65.6633 422.741 65.3411 420.187 64.6324C415.057 63.258 410.227 60.9385 405.977 57.8889C403.873 56.3426 401.898 54.6246 400.116 52.7561C398.933 51.5585 397.831 50.3068 396.834 48.9657C397.401 51.5845 397.815 54.2213 398.12 56.8581C398.528 60.4016 398.657 63.9881 398.592 67.5747C398.549 69.3786 398.399 71.1826 398.249 72.9866C398.184 73.8886 397.991 74.7906 397.862 75.6926C397.734 76.5946 397.562 77.4966 397.283 78.3771C397.025 79.2577 396.854 80.1596 396.467 81.0187C396.102 81.8777 395.823 82.7583 395.372 83.5743C394.9 84.3904 394.449 85.2065 393.913 85.9797C393.312 86.7099 392.646 87.3971 392.002 88.0414L391.723 88.3206L391.508 88.2347C387.451 87.7622 383.416 87.1823 379.38 86.6669C377.362 86.3877 375.323 86.2589 373.327 86.0226L367.252 85.3998C363.216 84.9273 359.138 84.9059 355.102 84.5193C351.078 84.1552 347.011 84.0261 342.966 83.8976L342.931 83.8965L336.835 83.6817L335.311 83.6173H334.924H334.667H333.894C332.885 83.6817 331.833 83.6388 330.867 83.7247L328.098 84.1327C327.175 84.2831 326.231 84.6052 325.308 84.82C323.461 85.3783 321.615 86.0441 319.877 86.9461C318.095 87.7622 316.378 88.7286 314.746 89.8454C313.093 90.9192 311.526 92.1433 310.024 93.4534C307.147 95.9231 304.486 98.6935 302.146 101.7L301.974 101.657Z" fill="#1B1464"/>
</g>
<g clip-path="url(#clip2_196_2949)">
<path d="M541.773 90.9439L538.341 91.4142C537.392 91.5442 536.728 92.4038 536.856 93.3363C536.984 94.2686 537.855 94.9179 538.803 94.7879L542.235 94.3176C543.183 94.1876 543.847 93.328 543.72 92.3956C543.592 91.4632 542.721 90.8139 541.773 90.9439Z" fill="#0657CF"/>
<path d="M523.636 87.5054L521.458 84.367C520.916 83.592 519.843 83.3985 519.052 83.9281C518.261 84.4611 518.056 85.5213 518.595 86.2967L520.773 89.4351C521.31 90.2073 522.382 90.4078 523.179 89.874C523.969 89.3411 524.174 88.2809 523.636 87.5054Z" fill="#0657CF"/>
<path d="M534.314 81.8366C533.412 81.5389 532.425 82.015 532.115 82.9066L530.861 86.5153C530.552 87.4069 531.034 88.3729 531.939 88.6735C532.852 88.9741 533.829 88.4888 534.138 87.6035L535.391 83.9948C535.701 83.1031 535.219 82.1371 534.314 81.8366Z" fill="#0657CF"/>
<path d="M517.75 94.2362L514.318 94.7065C513.37 94.8365 512.706 95.6961 512.834 96.6285C512.962 97.5608 513.832 98.2102 514.781 98.0802L518.213 97.6098C519.161 97.4799 519.825 96.6202 519.697 95.6878C519.57 94.7554 518.699 94.1062 517.75 94.2362Z" fill="#0657CF"/>
<path d="M509.782 112.628L502.919 113.568C501.971 113.698 501.306 114.559 501.434 115.49L505.133 142.479C505.26 143.41 506.132 144.06 507.08 143.931L513.943 142.99C514.891 142.86 515.556 142 515.428 141.068L511.729 114.079C511.602 113.148 510.73 112.498 509.782 112.628Z" fill="#0657CF"/>
<path d="M553.258 111.225C552.597 108.649 549.856 107.136 547.177 107.503L533.799 109.336C534.662 107.179 534.497 101.435 534.153 99.1267C533.583 95.3056 529.939 92.6804 526.045 93.214L524.629 93.408C523.681 93.538 523.017 94.3976 523.145 95.33C523.679 99.2307 523.099 106.483 520.578 109.747C518.881 111.944 517.3 112.872 515.249 114.254L518.718 139.564C522.235 140.206 526.731 141.238 533.245 140.345L544.469 138.807C548.168 138.3 550.587 134.538 548.666 131.176C550.769 130.292 552.11 128.103 551.79 125.774C551.7 125.116 551.485 124.505 551.173 123.959C554.717 122.469 555.46 117.817 552.521 115.363C553.318 114.204 553.643 112.723 553.258 111.225Z" fill="#0657CF"/>
</g>
<path d="M-8.09448 104.178C-8.09448 104.178 95.7263 145.706 167.602 118.553C252.77 86.3785 236.926 6.43046 347.136 6.43047C482.901 6.43048 505.72 117.611 505.72 117.611" stroke="#0657CF" stroke-width="2" stroke-dasharray="7 7"/>
<defs>
<clipPath id="clip0_196_2949">
<rect width="357" height="355" fill="white" transform="translate(288.736 4.26855)"/>
</clipPath>
<clipPath id="clip1_196_2949">
<rect width="357" height="355" fill="white" transform="translate(300.471 0.268555)"/>
</clipPath>
<clipPath id="clip2_196_2949">
<rect width="59" height="58" fill="white" transform="translate(494 87.1812) rotate(-7.80389)"/>
</clipPath>
</defs>
</svg>
