<svg width="49" height="49" viewBox="0 0 49 49" fill="none" xmlns="http://www.w3.org/2000/svg">
<path d="M47.4058 24.5742C47.4058 37.2768 37.1083 47.5742 24.4058 47.5742C11.7032 47.5742 1.40576 37.2768 1.40576 24.5742C1.40576 11.8717 11.7032 1.57422 24.4058 1.57422C37.1083 1.57422 47.4058 11.8717 47.4058 24.5742Z" stroke="#0657CF" stroke-width="2"/>
<path fill-rule="evenodd" clip-rule="evenodd" d="M24.4058 16.5742C22.2324 16.5742 21.9618 16.5836 21.1071 16.6236C18.2004 16.7569 16.5871 18.3689 16.4538 21.2756C16.4151 22.1302 16.4058 22.4022 16.4058 24.5742C16.4058 26.7476 16.4151 27.0196 16.4538 27.8729C16.5871 30.7782 18.2004 32.3929 21.1071 32.5262C21.9618 32.5649 22.2324 32.5742 24.4058 32.5742C26.5791 32.5742 26.8511 32.5649 27.7058 32.5262C30.6071 32.3929 32.2271 30.7809 32.3578 27.8729C32.3964 27.0196 32.4058 26.7476 32.4058 24.5742C32.4058 22.4022 32.3964 22.1302 32.3578 21.2756C32.2271 18.3729 30.6124 16.7556 27.7058 16.6236C26.8511 16.5836 26.5791 16.5742 24.4058 16.5742ZM24.4058 18.0166C26.5418 18.0166 26.7951 18.0246 27.6391 18.0633C29.8084 18.1619 30.8191 19.1899 30.9191 21.3419C30.9564 22.1859 30.9644 22.4379 30.9644 24.5739C30.9644 26.7099 30.9564 26.9633 30.9191 27.8059C30.8191 29.9566 29.8098 30.9873 27.6391 31.0859C26.7951 31.1233 26.5431 31.1326 24.4058 31.1326C22.2698 31.1326 22.0164 31.1246 21.1738 31.0859C19.0004 30.9859 17.9938 29.9539 17.8938 27.8059C17.8564 26.9633 17.8471 26.7099 17.8471 24.5739C17.8471 22.4379 17.8564 22.1846 17.8938 21.3419C17.9924 19.1886 19.0031 18.1606 21.1738 18.0619C22.0164 18.0233 22.2698 18.0166 24.4058 18.0166ZM20.2978 24.5738C20.2978 22.3045 22.1378 20.4658 24.4058 20.4658C26.6738 20.4658 28.5138 22.3058 28.5138 24.5738C28.5138 26.8432 26.6738 28.6818 24.4058 28.6818C22.1378 28.6818 20.2978 26.8432 20.2978 24.5738ZM24.4058 27.2406C22.9324 27.2406 21.7391 26.0472 21.7391 24.5739C21.7391 23.1019 22.9324 21.9072 24.4058 21.9072C25.8778 21.9072 27.0738 23.1006 27.0738 24.5739C27.0738 26.0472 25.8778 27.2406 24.4058 27.2406ZM27.7151 20.3049C27.7151 19.7742 28.1458 19.3449 28.6751 19.3449C29.2071 19.3449 29.6364 19.7742 29.6364 20.3049C29.6364 20.8356 29.2058 21.2649 28.6751 21.2649C28.1444 21.2649 27.7151 20.8342 27.7151 20.3049Z" fill="#0657CF"/>
</svg>
