<svg width="58" height="58" viewBox="0 0 58 58" fill="none" xmlns="http://www.w3.org/2000/svg">
<circle cx="29.2086" cy="29.3458" r="28.6534" fill="#FFC834"/>
<g clip-path="url(#clip0_47_706)">
<path d="M32.1919 39.4401V40.229C32.1919 40.8568 31.7137 41.379 31.0914 41.4679L30.8898 42.1846C30.7803 42.5735 30.4174 42.8457 29.9968 42.8457H27.9976C27.577 42.8457 27.2141 42.5735 27.1046 42.1846L26.9087 41.4679C26.2807 41.3735 25.8026 40.8568 25.8026 40.2235V39.4346C25.8026 39.0124 26.154 38.6735 26.5919 38.6735H31.4026C31.8404 38.679 32.1919 39.0179 32.1919 39.4401ZM35.8964 28.8068C35.8964 30.6013 35.1589 32.229 33.9606 33.4235C33.0503 34.3346 32.4626 35.4957 32.2668 36.7346C32.1803 37.2679 31.7021 37.6624 31.1375 37.6624H26.8569C26.298 37.6624 25.8141 37.2735 25.7334 36.7401C25.5318 35.5013 24.9384 34.3235 24.0281 33.4179C22.8528 32.2401 22.1211 30.6401 22.1038 28.879C22.0635 25.179 25.117 22.1846 28.954 22.1568C32.7853 22.129 35.8964 25.1179 35.8964 28.8068ZM29.7779 24.779C29.7779 24.3679 29.4322 24.029 29.0001 24.029C26.2577 24.029 24.0223 26.179 24.0223 28.829C24.0223 29.2401 24.368 29.579 24.8001 29.579C25.2264 29.579 25.5779 29.2457 25.5779 28.829C25.5779 27.0068 27.1161 25.529 29.0001 25.529C29.4322 25.529 29.7779 25.1957 29.7779 24.779ZM29.0001 19.9735C29.4264 19.9735 29.7779 19.6401 29.7779 19.2235V16.5957C29.7779 16.1846 29.4322 15.8457 29.0001 15.8457C28.568 15.8457 28.2223 16.179 28.2223 16.5957V19.2235C28.2223 19.6401 28.5737 19.9735 29.0001 19.9735ZM19.8454 28.8013C19.8454 28.3901 19.4997 28.0513 19.0676 28.0513H16.3425C15.9161 28.0513 15.5647 28.3846 15.5647 28.8013C15.5647 29.2124 15.9104 29.5513 16.3425 29.5513H19.0676C19.4997 29.5513 19.8454 29.2179 19.8454 28.8013ZM41.6577 28.0513H38.9326C38.5063 28.0513 38.1548 28.3846 38.1548 28.8013C38.1548 29.2124 38.5005 29.5513 38.9326 29.5513H41.6577C42.084 29.5513 42.4355 29.2179 42.4355 28.8013C42.4355 28.3901 42.0898 28.0513 41.6577 28.0513ZM21.4297 35.0457L19.4997 36.9068C19.1943 37.2013 19.1943 37.6735 19.4997 37.9679C19.6495 38.1124 19.8511 38.1846 20.047 38.1846C20.2429 38.1846 20.4445 38.1124 20.5943 37.9679L22.5244 36.1068C22.8297 35.8124 22.8297 35.3401 22.5244 35.0457C22.2248 34.7513 21.7293 34.7513 21.4297 35.0457ZM36.0231 22.779C36.219 22.779 36.4207 22.7068 36.5705 22.5624L38.5005 20.7013C38.8058 20.4068 38.8058 19.9346 38.5005 19.6401C38.1951 19.3457 37.7054 19.3457 37.4001 19.6401L35.47 21.5013C35.1647 21.7957 35.1647 22.2679 35.47 22.5624C35.6256 22.7068 35.8215 22.779 36.0231 22.779ZM21.4297 22.5568C21.5795 22.7013 21.7812 22.7735 21.977 22.7735C22.1729 22.7735 22.3746 22.7013 22.5244 22.5568C22.8297 22.2624 22.8297 21.7901 22.5244 21.4957L20.5943 19.6346C20.289 19.3401 19.7993 19.3401 19.4939 19.6346C19.1886 19.929 19.1886 20.4013 19.4939 20.6957L21.4297 22.5568ZM36.5705 35.0457C36.2651 34.7513 35.7754 34.7513 35.47 35.0457C35.1647 35.3401 35.1647 35.8124 35.47 36.1068L37.4001 37.9679C37.5499 38.1124 37.7515 38.1846 37.9474 38.1846C38.1433 38.1846 38.3449 38.1124 38.4947 37.9679C38.8001 37.6735 38.8001 37.2013 38.4947 36.9068L36.5705 35.0457Z" fill="white"/>
</g>
<defs>
<clipPath id="clip0_47_706">
<rect width="28" height="27" fill="white" transform="translate(15 15.8457)"/>
</clipPath>
</defs>
</svg>
