<svg width="80" height="80" viewBox="0 0 80 80" fill="none" xmlns="http://www.w3.org/2000/svg">
<circle cx="40" cy="40" r="40" fill="#5334F5"/>
<path d="M23.375 39.5H25.1667M39.5 23.375V25.1667M53.8333 39.5H55.625M28.0333 28.0333L29.2875 29.2875M50.9667 28.0333L49.7125 29.2875" stroke="white" stroke-width="2" stroke-linecap="round" stroke-linejoin="round"/>
<path d="M34.1253 46.6665C32.6212 45.5384 31.5101 43.9656 30.9495 42.1709C30.3889 40.3762 30.4071 38.4507 31.0017 36.667C31.5963 34.8833 32.737 33.3318 34.2623 32.2325C35.7876 31.1331 37.6201 30.5415 39.5003 30.5415C41.3805 30.5415 43.2131 31.1331 44.7384 32.2325C46.2637 33.3318 47.4044 34.8833 47.9989 36.667C48.5935 38.4507 48.6118 40.3762 48.0512 42.1709C47.4906 43.9656 46.3795 45.5384 44.8753 46.6665C44.1758 47.359 43.6491 48.2063 43.3378 49.1401C43.0266 50.0739 42.9395 51.0678 43.0837 52.0415C43.0837 52.9919 42.7061 53.9033 42.0341 54.5753C41.3621 55.2473 40.4507 55.6248 39.5003 55.6248C38.55 55.6248 37.6385 55.2473 36.9665 54.5753C36.2945 53.9033 35.917 52.9919 35.917 52.0415C36.0611 51.0678 35.9741 50.0739 35.6628 49.1401C35.3515 48.2063 34.8248 47.359 34.1253 46.6665Z" stroke="white" stroke-width="2" stroke-linecap="round" stroke-linejoin="round"/>
<path d="M35.3789 48.4585H43.6206" stroke="white" stroke-width="2" stroke-linecap="round" stroke-linejoin="round"/>
</svg>
