<svg width="49" height="49" viewBox="0 0 49 49" fill="none" xmlns="http://www.w3.org/2000/svg">
<path d="M47.5372 24.2939C47.5372 36.9965 37.2397 47.2939 24.5372 47.2939C11.8346 47.2939 1.53717 36.9965 1.53717 24.2939C1.53717 11.5914 11.8346 1.29395 24.5372 1.29395C37.2397 1.29395 47.5372 11.5914 47.5372 24.2939Z" stroke="white" stroke-width="2"/>
<path fill-rule="evenodd" clip-rule="evenodd" d="M24.5372 16.2939C22.3638 16.2939 22.0932 16.3033 21.2385 16.3433C18.3318 16.4766 16.7185 18.0886 16.5852 20.9953C16.5465 21.8499 16.5372 22.1219 16.5372 24.2939C16.5372 26.4673 16.5465 26.7393 16.5852 27.5926C16.7185 30.4979 18.3318 32.1126 21.2385 32.2459C22.0932 32.2846 22.3638 32.2939 24.5372 32.2939C26.7105 32.2939 26.9825 32.2846 27.8372 32.2459C30.7385 32.1126 32.3585 30.5006 32.4892 27.5926C32.5278 26.7393 32.5372 26.4673 32.5372 24.2939C32.5372 22.1219 32.5278 21.8499 32.4892 20.9953C32.3585 18.0926 30.7438 16.4753 27.8372 16.3433C26.9825 16.3033 26.7105 16.2939 24.5372 16.2939ZM24.5372 17.7363C26.6732 17.7363 26.9265 17.7443 27.7705 17.783C29.9398 17.8817 30.9505 18.9097 31.0505 21.0617C31.0878 21.9057 31.0958 22.1577 31.0958 24.2937C31.0958 26.4297 31.0878 26.683 31.0505 27.5257C30.9505 29.6763 29.9412 30.707 27.7705 30.8057C26.9265 30.843 26.6745 30.8523 24.5372 30.8523C22.4012 30.8523 22.1478 30.8443 21.3052 30.8057C19.1318 30.7057 18.1252 29.6737 18.0252 27.5257C17.9878 26.683 17.9785 26.4297 17.9785 24.2937C17.9785 22.1577 17.9878 21.9043 18.0252 21.0617C18.1238 18.9083 19.1345 17.8803 21.3052 17.7817C22.1478 17.743 22.4012 17.7363 24.5372 17.7363ZM20.4292 24.2935C20.4292 22.0242 22.2692 20.1855 24.5372 20.1855C26.8052 20.1855 28.6452 22.0255 28.6452 24.2935C28.6452 26.5629 26.8052 28.4015 24.5372 28.4015C22.2692 28.4015 20.4292 26.5629 20.4292 24.2935ZM24.5372 26.9603C23.0638 26.9603 21.8705 25.767 21.8705 24.2936C21.8705 22.8216 23.0638 21.627 24.5372 21.627C26.0092 21.627 27.2052 22.8203 27.2052 24.2936C27.2052 25.767 26.0092 26.9603 24.5372 26.9603ZM27.8465 20.0246C27.8465 19.4939 28.2772 19.0646 28.8065 19.0646C29.3385 19.0646 29.7678 19.4939 29.7678 20.0246C29.7678 20.5553 29.3372 20.9846 28.8065 20.9846C28.2758 20.9846 27.8465 20.5539 27.8465 20.0246Z" fill="white"/>
</svg>
