<svg width="73" height="73" viewBox="0 0 73 73" fill="none" xmlns="http://www.w3.org/2000/svg">
<circle cx="36.5" cy="36.5" r="36" stroke="#3672F8"/>
<path d="M30.0252 21.083H42.9752C47.9085 21.083 51.9168 25.0913 51.9168 30.0247V42.9747C51.9168 45.3462 50.9748 47.6205 49.2979 49.2974C47.621 50.9743 45.3466 51.9163 42.9752 51.9163H30.0252C25.0918 51.9163 21.0835 47.908 21.0835 42.9747V30.0247C21.0835 27.6532 22.0256 25.3788 23.7025 23.702C25.3793 22.0251 27.6537 21.083 30.0252 21.083ZM29.7168 24.1663C28.2449 24.1663 26.8332 24.7511 25.7924 25.7919C24.7516 26.8327 24.1668 28.2444 24.1668 29.7163V43.283C24.1668 46.3509 26.6489 48.833 29.7168 48.833H43.2835C44.7554 48.833 46.1671 48.2483 47.2079 47.2075C48.2488 46.1666 48.8335 44.755 48.8335 43.283V29.7163C48.8335 26.6484 46.3514 24.1663 43.2835 24.1663H29.7168ZM44.5939 26.4788C45.105 26.4788 45.5952 26.6819 45.9566 27.0433C46.318 27.4047 46.521 27.8948 46.521 28.4059C46.521 28.917 46.318 29.4072 45.9566 29.7686C45.5952 30.13 45.105 30.333 44.5939 30.333C44.0828 30.333 43.5927 30.13 43.2313 29.7686C42.8699 29.4072 42.6668 28.917 42.6668 28.4059C42.6668 27.8948 42.8699 27.4047 43.2313 27.0433C43.5927 26.6819 44.0828 26.4788 44.5939 26.4788ZM36.5002 28.7913C38.5445 28.7913 40.5052 29.6035 41.9508 31.0491C43.3964 32.4947 44.2085 34.4553 44.2085 36.4997C44.2085 38.5441 43.3964 40.5047 41.9508 41.9503C40.5052 43.3959 38.5445 44.208 36.5002 44.208C34.4558 44.208 32.4951 43.3959 31.0495 41.9503C29.604 40.5047 28.7918 38.5441 28.7918 36.4997C28.7918 34.4553 29.604 32.4947 31.0495 31.0491C32.4951 29.6035 34.4558 28.7913 36.5002 28.7913ZM36.5002 31.8747C35.2735 31.8747 34.0971 32.3619 33.2298 33.2293C32.3624 34.0967 31.8752 35.273 31.8752 36.4997C31.8752 37.7263 32.3624 38.9027 33.2298 39.77C34.0971 40.6374 35.2735 41.1247 36.5002 41.1247C37.7268 41.1247 38.9032 40.6374 39.7705 39.77C40.6379 38.9027 41.1252 37.7263 41.1252 36.4997C41.1252 35.273 40.6379 34.0967 39.7705 33.2293C38.9032 32.3619 37.7268 31.8747 36.5002 31.8747Z" fill="#2457F5"/>
</svg>
