<svg width="58" height="59" viewBox="0 0 58 59" fill="none" xmlns="http://www.w3.org/2000/svg">
<circle cx="29.2086" cy="29.4095" r="28.6534" fill="#FE6D34"/>
<path d="M24.3082 32.5525L23.9311 32.1852C23.8326 32.089 23.7154 32.0126 23.5862 31.9605C23.457 31.9084 23.3185 31.8816 23.1786 31.8816C23.0387 31.8816 22.9002 31.9084 22.771 31.9605C22.6419 32.0126 22.5246 32.089 22.4261 32.1852L20.1653 34.3846C19.965 34.5802 19.8525 34.8446 19.8525 35.1201C19.8525 35.3956 19.965 35.66 20.1653 35.8556L20.5418 36.2219C20.6403 36.3181 20.7575 36.3944 20.8866 36.4465C21.0157 36.4986 21.1542 36.5254 21.2941 36.5254C21.4339 36.5254 21.5724 36.4986 21.7015 36.4465C21.8306 36.3944 21.9478 36.3181 22.0463 36.2219L24.3077 34.0224C24.5079 33.827 24.6203 33.5629 24.6204 33.2876C24.6205 33.0123 24.5083 32.7481 24.3082 32.5525Z" fill="white"/>
<path d="M25.8182 41.3555C26.0203 41.5432 26.2894 41.6481 26.5694 41.6481C26.8494 41.6481 27.1185 41.5432 27.3206 41.3555V41.3529L29.5819 39.1561L29.5851 39.1535C29.7849 38.9582 29.8969 38.6945 29.8969 38.4196C29.8969 38.1447 29.7849 37.8809 29.5851 37.6856L29.2086 37.3183C29.0063 37.13 28.7366 37.0249 28.4561 37.0249C28.1755 37.0249 27.9059 37.13 27.7035 37.3183L25.4427 39.5177C25.2422 39.713 25.1296 39.9772 25.1296 40.2527C25.1296 40.5281 25.2422 40.7924 25.4427 40.9877L25.8182 41.3555Z" fill="white"/>
<path d="M28.457 43.9207C28.5555 44.0168 28.6726 44.093 28.8016 44.145C28.9306 44.197 29.069 44.2237 29.2087 44.2237C29.3485 44.2237 29.4868 44.197 29.6158 44.145C29.7448 44.093 29.862 44.0168 29.9604 43.9207L32.2202 41.7218C32.4205 41.5266 32.533 41.2626 32.533 40.9874C32.533 40.7121 32.4205 40.4481 32.2202 40.2529L31.8468 39.883C31.6465 39.6899 31.3753 39.5818 31.0927 39.5823C30.954 39.5821 30.8167 39.6085 30.6885 39.6599C30.5604 39.7114 30.444 39.7868 30.346 39.8819L28.0852 42.0809C27.8855 42.2761 27.7734 42.5399 27.7734 42.8148C27.7734 43.0897 27.8855 43.3535 28.0852 43.5487L28.457 43.9207Z" fill="white"/>
<path d="M23.9323 39.0925C24.0723 39.0928 24.2111 39.0661 24.3404 39.014C24.4697 38.9618 24.5869 38.8852 24.6854 38.7887L26.9462 36.5898C27.1465 36.3942 27.2589 36.1298 27.2589 35.8543C27.2589 35.5788 27.1465 35.3144 26.9462 35.1188L26.5696 34.7515C26.4709 34.6554 26.3536 34.5792 26.2244 34.5272C26.0952 34.4752 25.9567 34.4485 25.8168 34.4485C25.6769 34.4485 25.5384 34.4752 25.4092 34.5272C25.28 34.5792 25.1627 34.6554 25.064 34.7515L22.8032 36.9514C22.6029 37.147 22.4905 37.4114 22.4905 37.6869C22.4905 37.9624 22.6029 38.2268 22.8032 38.4224L23.1803 38.7887C23.2786 38.8851 23.3957 38.9616 23.5248 39.0138C23.6539 39.0659 23.7924 39.0927 23.9323 39.0925Z" fill="white"/>
<path d="M32.2245 28.523L38.2543 34.3892C38.4565 34.5777 38.7261 34.683 39.0066 34.683C39.2871 34.683 39.5568 34.5777 39.7589 34.3892L40.1359 34.0224C40.3363 33.8271 40.4488 33.5629 40.4488 33.2875C40.4488 33.0121 40.3363 32.7478 40.1359 32.5525L31.8447 24.4873C31.7441 24.3929 31.6094 24.3401 31.4693 24.3401C31.3291 24.3401 31.1945 24.3929 31.0938 24.4873L26.9487 28.5173C26.6521 28.806 26.2996 29.0351 25.9113 29.1914C25.5231 29.3477 25.1068 29.4282 24.6863 29.4282C24.2659 29.4282 23.8496 29.3477 23.4613 29.1914C23.0731 29.0351 22.7205 28.806 22.4239 28.5173C22.1248 28.2254 21.9569 27.8308 21.9569 27.4194C21.9569 27.0081 22.1248 26.6134 22.4239 26.3215L28.4373 20.4733C26.817 19.0737 24.7043 18.3294 22.5344 18.3937C20.3645 18.458 18.3028 19.3261 16.7738 20.819C15.1758 22.3796 14.2791 24.4888 14.2791 26.687C14.2791 28.8853 15.1758 30.9945 16.7738 32.5551L18.8661 34.5907C18.9582 34.2377 19.1456 33.9148 19.409 33.6551L21.6698 31.4556C21.8676 31.263 22.1027 31.1102 22.3616 31.0059C22.6205 30.9016 22.8982 30.8479 23.1786 30.8479C23.459 30.8479 23.7367 30.9016 23.9956 31.0059C24.2546 31.1102 24.4897 31.263 24.6874 31.4556L25.0639 31.823C25.2804 32.035 25.4468 32.2901 25.5516 32.5706C25.6564 32.851 25.6971 33.1502 25.6709 33.4474C25.9728 33.424 26.2763 33.4631 26.5614 33.5621C26.8465 33.6612 27.1065 33.8179 27.3242 34.0219L27.7013 34.3892C27.9152 34.5991 28.0802 34.851 28.1851 35.128C28.29 35.4049 28.3324 35.7004 28.3093 35.9945C28.3578 35.9914 28.4047 35.9811 28.4538 35.9811C28.7343 35.9805 29.0121 36.034 29.2711 36.1383C29.5301 36.2426 29.7652 36.3957 29.9626 36.5887L30.3391 36.956C30.5557 37.1682 30.7221 37.4233 30.8269 37.7039C30.9317 37.9844 30.9724 38.2837 30.9461 38.581C31.2478 38.558 31.5511 38.5971 31.8361 38.6959C32.1211 38.7946 32.3812 38.9508 32.5994 39.1539L32.9653 39.5156C32.9685 39.5182 32.9727 39.5192 32.9754 39.5218C33.074 39.618 33.1912 39.6944 33.3204 39.7465C33.4495 39.7986 33.588 39.8254 33.7279 39.8254C33.8678 39.8254 34.0064 39.7986 34.1355 39.7465C34.2647 39.6944 34.3819 39.618 34.4805 39.5218L34.8575 39.1545C35.0575 38.9591 35.1697 38.6951 35.1697 38.42C35.1697 38.1449 35.0575 37.8809 34.8575 37.6856L28.8303 31.8188C28.7809 31.7707 28.7417 31.7137 28.715 31.6509C28.6884 31.5881 28.6747 31.5209 28.6748 31.453C28.675 31.3851 28.6889 31.3179 28.7159 31.2552C28.7429 31.1926 28.7823 31.1357 28.8319 31.0878C28.8816 31.0398 28.9405 31.0019 29.0053 30.976C29.0701 30.9502 29.1395 30.937 29.2096 30.9371C29.3511 30.9374 29.4867 30.9921 29.5866 31.0893L35.6165 36.956C35.8188 37.1441 36.0883 37.2492 36.3687 37.2492C36.6492 37.2492 36.9187 37.1441 37.121 36.956L37.4975 36.5892C37.6978 36.3937 37.8102 36.1294 37.8102 35.854C37.8102 35.5786 37.6978 35.3143 37.4975 35.1188L31.4682 29.2526C31.3683 29.1554 31.3124 29.0238 31.3127 28.8867C31.313 28.7496 31.3695 28.6182 31.4698 28.5215C31.5701 28.4247 31.7059 28.3705 31.8475 28.3708C31.989 28.3711 32.1246 28.4259 32.2245 28.523Z" fill="white"/>
<path d="M41.4357 32.7583L41.6432 32.5562C43.2412 30.9957 44.1379 28.8866 44.1379 26.6885C44.1379 24.4903 43.2412 22.3812 41.6432 20.8207C40.8534 20.0511 39.9144 19.4404 38.8801 19.0236C37.8458 18.6069 36.7367 18.3923 35.6165 18.3923C34.4963 18.3923 33.3872 18.6069 32.3529 19.0236C31.3186 19.4404 30.3796 20.0511 29.5899 20.8207L23.1819 27.0532C23.0815 27.1512 23.0251 27.2836 23.0251 27.4216C23.0251 27.5596 23.0815 27.692 23.1819 27.79C23.5868 28.1669 24.1267 28.3774 24.6883 28.3774C25.2498 28.3774 25.7897 28.1669 26.1947 27.79L30.3397 23.76C30.6441 23.4771 31.0496 23.3191 31.4715 23.3191C31.8933 23.3191 32.2988 23.4771 32.6032 23.76L40.8923 31.8241C41.1557 32.0833 41.3433 32.4057 41.4357 32.7583Z" fill="white"/>
</svg>
