<svg width="80" height="80" viewBox="0 0 80 80" fill="none" xmlns="http://www.w3.org/2000/svg">
<circle cx="40" cy="40" r="40" fill="#4364F7"/>
<path d="M53.1253 42.0009L40.0003 54.9999L26.8753 42.0009C26.0096 41.1585 25.3277 40.146 24.8725 39.0271C24.4173 37.9081 24.1988 36.7071 24.2306 35.4996C24.2624 34.292 24.5439 33.1042 25.0573 32.0108C25.5707 30.9174 26.305 29.9421 27.2139 29.1465C28.1227 28.3508 29.1865 27.7519 30.3382 27.3875C31.4899 27.0232 32.7045 26.9012 33.9057 27.0293C35.1068 27.1575 36.2684 27.5329 37.3173 28.132C38.3662 28.7311 39.2797 29.5409 40.0003 30.5104C40.724 29.548 41.6385 28.7453 42.6867 28.1525C43.7349 27.5597 44.8941 27.1897 46.0919 27.0656C47.2897 26.9415 48.5002 27.0659 49.6476 27.4311C50.7951 27.7963 51.8548 28.3945 52.7605 29.1881C53.6662 29.9817 54.3983 30.9537 54.911 32.0433C55.4238 33.1328 55.7061 34.3165 55.7403 35.5202C55.7746 36.7239 55.56 37.9217 55.11 39.0386C54.66 40.1556 53.9844 41.1676 53.1253 42.0114" stroke="white" stroke-width="2" stroke-linecap="round" stroke-linejoin="round"/>
<path d="M39.9997 30.5L34.237 36.2628C33.9089 36.5909 33.7246 37.036 33.7246 37.5C33.7246 37.964 33.9089 38.4091 34.237 38.7372L35.1872 39.6875C36.3947 40.895 38.3547 40.895 39.5622 39.6875L41.3122 37.9375C42.3565 36.8932 43.7729 36.3065 45.2497 36.3065C46.7266 36.3065 48.1429 36.8932 49.1872 37.9375L53.1247 41.875" stroke="white" stroke-width="2" stroke-linecap="round" stroke-linejoin="round"/>
<path d="M40.875 47.125L44.375 50.625" stroke="white" stroke-width="2" stroke-linecap="round" stroke-linejoin="round"/>
<path d="M45.25 42.75L48.75 46.25" stroke="white" stroke-width="2" stroke-linecap="round" stroke-linejoin="round"/>
</svg>
