<svg width="48" height="48" viewBox="0 0 48 48" fill="none" xmlns="http://www.w3.org/2000/svg">
<path d="M19.1667 16.25C18.7909 16.25 18.4306 16.3993 18.1649 16.6649C17.8993 16.9306 17.75 17.2909 17.75 17.6667C17.75 18.0424 17.8993 18.4027 18.1649 18.6684C18.4306 18.9341 18.7909 19.0833 19.1667 19.0833C19.5424 19.0833 19.9027 18.9341 20.1684 18.6684C20.4341 18.4027 20.5833 18.0424 20.5833 17.6667C20.5833 17.2909 20.4341 16.9306 20.1684 16.6649C19.9027 16.3993 19.5424 16.25 19.1667 16.25ZM17.8333 20.25C17.8112 20.25 17.79 20.2588 17.7744 20.2744C17.7588 20.29 17.75 20.3112 17.75 20.3333V29C17.75 29.046 17.7873 29.0833 17.8333 29.0833H20.5C20.5221 29.0833 20.5433 29.0746 20.5589 29.0589C20.5746 29.0433 20.5833 29.0221 20.5833 29V20.3333C20.5833 20.3112 20.5746 20.29 20.5589 20.2744C20.5433 20.2588 20.5221 20.25 20.5 20.25H17.8333ZM22.1667 20.25C22.1446 20.25 22.1234 20.2588 22.1077 20.2744C22.0921 20.29 22.0833 20.3112 22.0833 20.3333V29C22.0833 29.046 22.1207 29.0833 22.1667 29.0833H24.8333C24.8554 29.0833 24.8766 29.0746 24.8923 29.0589C24.9079 29.0433 24.9167 29.0221 24.9167 29V24.3333C24.9167 24.0018 25.0484 23.6839 25.2828 23.4494C25.5172 23.215 25.8351 23.0833 26.1667 23.0833C26.4982 23.0833 26.8161 23.215 27.0506 23.4494C27.285 23.6839 27.4167 24.0018 27.4167 24.3333V29C27.4167 29.046 27.454 29.0833 27.5 29.0833H30.1667C30.1888 29.0833 30.21 29.0746 30.2256 29.0589C30.2412 29.0433 30.25 29.0221 30.25 29V23.2533C30.25 21.6353 28.8433 20.37 27.2333 20.516C26.7352 20.5613 26.2472 20.6846 25.7873 20.8813L24.9167 21.2547V20.3333C24.9167 20.3112 24.9079 20.29 24.8923 20.2744C24.8766 20.2588 24.8554 20.25 24.8333 20.25H22.1667Z" fill="#0657CF"/>
<path d="M47 24C47 36.7025 36.7025 47 24 47C11.2975 47 1 36.7025 1 24C1 11.2975 11.2975 1 24 1C36.7025 1 47 11.2975 47 24Z" stroke="#0657CF" stroke-width="2"/>
</svg>
