<svg width="73" height="73" viewBox="0 0 73 73" fill="none" xmlns="http://www.w3.org/2000/svg">
<path d="M27.0889 25.9172H27.0478C26.6128 25.9443 26.1769 25.8814 25.7674 25.7324C25.3578 25.5833 24.9834 25.3513 24.6677 25.0508C24.352 24.7504 24.1016 24.388 23.9324 23.9863C23.7632 23.5847 23.6788 23.1524 23.6843 22.7166C23.6899 22.2808 23.7854 21.8508 23.9648 21.4536C24.1443 21.0564 24.4038 20.7005 24.7271 20.4083C25.0504 20.116 25.4306 19.8936 25.8438 19.7551C26.257 19.6165 26.6944 19.5648 27.1286 19.6031C27.5636 19.5727 28.0002 19.6325 28.411 19.7787C28.8218 19.9249 29.198 20.1544 29.516 20.4528C29.8339 20.7512 30.0868 21.1121 30.2588 21.5128C30.4308 21.9135 30.5182 22.3455 30.5154 22.7815C30.5127 23.2176 30.4199 23.6484 30.2429 24.0469C30.0659 24.4454 29.8085 24.8031 29.4868 25.0974C29.1651 25.3918 28.7861 25.6166 28.3734 25.7576C27.9608 25.8987 27.5235 25.953 27.0889 25.9172ZM24.2754 30.1672H29.9421V47.1672H24.2754V30.1672ZM44.8171 30.1672C43.8622 30.1697 42.9203 30.3881 42.0617 30.8058C41.2031 31.2236 40.4501 31.83 39.8588 32.5797V30.1672H34.1921V47.1672H39.8588V39.3755C39.8588 38.624 40.1573 37.9034 40.6886 37.372C41.22 36.8407 41.9406 36.5422 42.6921 36.5422C43.4435 36.5422 44.1642 36.8407 44.6956 37.372C45.2269 37.9034 45.5254 38.624 45.5254 39.3755V47.1672H51.1921V36.5422C51.1921 34.8514 50.5204 33.2299 49.3249 32.0344C48.1293 30.8388 46.5078 30.1672 44.8171 30.1672Z" fill="#2457F5"/>
<circle cx="36.5" cy="36.5" r="36" stroke="#3672F8"/>
</svg>
