<svg width="60" height="59" viewBox="0 0 60 59" fill="none" xmlns="http://www.w3.org/2000/svg">
<circle cx="29.7693" cy="29.4844" r="29.4786" fill="#55CEE1"/>
<g clip-path="url(#clip0_115_204)">
<path d="M29.7688 13.9521C23.4634 13.9521 18.333 19.0826 18.333 25.3886C18.333 27.0335 18.6696 28.604 19.3331 30.0568C22.1924 36.3136 27.6744 42.9194 29.2869 44.7948C29.4077 44.935 29.5838 45.0157 29.7691 45.0157C29.9545 45.0157 30.1306 44.935 30.2514 44.7948C31.8632 42.9197 37.3452 36.3142 40.2055 30.0568C40.8693 28.604 41.2056 27.0335 41.2056 25.3886C41.205 19.0826 36.0746 13.9521 29.7688 13.9521ZM29.7688 31.3288C26.4934 31.3288 23.8284 28.6637 23.8284 25.3883C23.8284 22.1126 26.4934 19.4475 29.7688 19.4475C33.0442 19.4475 35.7093 22.1126 35.7093 25.3883C35.7096 28.6637 33.0446 31.3288 29.7688 31.3288Z" fill="white"/>
</g>
<defs>
<clipPath id="clip0_115_204">
<rect width="31.0639" height="31.0639" fill="white" transform="translate(14.2374 13.9521)"/>
</clipPath>
</defs>
</svg>
