<svg width="60" height="59" viewBox="0 0 60 59" fill="none" xmlns="http://www.w3.org/2000/svg">
<circle cx="29.7693" cy="29.4776" r="29.4786" fill="#FE6D34"/>
<g clip-path="url(#clip0_115_205)">
<path d="M29.7688 13.9453C23.4634 13.9453 18.333 19.0757 18.333 25.3818C18.333 27.0267 18.6696 28.5971 19.3331 30.05C22.1924 36.3068 27.6744 42.9126 29.2869 44.7879C29.4077 44.9281 29.5838 45.0089 29.7691 45.0089C29.9545 45.0089 30.1306 44.9281 30.2514 44.7879C31.8632 42.9129 37.3452 36.3074 40.2055 30.05C40.8693 28.5971 41.2056 27.0267 41.2056 25.3818C41.205 19.0757 36.0746 13.9453 29.7688 13.9453ZM29.7688 31.3219C26.4934 31.3219 23.8284 28.6569 23.8284 25.3815C23.8284 22.1057 26.4934 19.4407 29.7688 19.4407C33.0442 19.4407 35.7093 22.1057 35.7093 25.3815C35.7096 28.6569 33.0446 31.3219 29.7688 31.3219Z" fill="white"/>
</g>
<defs>
<clipPath id="clip0_115_205">
<rect width="31.0639" height="31.0639" fill="white" transform="translate(14.2374 13.9453)"/>
</clipPath>
</defs>
</svg>
