<svg width="169" height="34" viewBox="0 0 169 34" fill="none" xmlns="http://www.w3.org/2000/svg">
<path d="M8.14761 25.791L8.10437 25.8126C8.21245 25.4677 8.32054 25.1444 8.45024 24.8211C8.47185 24.778 8.47186 24.7349 8.51509 24.6917L8.55832 24.7349C8.57994 24.778 8.62317 24.7995 8.6664 24.8426L8.14761 25.791Z" fill="url(#paint0_linear_2_18)"/>
<path d="M8.62318 31.891C8.53672 31.7401 8.45025 31.6108 8.3854 31.4599C8.32055 31.3521 8.27731 31.2228 8.23408 31.115C8.16923 30.921 8.08277 30.7486 8.03953 30.5546C8.01792 30.4684 7.9963 30.4037 7.97469 30.3175C7.90984 30.1235 7.8666 29.908 7.82337 29.714C7.80175 29.5846 7.78014 29.4338 7.75852 29.3044C7.75852 29.2613 7.7369 29.1967 7.7369 29.1535V29.0889C7.7369 29.0458 7.71528 29.0027 7.71528 28.9596C7.69367 28.7871 7.69367 28.6147 7.69367 28.4422C7.69367 28.4422 7.69367 28.4422 7.69367 28.4207V28.3991C7.69367 28.1836 7.69367 27.9465 7.71528 27.7309C7.71528 27.6878 7.71528 27.6447 7.7369 27.6016C7.7369 27.5154 7.75852 27.4076 7.75852 27.3214C7.75852 27.2567 7.78013 27.2136 7.78013 27.149C7.78013 27.1274 7.78013 27.0843 7.80175 27.0627C7.8666 26.6963 7.93145 26.3299 8.03953 25.985C8.03953 25.9419 8.06115 25.8988 8.06115 25.8557C8.16923 25.5108 8.27732 25.1875 8.40702 24.8642C8.42863 24.8211 8.42863 24.778 8.47186 24.7348C8.47186 24.7348 8.45025 24.7133 8.45025 24.6917C8.45025 24.6917 8.45025 24.6917 8.45025 24.6702C8.42863 24.6271 8.3854 24.584 8.3854 24.5409C8.36378 24.4977 8.34216 24.4546 8.32055 24.39C8.29893 24.3253 8.29893 24.2606 8.29893 24.196C8.29893 24.1529 8.29893 24.1313 8.29893 24.0882L9.50946 21.6094C9.46623 21.5448 9.42299 21.4585 9.40138 21.3939C9.07713 20.8335 8.70965 20.2515 8.27732 19.7126C8.23408 19.6911 8.23408 19.6695 8.21246 19.648C8.21246 19.6264 8.21247 19.6264 8.19085 19.6048C8.16923 19.5833 8.14761 19.5402 8.10438 19.5186C7.69366 19.0013 7.2181 18.5056 6.76415 18.0529C6.74254 18.0529 6.74253 18.0529 6.74253 18.0529C6.37505 17.6865 5.98595 17.3632 5.57524 17.0614C5.33746 16.8674 5.09967 16.695 4.84027 16.5225C4.77542 16.4794 4.68896 16.4148 4.62411 16.3716C4.23501 16.113 3.84591 15.8759 3.43519 15.6603C3.06771 15.4664 2.67861 15.2724 2.28951 15.1215L2.1382 15.0568C2.07335 15.0353 1.98688 15.0137 1.90041 14.9706C1.8788 14.9706 1.83556 14.949 1.79233 14.9275C1.8788 15.1861 1.96526 15.4664 2.05172 15.7466C2.31112 16.6519 2.44082 17.1476 2.48406 17.8374C2.59214 19.1306 1.44646 22.3854 1.33838 22.7303C1.29514 22.838 1.18706 23.1398 1.07898 23.5493C0.970893 23.9804 0.884431 24.3684 0.841198 24.6055C0.646649 25.7264 0.884431 27.1274 0.949281 27.4507C1.18706 28.8733 1.64101 30.0157 1.96526 30.7486C2.65699 32.2574 3.19741 33.4645 4.29986 33.7447C4.68896 33.8525 5.05644 33.8093 5.44554 33.7662C5.44554 33.7662 6.48314 33.6369 7.52073 33.0549C7.54235 33.0334 7.71528 32.9472 7.93145 32.8178C8.01792 32.7532 8.14762 32.7101 8.27732 32.6238C8.3854 32.5592 8.47186 32.5161 8.53671 32.473C8.57995 32.473 8.83934 32.4299 8.86096 32.3436C8.83934 32.3221 8.83935 32.3221 8.81773 32.3005C8.73127 32.1281 8.66642 31.9988 8.62318 31.891Z" fill="url(#paint1_linear_2_18)"/>
<path d="M10.3525 15.1215L8.32057 10.9614C8.29895 10.7028 8.38542 10.4657 8.53673 10.2932C8.55835 10.2717 8.60159 10.2286 8.6232 10.2286C8.60159 10.1639 8.55835 10.1208 8.53673 10.0561C8.21248 9.3664 7.99632 8.67665 7.845 7.9869C7.65045 7.0816 7.65045 6.17631 7.80177 5.31412C7.95308 4.53816 8.2341 3.8053 8.66643 3.13711C8.68805 3.094 8.73128 3.05089 8.7529 3.00778C8.81775 2.92156 8.86098 2.83534 8.92583 2.74912L7.82339 2.12404L7.1965 1.75761L7.04519 1.69295C5.44556 0.91698 5.16454 0.55055 4.04048 1.54206C3.45683 2.29648 3.11096 2.70601 2.8948 3.00778C2.80833 3.18022 1.83558 4.88303 1.3384 6.32719C1.079 7.08161 0.92768 7.83602 0.884447 8.00845C0.841213 8.24555 0.819598 8.43955 0.797981 8.52577C0.776365 8.82753 0.603434 10.2286 0.9493 11.9314C1.05738 12.5349 1.3384 13.6558 1.3384 13.6558C1.4681 13.9791 1.61941 14.3886 1.79235 14.8844C1.81396 14.9059 1.8572 14.9059 1.90043 14.9275C1.96528 14.9706 2.05175 14.9922 2.13821 15.0137L2.28953 15.0784C2.70024 15.2293 3.06773 15.4232 3.43521 15.6172C3.84593 15.8328 4.23503 16.0699 4.62413 16.3285C4.71059 16.3717 4.77544 16.4363 4.84029 16.4794C5.09969 16.6519 5.33747 16.8243 5.57526 17.0183C5.98597 17.3201 6.37507 17.6434 6.74255 18.0098C6.74255 18.0098 6.74256 18.0098 6.76417 18.0098C7.21812 18.4625 7.69368 18.9582 8.1044 19.4755C8.14763 19.4971 8.16925 19.5402 8.19087 19.5617C8.21249 19.5617 8.21248 19.5833 8.21248 19.6048C8.2341 19.6264 8.2341 19.648 8.27734 19.6695C8.70967 20.2084 9.07715 20.7904 9.4014 21.3508C9.44463 21.437 9.48786 21.5017 9.50948 21.5663L10.3093 19.9282L10.3309 19.8851C11.0875 18.3978 11.0875 16.6303 10.3525 15.1215Z" fill="url(#paint2_linear_2_18)"/>
<path d="M30.5424 17.514C30.5424 18.8504 29.8723 20.1868 28.5537 20.9628L28.1646 21.1999L26.1543 22.3423L19.345 26.2652L8.88258 32.279C8.86096 32.2574 8.83935 32.2359 8.81773 32.2143C8.75288 32.1065 8.66642 31.9988 8.62318 31.891C8.53672 31.7401 8.45025 31.6108 8.3854 31.4599C8.32055 31.3521 8.27731 31.2228 8.23408 31.115C8.16923 30.921 8.08277 30.7486 8.03953 30.5546C8.01792 30.4684 7.9963 30.4037 7.97468 30.3175C7.90983 30.1235 7.8666 29.908 7.82337 29.714C7.80175 29.5846 7.78014 29.4338 7.75852 29.3044C7.75852 29.2613 7.7369 29.1967 7.7369 29.1536V29.0889C7.7369 29.0458 7.71528 29.0027 7.71528 28.9596C7.69367 28.7871 7.69366 28.6147 7.69366 28.4422C7.69366 28.4422 7.69366 28.4422 7.69366 28.4207V28.3991C7.69366 28.1836 7.69367 27.9465 7.71528 27.7309C7.71528 27.6878 7.71528 27.6447 7.7369 27.6016C7.7369 27.5154 7.75852 27.4076 7.75852 27.3214C7.75852 27.2567 7.78013 27.2136 7.78013 27.149C7.78013 27.1274 7.78013 27.0843 7.80175 27.0628C7.8666 26.6963 7.93145 26.3299 8.03953 25.985C8.03953 25.9419 8.06115 25.8988 8.06115 25.8557C8.16923 25.5108 8.27732 25.1875 8.40702 24.8642C8.42863 24.8211 8.42863 24.778 8.47186 24.7349L8.5151 24.778C8.53672 24.8211 8.57995 24.8426 8.62318 24.8857C8.88258 25.1013 9.27168 25.1659 9.63916 24.972L19.3883 19.3677L19.7557 19.1522L20.815 18.5487L21.1608 18.3547C21.1824 18.3547 21.1824 18.3331 21.1824 18.3331C21.2689 18.29 21.3338 18.2254 21.377 18.1607C21.3986 18.1391 21.4418 18.1391 21.4635 18.1176C21.4851 18.1176 21.4851 18.1176 21.5067 18.096C21.5283 18.0745 21.5715 18.0745 21.6148 18.0314C22.0039 17.8374 22.393 17.6218 22.7605 17.4063C23.0847 17.2123 23.3873 16.9967 23.69 16.8027C23.9926 16.5872 24.2952 16.3717 24.5763 16.1346C24.8789 15.8975 25.1599 15.6388 25.4409 15.3586C26.0894 14.7335 26.6731 14.0438 27.1702 13.354L27.6242 13.6127L27.7971 13.7204L28.3375 14.0222L28.3808 14.0438L28.4889 14.1084C28.5537 14.1515 28.6402 14.1946 28.6834 14.2593C29.9372 14.9706 30.5424 16.2208 30.5424 17.514Z" fill="url(#paint3_linear_2_18)"/>
<path d="M27.2135 13.2894C26.7163 14.0007 26.1326 14.6689 25.4841 15.2939C25.2031 15.5526 24.9221 15.8113 24.6195 16.0699C24.3385 16.307 24.0358 16.5226 23.7332 16.7381C23.4306 16.9536 23.1279 17.1692 22.8037 17.3416C22.4362 17.5787 22.0471 17.7727 21.658 17.9667C21.5932 17.9883 21.5499 17.9883 21.4851 18.0098C21.5932 17.8374 21.658 17.665 21.658 17.471C21.658 17.1907 21.5067 16.9105 21.2473 16.7597C21.2257 16.7381 21.2257 16.7381 21.2041 16.7381L9.70401 10.1208C9.66078 10.0993 9.61755 10.0777 9.59593 10.0562H9.57431C9.53108 10.0346 9.48784 10.0346 9.44461 10.0131C9.31491 9.9915 9.18521 9.9915 9.07713 10.0131C9.05551 10.0131 9.01228 10.0346 8.99066 10.0346C8.90419 10.0562 8.79611 10.0993 8.73126 10.1639C8.70965 10.1855 8.68803 10.207 8.66641 10.2286C8.64479 10.1639 8.60156 10.1208 8.57995 10.0562C8.2557 9.36642 8.03953 8.67667 7.88821 7.98692C7.69366 7.08163 7.69367 6.17633 7.84498 5.31415C7.9963 4.53818 8.27731 3.80532 8.70965 3.13713C8.73126 3.09402 8.7745 3.05091 8.79611 3.0078C8.86096 2.92158 8.90419 2.83536 8.96904 2.74915L12.2332 4.6244L12.4709 4.75373L12.6655 4.8615L13.8328 5.55125L19.3666 8.74133L21.8742 10.207L27.2135 13.2894Z" fill="url(#paint4_linear_2_18)"/>
<path d="M21.2256 16.7596L21.1824 16.7381L9.66074 10.0992L9.57428 10.0346C9.5959 10.0561 9.63913 10.0561 9.68236 10.0992L21.1824 16.7165C21.204 16.7381 21.204 16.7381 21.2256 16.7596Z" fill="#1B1464"/>
<path d="M52.0767 18.5621H45.0946V22.7221H53.3305V24.7698H42.868V10.6084H53.3089V12.6561H45.0946V16.5575H52.0767V18.5621Z" fill="#1B1464"/>
<path d="M57.1566 24.7483H54.6707L58.9076 19.3165L54.8436 14.0572H57.3944L60.4424 18.2172H60.464L63.5119 14.0572H65.9762L61.8907 19.3165L66.1491 24.7483H63.5984L60.3775 20.3942H60.3343L57.1566 24.7483Z" fill="#1B1464"/>
<path d="M67.5758 29.3178V19.4889C67.5758 17.7645 68.0946 16.385 69.1538 15.3504C70.213 14.2942 71.5965 13.7769 73.3042 13.7769C74.9903 13.7769 76.3954 14.3158 77.4546 15.372C78.5354 16.4281 79.0759 17.7861 79.0759 19.4242C79.0759 21.1486 78.5354 22.5281 77.4762 23.5412C76.417 24.5542 75.1416 25.05 73.6717 25.05C72.7854 25.05 71.9856 24.856 71.2723 24.4896C70.5805 24.1016 70.0401 23.6058 69.6726 22.9592H69.6294V29.3394H67.5758V29.3178ZM73.3042 15.6737C72.2234 15.6737 71.3371 16.0186 70.6454 16.7299C69.9753 17.4197 69.6294 18.3249 69.6294 19.4027C69.6294 20.4804 69.9753 21.3857 70.6454 22.0754C71.3155 22.7652 72.2018 23.1316 73.3042 23.1316C74.4067 23.1316 75.2929 22.7868 75.9847 22.097C76.6548 21.4073 77.0007 20.502 77.0007 19.4027C77.0007 18.3034 76.6548 17.4197 75.9847 16.7083C75.2929 16.0186 74.4067 15.6737 73.3042 15.6737Z" fill="#1B1464"/>
<path d="M91.8513 19.4889V24.7482H89.9707V22.5066H89.9274C89.5816 23.2825 89.0628 23.886 88.3278 24.3387C87.5928 24.7913 86.7498 25.0284 85.777 25.0284C84.3071 25.0284 83.0317 24.5327 81.9509 23.5196C80.8701 22.5066 80.3513 21.1271 80.3513 19.4027C80.3513 17.7645 80.8917 16.4281 81.9725 15.3504C83.0533 14.2942 84.4368 13.7554 86.1229 13.7554C87.809 13.7554 89.1925 14.2727 90.2517 15.3289C91.3325 16.4066 91.8513 17.7861 91.8513 19.4889ZM83.4424 22.097C84.1126 22.7868 85.0204 23.1316 86.1229 23.1316C87.2253 23.1316 88.1116 22.7868 88.8034 22.097C89.4735 21.4073 89.8193 20.502 89.8193 19.4027C89.8193 18.3034 89.4735 17.4197 88.8034 16.7084C88.1332 16.0186 87.2253 15.6737 86.1229 15.6737C85.0204 15.6737 84.1342 16.0186 83.4424 16.7084C82.7507 17.3981 82.4265 18.3034 82.4265 19.4027C82.4265 20.502 82.7723 21.4073 83.4424 22.097Z" fill="#1B1464"/>
<path d="M104.584 24.7482H102.53V19.1871C102.53 18.0447 102.249 17.1825 101.665 16.579C101.082 15.9755 100.303 15.6737 99.3091 15.6737C98.3147 15.6737 97.5149 15.9755 96.9312 16.579C96.3476 17.1825 96.0666 18.0447 96.0666 19.1871V24.7482H94.013V19.1871C94.013 17.4412 94.4886 16.1048 95.4397 15.178C96.3908 14.2511 97.6878 13.7769 99.3091 13.7769C100.93 13.7769 102.227 14.2511 103.178 15.1564C104.13 16.0833 104.605 17.4197 104.605 19.1871V24.7482H104.584Z" fill="#1B1464"/>
<path d="M117.791 9.37977V19.3165C117.791 21.0408 117.273 22.4203 116.213 23.4549C115.154 24.5111 113.771 25.0284 112.063 25.0284C110.377 25.0284 108.972 24.5111 107.913 23.4334C106.832 22.3772 106.291 21.0193 106.291 19.4027C106.291 17.6783 106.832 16.2988 107.891 15.2857C108.95 14.2727 110.225 13.7769 111.695 13.7769C112.603 13.7769 113.382 13.9709 114.095 14.3373C114.787 14.7038 115.327 15.2211 115.694 15.8677H115.738V9.35822H117.791V9.37977ZM112.063 23.1316C113.144 23.1316 114.03 22.7868 114.722 22.0754C115.392 21.3857 115.738 20.4804 115.738 19.4027C115.738 18.3249 115.392 17.4197 114.722 16.7299C114.03 16.0186 113.165 15.6737 112.063 15.6737C110.96 15.6737 110.074 16.0186 109.382 16.7083C108.691 17.3981 108.366 18.3034 108.366 19.4027C108.366 20.502 108.712 21.3857 109.382 22.097C110.053 22.8083 110.96 23.1316 112.063 23.1316Z" fill="#1B1464"/>
<path d="M138.695 15.2211H136.338C135.949 14.2511 135.322 13.4536 134.458 12.8932C133.593 12.3112 132.577 12.031 131.41 12.031C129.853 12.031 128.578 12.5268 127.584 13.5398C126.589 14.5313 126.092 15.8031 126.092 17.355C126.092 18.9069 126.589 20.1787 127.584 21.1702C128.578 22.1617 129.853 22.679 131.41 22.679C132.577 22.679 133.571 22.3772 134.458 21.8168C135.322 21.2348 135.949 20.4589 136.338 19.4889H138.695C138.262 21.0624 137.398 22.3341 136.079 23.2825C134.76 24.2309 133.204 24.7267 131.41 24.7267C129.205 24.7267 127.389 24.0369 125.984 22.6574C124.557 21.2779 123.844 19.5105 123.844 17.3766C123.844 15.2427 124.557 13.4752 125.984 12.0957C127.411 10.7162 129.205 10.0264 131.41 10.0264C133.204 10.0264 134.76 10.5006 136.079 11.4706C137.398 12.3759 138.262 13.6476 138.695 15.2211Z" fill="#1B1464"/>
<path d="M144.12 24.5973H141.915V10.4359H147.86C149.589 10.4359 150.865 10.867 151.729 11.7077C152.594 12.5483 153.026 13.6691 153.026 15.0917C153.026 16.5144 152.594 17.6352 151.729 18.4974C150.865 19.3596 149.568 19.7907 147.86 19.7907H144.12V24.5973ZM144.12 17.7214H147.903C149.827 17.7214 150.8 16.8377 150.8 15.0702C150.8 13.3243 149.827 12.4621 147.903 12.4621H144.12V17.7214Z" fill="#1B1464"/>
<path d="M168.569 24.7266H166.364V20.2433H158.366V24.7266H156.226V16.385C156.226 14.4882 156.766 13.0009 157.825 11.9232C158.884 10.8239 160.398 10.285 162.386 10.285C164.375 10.285 165.91 10.8239 166.991 11.9232C168.072 13.0009 168.612 14.5097 168.612 16.385V24.7266H168.569ZM166.342 18.2171V16.4066C166.342 15.1133 165.996 14.1002 165.326 13.3889C164.656 12.6776 163.662 12.3327 162.343 12.3327C161.046 12.3327 160.052 12.6776 159.36 13.3889C158.69 14.1002 158.344 15.0917 158.344 16.4066V18.2171H166.342Z" fill="#1B1464"/>
<defs>
<linearGradient id="paint0_linear_2_18" x1="8.10292" y1="25.2518" x2="8.65207" y2="25.2518" gradientUnits="userSpaceOnUse">
<stop stop-color="#3A7BD5"/>
<stop offset="1" stop-color="#1B1464"/>
</linearGradient>
<linearGradient id="paint1_linear_2_18" x1="5.45844" y1="31.8286" x2="4.98295" y2="17.9085" gradientUnits="userSpaceOnUse">
<stop stop-color="#4364F7"/>
<stop offset="1" stop-color="#1B1464"/>
</linearGradient>
<linearGradient id="paint2_linear_2_18" x1="5.1158" y1="2.3764" x2="6.20658" y2="19.6" gradientUnits="userSpaceOnUse">
<stop offset="0.00686036" stop-color="#4364F7"/>
<stop offset="1" stop-color="#1B1464"/>
</linearGradient>
<linearGradient id="paint3_linear_2_18" x1="29.5534" y1="17.3429" x2="10.5711" y2="26.3799" gradientUnits="userSpaceOnUse">
<stop stop-color="#4364F7"/>
<stop offset="1" stop-color="#1B1464"/>
</linearGradient>
<linearGradient id="paint4_linear_2_18" x1="7.8321" y1="7.26995" x2="25.7632" y2="14.9075" gradientUnits="userSpaceOnUse">
<stop stop-color="#4364F7"/>
<stop offset="1" stop-color="#1B1464"/>
</linearGradient>
</defs>
</svg>
