<svg width="73" height="73" viewBox="0 0 73 73" fill="none" xmlns="http://www.w3.org/2000/svg">
<circle cx="36.5" cy="36.5" r="36" stroke="#1B1464"/>
<path d="M26.3123 24.333H47.6873C49.0017 24.3329 50.2663 24.8358 51.2217 25.7385C52.1771 26.6412 52.7508 27.8752 52.8253 29.1875L52.8332 29.4788V44.5205C52.8333 45.8349 52.3304 47.0995 51.4277 48.0549C50.525 49.0103 49.2909 49.584 47.9787 49.6584L47.6873 49.6663H26.3123C24.998 49.6664 23.7334 49.1635 22.778 48.2609C21.8226 47.3582 21.2488 46.1241 21.1744 44.8118L21.1665 44.5205V29.4788C21.1664 28.1645 21.6693 26.8999 22.572 25.9445C23.4747 24.9891 24.7087 24.4153 26.021 24.3409L26.3123 24.333H47.6873H26.3123ZM50.4582 32.8403L37.554 39.6328C37.4083 39.7097 37.2482 39.7555 37.0838 39.7673C36.9194 39.779 36.7544 39.7564 36.5993 39.7008L36.4473 39.6343L23.5415 32.8418V44.5205C23.5415 45.2159 23.803 45.8858 24.2741 46.3974C24.7451 46.9089 25.3913 47.2246 26.0843 47.2818L26.3123 47.2913H47.6873C48.383 47.2913 49.0531 47.0296 49.5647 46.5582C50.0763 46.0868 50.3918 45.4402 50.4487 44.7469L50.4582 44.5205V32.8403ZM47.6873 26.708H26.3123C25.617 26.708 24.947 26.9695 24.4355 27.4406C23.9239 27.9116 23.6082 28.5578 23.551 29.2508L23.5415 29.4788V30.1581L36.9998 37.2403L50.4582 30.1565V29.4788C50.4581 28.7832 50.1964 28.113 49.725 27.6015C49.2536 27.0899 48.6071 26.7744 47.9138 26.7175L47.6873 26.708Z" fill="#1B1464"/>
</svg>
