<svg width="51" height="50" viewBox="0 0 51 50" fill="none" xmlns="http://www.w3.org/2000/svg">
<circle cx="25.6532" cy="25.0811" r="24.8788" fill="#8306CF"/>
<g clip-path="url(#clip0_25_177)">
<path d="M32.2 31.9203V14.4203C32.2 14.3098 32.1544 14.2038 32.0731 14.1257C31.9918 14.0476 31.8816 14.0037 31.7667 14.0037H20.9333V16.087H21.8V15.2537C21.8 15.1432 21.8457 15.0372 21.9269 14.959C22.0082 14.8809 22.1184 14.837 22.2333 14.837C22.3483 14.837 22.4585 14.8809 22.5398 14.959C22.621 15.0372 22.6667 15.1432 22.6667 15.2537V16.087C22.6667 16.308 22.5754 16.52 22.4128 16.6763C22.2503 16.8325 22.0299 16.9203 21.8 16.9203H20.9333C20.7035 16.9203 20.483 16.8325 20.3205 16.6763C20.158 16.52 20.0667 16.308 20.0667 16.087V14.0037H17.9C17.7851 14.0037 17.6749 14.0476 17.5936 14.1257C17.5123 14.2038 17.4667 14.3098 17.4667 14.4203V31.9203C17.4667 32.0308 17.5123 32.1368 17.5936 32.215C17.6749 32.2931 17.7851 32.337 17.9 32.337H31.7667C31.8816 32.337 31.9918 32.2931 32.0731 32.215C32.1544 32.1368 32.2 32.0308 32.2 31.9203ZM29.6 28.1703H20.0667C19.9517 28.1703 19.8415 28.1264 19.7603 28.0483C19.679 27.9702 19.6333 27.8642 19.6333 27.7537C19.6333 27.6432 19.679 27.5372 19.7603 27.459C19.8415 27.3809 19.9517 27.337 20.0667 27.337H29.6C29.7149 27.337 29.8252 27.3809 29.9064 27.459C29.9877 27.5372 30.0333 27.6432 30.0333 27.7537C30.0333 27.8642 29.9877 27.9702 29.9064 28.0483C29.8252 28.1264 29.7149 28.1703 29.6 28.1703ZM29.6 26.087H20.0667C19.9517 26.087 19.8415 26.0431 19.7603 25.965C19.679 25.8868 19.6333 25.7808 19.6333 25.6703C19.6333 25.5598 19.679 25.4538 19.7603 25.3757C19.8415 25.2976 19.9517 25.2537 20.0667 25.2537H29.6C29.7149 25.2537 29.8252 25.2976 29.9064 25.3757C29.9877 25.4538 30.0333 25.5598 30.0333 25.6703C30.0333 25.7808 29.9877 25.8868 29.9064 25.965C29.8252 26.0431 29.7149 26.087 29.6 26.087ZM29.6 24.0037H20.0667C19.9517 24.0037 19.8415 23.9598 19.7603 23.8816C19.679 23.8035 19.6333 23.6975 19.6333 23.587C19.6333 23.4765 19.679 23.3705 19.7603 23.2924C19.8415 23.2142 19.9517 23.1703 20.0667 23.1703H29.6C29.7149 23.1703 29.8252 23.2142 29.9064 23.2924C29.9877 23.3705 30.0333 23.4765 30.0333 23.587C30.0333 23.6975 29.9877 23.8035 29.9064 23.8816C29.8252 23.9598 29.7149 24.0037 29.6 24.0037ZM29.6 21.9203H20.0667C19.9517 21.9203 19.8415 21.8764 19.7603 21.7983C19.679 21.7202 19.6333 21.6142 19.6333 21.5037C19.6333 21.3932 19.679 21.2872 19.7603 21.209C19.8415 21.1309 19.9517 21.087 20.0667 21.087H29.6C29.7149 21.087 29.8252 21.1309 29.9064 21.209C29.9877 21.2872 30.0333 21.3932 30.0333 21.5037C30.0333 21.6142 29.9877 21.7202 29.9064 21.7983C29.8252 21.8764 29.7149 21.9203 29.6 21.9203ZM29.6 19.837H20.0667C19.9517 19.837 19.8415 19.7931 19.7603 19.715C19.679 19.6368 19.6333 19.5308 19.6333 19.4203C19.6333 19.3098 19.679 19.2038 19.7603 19.1257C19.8415 19.0476 19.9517 19.0037 20.0667 19.0037H29.6C29.7149 19.0037 29.8252 19.0476 29.9064 19.1257C29.9877 19.2038 30.0333 19.3098 30.0333 19.4203C30.0333 19.5308 29.9877 19.6368 29.9064 19.715C29.8252 19.7931 29.7149 19.837 29.6 19.837Z" fill="white"/>
<path d="M33.9333 33.587V16.087C33.9333 15.9765 33.8877 15.8705 33.8064 15.7924C33.7252 15.7142 33.6149 15.6703 33.5 15.6703H33.0667V31.9203C33.0667 32.2519 32.9297 32.5698 32.6859 32.8042C32.4421 33.0387 32.1115 33.1703 31.7667 33.1703H19.2V33.587C19.2 33.6975 19.2457 33.8035 19.3269 33.8816C19.4082 33.9598 19.5184 34.0037 19.6333 34.0037H33.5C33.6149 34.0037 33.7252 33.9598 33.8064 33.8816C33.8877 33.8035 33.9333 33.6975 33.9333 33.587Z" fill="white"/>
<path d="M35.2333 17.337H34.8V33.587C34.8 33.9185 34.663 34.2364 34.4192 34.4709C34.1754 34.7053 33.8448 34.837 33.5 34.837H20.9333V35.2536C20.9333 35.3641 20.979 35.4701 21.0602 35.5483C21.1415 35.6264 21.2517 35.6703 21.3667 35.6703H35.2333C35.3482 35.6703 35.4585 35.6264 35.5397 35.5483C35.621 35.4701 35.6667 35.3641 35.6667 35.2536V17.7536C35.6667 17.6431 35.621 17.5372 35.5397 17.459C35.4585 17.3809 35.3482 17.337 35.2333 17.337Z" fill="white"/>
<path d="M23.9667 12.337V13.1703H23.1V12.337H20.9333V13.1703H20.0667V12.337C20.0674 12.1162 20.1589 11.9046 20.3213 11.7485C20.4837 11.5923 20.7037 11.5043 20.9333 11.5037H23.1C23.3297 11.5043 23.5497 11.5923 23.7121 11.7485C23.8745 11.9046 23.966 12.1162 23.9667 12.337Z" fill="white"/>
</g>
<defs>
<clipPath id="clip0_25_177">
<rect width="26" height="25" fill="white" transform="translate(14 11.5037)"/>
</clipPath>
</defs>
</svg>
