<svg width="73" height="73" viewBox="0 0 73 73" fill="none" xmlns="http://www.w3.org/2000/svg">
<circle cx="36.5" cy="36.5" r="36" stroke="#2457F5"/>
<path d="M33.6415 28.8672L29.2689 23.3183C28.7648 22.6788 27.8406 22.6817 27.2551 23.3268L23.6593 27.2871C22.5891 28.4651 22.2828 30.2143 22.9019 31.6169C26.6006 40.0362 32.7768 46.8358 40.4298 50.9139C41.7042 51.5946 43.294 51.2578 44.3642 50.0798L47.9936 46.0825C48.5817 45.436 48.5829 44.4143 47.9961 43.8601L42.9295 39.0785C42.3995 38.5783 41.5762 38.6437 41.045 39.2291L39.282 41.1702C39.1917 41.2742 39.0729 41.3427 38.9438 41.3653C38.8147 41.3879 38.6824 41.3633 38.5672 41.2952C35.6855 39.4708 33.295 36.8393 31.6393 33.6688C31.5773 33.542 31.5549 33.3963 31.5754 33.2541C31.596 33.1119 31.6584 32.981 31.7531 32.8815L33.5109 30.9476C34.0434 30.3593 34.1016 29.4499 33.6415 28.8658V28.8672Z" stroke="#2457F5" stroke-width="2.5" stroke-linecap="round" stroke-linejoin="round"/>
</svg>
