<svg width="58" height="58" viewBox="0 0 58 58" fill="none" xmlns="http://www.w3.org/2000/svg">
<circle cx="29.2086" cy="29.0551" r="28.6534" fill="#0657CF"/>
<g clip-path="url(#clip0_47_704)">
<path d="M42.5879 26.144C42.4233 25.6378 41.9743 25.2794 41.4452 25.2315L34.2285 24.5764L31.3764 17.899C31.1658 17.4084 30.6867 17.0918 30.1534 17.0918C29.6201 17.0918 29.1407 17.4084 28.9315 17.899L26.0794 24.5764L18.8615 25.2315C18.3324 25.2804 17.8843 25.6388 17.7188 26.144C17.5542 26.6503 17.7062 27.2055 18.1063 27.5564L23.5616 32.34L21.9531 39.4244C21.8355 39.9453 22.0376 40.4839 22.4699 40.7963C22.7022 40.9651 22.9751 41.0494 23.249 41.0494C23.4844 41.0494 23.72 40.9869 23.9303 40.861L30.1534 37.1401L36.3752 40.861C36.8317 41.1338 37.4056 41.1088 37.8369 40.7963C38.2691 40.4839 38.4713 39.9453 38.3536 39.4244L36.7451 32.34L42.2004 27.5564C42.6003 27.2055 42.7526 26.6514 42.5879 26.144Z" fill="white"/>
</g>
<defs>
<clipPath id="clip0_47_704">
<rect width="25" height="25" fill="white" transform="translate(17.6533 16.5552)"/>
</clipPath>
</defs>
</svg>
