<svg width="158" height="169" viewBox="0 0 158 169" fill="none" xmlns="http://www.w3.org/2000/svg">
<g filter="url(#filter0_d_190_2644)">
<path d="M6 74.3605C6 37.3859 35.9738 7.41211 72.9483 7.41211C109.923 7.41211 139.897 37.3859 139.897 74.3605V151.131H77.8596C38.1726 151.131 6 118.959 6 79.2717V74.3605Z" fill="#0657CF"/>
</g>
<path fill-rule="evenodd" clip-rule="evenodd" d="M53.892 53.4745L55.6961 58.2266C55.7504 58.3695 55.8767 58.4612 56.0293 58.4687L61.1062 58.7161C61.4516 58.7329 61.5928 59.1679 61.3234 59.3845L57.3615 62.5688C57.2424 62.6645 57.1942 62.8129 57.2344 62.9604L58.5678 67.8653C58.6587 68.199 58.2886 68.4676 57.9993 68.2784L53.7464 65.4943C53.6186 65.4106 53.4626 65.4106 53.3348 65.4943L49.082 68.2784C48.7926 68.4676 48.4228 68.199 48.5134 67.8653L49.8469 62.9602C49.8869 62.8128 49.8387 62.6644 49.7195 62.5687L45.7577 59.3844C45.4882 59.1678 45.6295 58.7329 45.9749 58.7159L51.0519 58.4685C51.2046 58.4611 51.3308 58.3693 51.385 58.2265L53.1893 53.4744C53.3112 53.153 53.77 53.1534 53.892 53.4745ZM74.9484 104.84C76.0558 104.84 79.9903 108.956 82.2551 108.132C84.52 107.308 84.8878 101.625 85.7365 100.913C86.5848 100.202 92.245 100.826 93.4501 98.7386C94.6552 96.6513 91.2843 92.062 91.4766 90.9709C91.6688 89.8804 96.4064 86.7203 95.9878 84.3469C95.5693 81.9732 90.037 80.6244 89.4831 79.6649C88.9296 78.7059 90.5272 73.2401 88.681 71.6908C86.8346 70.1415 81.7296 72.6642 80.6886 72.2853C79.6481 71.9066 77.3587 66.6925 74.9485 66.6925C72.5383 66.6925 70.2492 71.9066 69.2081 72.2853C68.1676 72.6639 63.0621 70.1414 61.2159 71.6907C59.3695 73.2399 60.9675 78.7054 60.4134 79.6649C59.8597 80.6238 54.3272 81.9731 53.9088 84.3466C53.4902 86.7203 58.2277 89.8799 58.4199 90.9709C58.612 92.0614 55.2413 96.6512 56.4463 98.7383C57.6515 100.826 63.3116 100.201 64.1602 100.913C65.0083 101.625 65.3764 107.308 67.6411 108.132C69.9061 108.956 73.8405 104.84 74.9484 104.84ZM67.8903 89.6285C67.0806 88.8188 67.0806 87.5062 67.8903 86.6964C68.7 85.8867 70.0127 85.8867 70.8223 86.6964L72.6411 88.5153L79.08 82.0193C79.8852 81.2096 81.1944 81.2059 82.0039 82.0112C82.8136 82.8163 82.8172 84.1256 82.012 84.9351C78.0531 88.9334 78.0879 88.9391 74.1104 92.9166C73.3007 93.7263 71.9879 93.7263 71.1782 92.9166L67.8903 89.6285ZM74.9484 74.3966C82.1665 74.3966 88.0186 80.2485 88.0186 87.4668C88.0186 94.685 82.1667 100.537 74.9484 100.537C67.7302 100.537 61.8781 94.685 61.8781 87.4668C61.8781 80.2485 67.7302 74.3966 74.9484 74.3966ZM74.9484 76.9277C80.7691 76.9277 85.4874 81.6459 85.4874 87.4667C85.4874 93.2874 80.7691 98.0057 74.9484 98.0057C69.1276 98.0057 64.4093 93.2874 64.4093 87.4667C64.4093 81.6461 69.1276 76.9277 74.9484 76.9277ZM69.3968 110.654L66.3306 117.24L62.5522 110.737L55.1439 112.032L59.4577 102.766C60.4199 102.907 61.3889 102.975 62.3565 103.062C63.3228 106.626 64.5959 111.665 69.3968 110.654ZM90.4391 102.767L94.7529 112.032L87.3445 110.738L83.566 117.24L80.4999 110.654C85.2991 111.665 86.5749 106.626 87.5399 103.063C88.5094 102.975 89.4747 102.905 90.4391 102.767ZM75.2997 41.5447L77.1039 46.2967C77.1581 46.4395 77.2844 46.5313 77.437 46.5387L82.5139 46.7862C82.8593 46.8029 83.0006 47.238 82.7312 47.4546L78.7693 50.639C78.6502 50.7348 78.6019 50.8831 78.6421 51.0306L79.9756 55.9355C80.0664 56.2692 79.6964 56.5378 79.407 56.3486L75.1542 53.5645C75.0264 53.4808 74.8704 53.4808 74.7425 53.5645L70.4897 56.3486C70.2004 56.5378 69.8305 56.2692 69.9211 55.9355L71.2546 51.0306C71.2947 50.8831 71.2464 50.7348 71.1273 50.639L67.1654 47.4547C66.896 47.2381 67.0373 46.8031 67.3826 46.7863L72.4597 46.5389C72.6123 46.5315 72.7384 46.4397 72.7927 46.2968L74.597 41.5449C74.719 41.2233 75.1778 41.2234 75.2997 41.5447ZM96.7075 53.4745L98.5116 58.2266C98.5659 58.3695 98.6921 58.4612 98.8446 58.4687L103.922 58.7161C104.267 58.7329 104.408 59.1679 104.139 59.3845L100.177 62.5688C100.058 62.6645 100.009 62.8129 100.05 62.9604L101.383 67.8653C101.474 68.199 101.104 68.4676 100.815 68.2784L96.5618 65.4943C96.4339 65.4106 96.2779 65.4106 96.1499 65.4943L91.8971 68.2784C91.6078 68.4676 91.2379 68.199 91.3285 67.8653L92.662 62.9602C92.7021 62.8128 92.6538 62.6644 92.5348 62.5687L88.573 59.3844C88.3035 59.1678 88.4448 58.7329 88.7902 58.7159L93.8672 58.4685C94.0199 58.4611 94.1461 58.3693 94.2003 58.2265L96.0046 53.4744C96.1267 53.153 96.5855 53.1534 96.7075 53.4745Z" fill="white"/>
<defs>
<filter id="filter0_d_190_2644" x="0" y="0.412109" width="157.897" height="167.719" filterUnits="userSpaceOnUse" color-interpolation-filters="sRGB">
<feFlood flood-opacity="0" result="BackgroundImageFix"/>
<feColorMatrix in="SourceAlpha" type="matrix" values="0 0 0 0 0 0 0 0 0 0 0 0 0 0 0 0 0 0 127 0" result="hardAlpha"/>
<feOffset dx="6" dy="5"/>
<feGaussianBlur stdDeviation="6"/>
<feComposite in2="hardAlpha" operator="out"/>
<feColorMatrix type="matrix" values="0 0 0 0 0 0 0 0 0 0 0 0 0 0 0 0 0 0 0.14 0"/>
<feBlend mode="normal" in2="BackgroundImageFix" result="effect1_dropShadow_190_2644"/>
<feBlend mode="normal" in="SourceGraphic" in2="effect1_dropShadow_190_2644" result="shape"/>
</filter>
</defs>
</svg>
