<svg width="73" height="73" viewBox="0 0 73 73" fill="none" xmlns="http://www.w3.org/2000/svg">
<circle cx="36.5" cy="36.5" r="36" stroke="#D93C3C"/>
<path d="M35.5099 37.4722C37.6514 37.4722 39.3874 35.5636 39.3874 33.2093C39.3874 30.8549 37.6514 28.9463 35.5099 28.9463C33.3684 28.9463 31.6323 30.8549 31.6323 33.2093C31.6323 35.5636 33.3684 37.4722 35.5099 37.4722Z" stroke="#D93C3C" stroke-width="2.5" stroke-linecap="round" stroke-linejoin="round"/>
<path d="M35.5101 21.8418C32.7677 21.8418 30.1376 23.0395 28.1985 25.1714C26.2593 27.3033 25.1699 30.1948 25.1699 33.2097C25.1699 35.8982 25.6895 37.6574 27.1087 39.6042L35.5101 50.2616L43.9114 39.6042C45.3306 37.6574 45.8502 35.8982 45.8502 33.2097C45.8502 30.1948 44.7608 27.3033 42.8216 25.1714C40.8825 23.0395 38.2524 21.8418 35.5101 21.8418V21.8418Z" stroke="#D93C3C" stroke-width="2.5" stroke-linecap="round" stroke-linejoin="round"/>
</svg>
