<svg width="51" height="50" viewBox="0 0 51 50" fill="none" xmlns="http://www.w3.org/2000/svg">
<circle cx="25.6604" cy="24.9762" r="24.8788" fill="#FFC834"/>
<g clip-path="url(#clip0_25_211)">
<path fill-rule="evenodd" clip-rule="evenodd" d="M17.114 28.0125C18.0199 28.0125 18.7565 28.7491 18.7565 29.655C18.7565 30.5609 18.0199 31.2976 17.114 31.2976C16.2083 31.2976 15.4715 30.5607 15.4715 29.655C15.4715 28.7494 16.2083 28.0125 17.114 28.0125ZM20.5111 31.9456L19.9691 31.4034L21.9327 29.44L22.4748 29.9822L20.5111 31.9456ZM30.8097 31.9456L31.3519 31.4034L29.3882 29.44L28.8461 29.9822L30.8097 31.9456ZM29.0576 24.6774L28.5155 24.1353L30.4792 22.1719L31.0213 22.714L29.0576 24.6774ZM22.2633 24.6774L22.8054 24.1353L20.8417 22.1719L20.2996 22.714L22.2633 24.6774ZM25.6604 20.7443C26.5664 20.7443 27.303 21.481 27.303 22.3869C27.303 23.2927 26.5664 24.0294 25.6604 24.0294C24.7548 24.0294 24.0179 23.2926 24.0179 22.3869C24.0179 21.4812 24.7548 20.7443 25.6604 20.7443ZM28.614 29.208V25.7125C28.614 25.1412 28.1495 24.6765 27.5782 24.6765H27.1468L27.0929 24.706C26.6544 24.9464 26.1608 25.0723 25.6605 25.0723C25.16 25.0723 24.6668 24.9464 24.2278 24.7059L24.174 24.6765H23.7429C23.1716 24.6765 22.7069 25.1412 22.7069 25.7125V29.208H28.614ZM17.114 13.4762C18.0199 13.4762 18.7565 14.2128 18.7565 15.1187C18.7565 16.0246 18.0199 16.7612 17.114 16.7612C16.2083 16.7612 15.4715 16.0244 15.4715 15.1187C15.4715 14.213 16.2083 13.4762 17.114 13.4762ZM20.0675 21.9398H14.1604V18.4443C14.1604 17.873 14.6252 17.4083 15.1964 17.4083H15.6275L15.6813 17.4378C16.1203 17.6782 16.6136 17.8041 17.114 17.8041C17.6143 17.8041 18.1079 17.6782 18.5465 17.4378L18.6003 17.4083H19.0317C19.6029 17.4083 20.0675 17.8731 20.0675 18.4443L20.0675 21.9398ZM34.2069 13.4762C35.1128 13.4762 35.8494 14.2128 35.8494 15.1187C35.8494 16.0246 35.1128 16.7612 34.2069 16.7612C33.3012 16.7612 32.5643 16.0244 32.5643 15.1187C32.5644 14.213 33.3012 13.4762 34.2069 13.4762ZM37.1604 21.9398H31.2533V18.4443C31.2533 17.873 31.7181 17.4083 32.2893 17.4083H32.7205L32.7743 17.4378C33.2132 17.6782 33.7065 17.8041 34.207 17.8041C34.7072 17.8041 35.2008 17.6782 35.6394 17.4378L35.6932 17.4083H36.1247C36.6959 17.4083 37.1604 17.8731 37.1604 18.4443V21.9398ZM34.2069 28.0125C35.1128 28.0125 35.8494 28.7491 35.8494 29.655C35.8494 30.5609 35.1128 31.2976 34.2069 31.2976C33.3012 31.2976 32.5643 30.5607 32.5643 29.655C32.5644 28.7494 33.3012 28.0125 34.2069 28.0125ZM37.1604 36.4762H31.2533V32.9806C31.2533 32.4094 31.7181 31.9447 32.2893 31.9447H32.7205L32.7743 31.9741C33.2132 32.2145 33.7065 32.3405 34.207 32.3405C34.7072 32.3405 35.2008 32.2146 35.6394 31.9742L35.6932 31.9447H36.1247C36.6959 31.9447 37.1604 32.4094 37.1604 32.9806V36.4762ZM20.0675 36.4762V32.9806C20.0675 32.4094 19.603 31.9447 19.0318 31.9447H18.6003L18.5465 31.9742C18.1079 32.2146 17.6143 32.3405 17.1141 32.3405C16.6136 32.3405 16.1203 32.2145 15.6814 31.9741L15.6276 31.9447H15.1965C14.6252 31.9446 14.1604 32.4094 14.1604 32.9806V36.4762H20.0675Z" fill="white"/>
</g>
<defs>
<clipPath id="clip0_25_211">
<rect width="23" height="23" fill="white" transform="translate(14.1604 13.4762)"/>
</clipPath>
</defs>
</svg>
