<svg width="60" height="59" viewBox="0 0 60 59" fill="none" xmlns="http://www.w3.org/2000/svg">
<circle cx="29.7693" cy="29.4776" r="29.4786" fill="#FFC834"/>
<g clip-path="url(#clip0_115_206)">
<path d="M40.1541 33.1979C38.6526 33.1979 37.1783 32.963 35.7813 32.5014C35.0967 32.2679 34.2552 32.4821 33.8374 32.9112L31.0799 34.9928C27.882 33.2857 25.9121 31.3165 24.2284 28.1426L26.2487 25.457C26.7737 24.9328 26.9619 24.167 26.7364 23.4486C26.2727 22.0442 26.0372 20.5706 26.0372 19.0685C26.0372 17.9834 25.1544 17.1006 24.0694 17.1006H19.5656C18.4805 17.1006 17.5977 17.9834 17.5977 19.0685C17.5977 31.5061 27.7164 41.6247 40.1541 41.6247C41.2391 41.6247 42.1219 40.7419 42.1219 39.6568V35.1657C42.1219 34.0807 41.2391 33.1979 40.1541 33.1979Z" fill="white"/>
</g>
<defs>
<clipPath id="clip0_115_206">
<rect width="24.5241" height="24.5241" fill="white" transform="translate(17.5977 17.1006)"/>
</clipPath>
</defs>
</svg>
