<svg width="49" height="49" viewBox="0 0 49 49" fill="none" xmlns="http://www.w3.org/2000/svg">
<path d="M47.4058 24.5742C47.4058 37.2768 37.1083 47.5742 24.4058 47.5742C11.7032 47.5742 1.40576 37.2768 1.40576 24.5742C1.40576 11.8717 11.7032 1.57422 24.4058 1.57422C37.1083 1.57422 47.4058 11.8717 47.4058 24.5742Z" stroke="#0657CF" stroke-width="2"/>
<path d="M32.4058 20.1137C31.8178 20.375 31.1844 20.5509 30.5204 20.6309C31.1991 20.2244 31.7178 19.5819 31.9644 18.8155C31.3298 19.1914 30.6271 19.4646 29.8791 19.6112C29.2818 18.9728 28.4271 18.5742 27.4844 18.5742C25.3644 18.5742 23.8071 20.5509 24.2858 22.6036C21.5591 22.4664 19.1391 21.1601 17.5204 19.1754C16.6604 20.6496 17.0751 22.5797 18.5364 23.5567C17.9991 23.5394 17.4938 23.3914 17.0511 23.1461C17.0151 24.6657 18.1058 26.0879 19.6844 26.4051C19.2231 26.5304 18.7164 26.5598 18.2018 26.4611C18.6191 27.7647 19.8338 28.7124 21.2684 28.7391C19.8858 29.8214 18.1484 30.3053 16.4058 30.1C17.8591 31.0317 19.5831 31.5742 21.4364 31.5742C27.5324 31.5742 30.9751 26.4278 30.7671 21.8119C31.4098 21.3507 31.9658 20.7722 32.4058 20.1137Z" fill="#0657CF"/>
</svg>
