<svg width="49" height="49" viewBox="0 0 49 49" fill="none" xmlns="http://www.w3.org/2000/svg">
<path d="M47.5372 24.2939C47.5372 36.9965 37.2397 47.2939 24.5372 47.2939C11.8346 47.2939 1.53717 36.9965 1.53717 24.2939C1.53717 11.5914 11.8346 1.29395 24.5372 1.29395C37.2397 1.29395 47.5372 11.5914 47.5372 24.2939Z" stroke="white" stroke-width="2"/>
<path d="M32.5372 19.8335C31.9492 20.0947 31.3158 20.2707 30.6518 20.3506C31.3305 19.9441 31.8492 19.3016 32.0958 18.5352C31.4612 18.9111 30.7585 19.1843 30.0105 19.331C29.4132 18.6925 28.5585 18.2939 27.6158 18.2939C25.4958 18.2939 23.9385 20.2707 24.4172 22.3234C21.6905 22.1861 19.2705 20.8798 17.6518 18.8951C16.7918 20.3693 17.2065 22.2994 18.6678 23.2764C18.1305 23.2591 17.6252 23.1111 17.1825 22.8659C17.1465 24.3854 18.2372 25.8076 19.8158 26.1249C19.3545 26.2502 18.8478 26.2795 18.3332 26.1809C18.7505 27.4845 19.9652 28.4322 21.3998 28.4588C20.0172 29.5412 18.2798 30.025 16.5372 29.8197C17.9905 30.7514 19.7145 31.2939 21.5678 31.2939C27.6638 31.2939 31.1065 26.1475 30.8985 21.5316C31.5412 21.0704 32.0972 20.4919 32.5372 19.8335Z" fill="white"/>
</svg>
