<svg width="28" height="28" viewBox="0 0 28 28" fill="none" xmlns="http://www.w3.org/2000/svg">
<g clip-path="url(#clip0_516759_1389)">
<path d="M27.5683 5.44444C27.0293 4.51811 26.0377 3.88889 24.8889 3.88889H14V5.44444H27.5683ZM0 19.4444H28V21H0V19.4444ZM14 13.2222H28V14.7778H14V13.2222ZM14 10.1111H28V11.6667H14V10.1111ZM0 16.3333H28V17.8889H0V16.3333ZM3.11111 24.1111H24.8889C26.0377 24.1111 27.0293 23.4819 27.5683 22.5556H0.431667C0.970667 23.4819 1.96233 24.1111 3.11111 24.1111ZM14 7H28V8.55555H14V7Z" fill="#B22334"/>
<path d="M0.0528889 21.5281C0.0661111 21.6004 0.0808889 21.6728 0.0987778 21.7436C0.119 21.8221 0.143889 21.8976 0.170333 21.9738C0.239556 22.1752 0.323556 22.3697 0.429333 22.5517L0.431667 22.5556H27.5683L27.5699 22.5524C27.6743 22.3691 27.7608 22.1761 27.8281 21.9761C27.8793 21.8301 27.9189 21.6803 27.9463 21.5281C27.9782 21.357 28 21.1812 28 21H0C0 21.1812 0.0217778 21.3562 0.0528889 21.5281ZM0 17.8889H28V19.4444H0V17.8889ZM0 14.7778V16.3333H28V14.7778H14H0ZM14 11.6667H28V13.2222H14V11.6667ZM14 8.55555H28V10.1111H14V8.55555ZM0.431667 5.44444L0.429333 5.44833L0.431667 5.44444ZM0.0995556 6.25644C0.119 6.17711 0.146222 6.10167 0.171111 6.02544C0.144101 6.10143 0.120229 6.17849 0.0995556 6.25644V6.25644ZM14 7H28C28 6.81878 27.9782 6.643 27.9463 6.47111C27.9191 6.31875 27.8793 6.1689 27.8273 6.02311C27.7599 5.8223 27.6732 5.6285 27.5683 5.44444H14V7Z" fill="#EEEEEE"/>
<path d="M14 3.88889H3.11111C2.28599 3.88889 1.49467 4.21666 0.911223 4.80011C0.327777 5.38356 0 6.17488 0 7L0 14.7778H14V3.88889Z" fill="#3C3B6E"/>
<path d="M1.55615 6.00911L2.03682 6.35833L1.85326 6.92222L2.33315 6.57378L2.81382 6.92222L2.63026 6.35833L3.11093 6.00911H2.51671L2.33315 5.44444L2.15037 6.00911H1.55615ZM3.11171 7.56466L3.59237 7.91389L3.40882 8.47778L3.88871 8.12933L4.36937 8.47778L4.18582 7.91389L4.66649 7.56466H4.07226L3.88871 7L3.70593 7.56466H3.11171ZM6.22282 7.56466L6.70349 7.91389L6.51993 8.47778L6.99982 8.12933L7.48049 8.47778L7.29693 7.91389L7.7776 7.56466H7.18337L6.99982 7L6.81704 7.56466H6.22282ZM9.33393 7.56466L9.8146 7.91389L9.63104 8.47778L10.1109 8.12933L10.5916 8.47778L10.408 7.91389L10.8887 7.56466H10.2945L10.1109 7L9.92815 7.56466H9.33393ZM3.11171 10.6758L3.59237 11.025L3.40882 11.5889L3.88871 11.2404L4.36937 11.5889L4.18582 11.025L4.66649 10.6758H4.07226L3.88871 10.1111L3.70593 10.6758H3.11171ZM6.22282 10.6758L6.70349 11.025L6.51993 11.5889L6.99982 11.2404L7.48049 11.5889L7.29693 11.025L7.7776 10.6758H7.18337L6.99982 10.1111L6.81704 10.6758H6.22282ZM9.33393 10.6758L9.8146 11.025L9.63104 11.5889L10.1109 11.2404L10.5916 11.5889L10.408 11.025L10.8887 10.6758H10.2945L10.1109 10.1111L9.92815 10.6758H9.33393ZM4.66726 6.00911L5.14793 6.35833L4.96437 6.92222L5.44426 6.57378L5.92493 6.92222L5.74137 6.35833L6.22204 6.00911H5.62782L5.44426 5.44444L5.26149 6.00911H4.66726ZM7.77837 6.00911L8.25904 6.35833L8.07549 6.92222L8.55537 6.57378L9.03604 6.92222L8.85249 6.35833L9.33315 6.00911H8.73893L8.55537 5.44444L8.3726 6.00911H7.77837ZM10.8895 6.00911L11.3702 6.35833L11.1866 6.92222L11.6665 6.57378L12.1472 6.92222L11.9636 6.35833L12.4443 6.00911H11.85L11.6665 5.44444L11.4837 6.00911H10.8895ZM1.55615 9.12022L2.03682 9.46944L1.85326 10.0333L2.33315 9.68489L2.81382 10.0333L2.63026 9.46944L3.11093 9.12022H2.51671L2.33315 8.55555L2.15037 9.12022H1.55615ZM4.96437 10.0333L5.44426 9.68489L5.92493 10.0333L5.74137 9.46944L6.22204 9.12022H5.62782L5.44426 8.55555L5.26149 9.12022H4.66726L5.14793 9.46944L4.96437 10.0333ZM7.77837 9.12022L8.25904 9.46944L8.07549 10.0333L8.55537 9.68489L9.03604 10.0333L8.85249 9.46944L9.33315 9.12022H8.73893L8.55537 8.55555L8.3726 9.12022H7.77837ZM10.8895 9.12022L11.3702 9.46944L11.1866 10.0333L11.6665 9.68489L12.1472 10.0333L11.9636 9.46944L12.4443 9.12022H11.85L11.6665 8.55555L11.4837 9.12022H10.8895ZM1.55615 12.2313L2.03682 12.5806L1.85326 13.1444L2.33315 12.796L2.81382 13.1444L2.63026 12.5806L3.11093 12.2313H2.51671L2.33315 11.6667L2.15037 12.2313H1.55615ZM4.96437 13.1444L5.44426 12.796L5.92493 13.1444L5.74137 12.5806L6.22204 12.2313H5.62782L5.44426 11.6667L5.26149 12.2313H4.66726L5.14793 12.5806L4.96437 13.1444ZM7.77837 12.2313L8.25904 12.5806L8.07549 13.1444L8.55537 12.796L9.03604 13.1444L8.85249 12.5806L9.33315 12.2313H8.73893L8.55537 11.6667L8.3726 12.2313H7.77837ZM10.8895 12.2313L11.3702 12.5806L11.1866 13.1444L11.6665 12.796L12.1472 13.1444L11.9636 12.5806L12.4443 12.2313H11.85L11.6665 11.6667L11.4837 12.2313H10.8895Z" fill="white"/>
</g>
<defs>
<clipPath id="clip0_516759_1389">
<rect width="28" height="28" fill="white"/>
</clipPath>
</defs>
</svg>
