<svg width="73" height="73" viewBox="0 0 73 73" fill="none" xmlns="http://www.w3.org/2000/svg">
<circle cx="36.5" cy="36.5" r="36" stroke="#3672F8"/>
<path d="M22 50.2226L24.6813 44.0476C22.63 41.1357 21.7118 37.5753 22.0992 34.0345C22.4866 30.4937 24.1528 27.2161 26.7852 24.8165C29.4175 22.417 32.8351 21.0607 36.3965 21.002C39.9579 20.9433 43.4183 22.1863 46.1283 24.4978C48.8383 26.8093 50.6116 30.0303 51.1154 33.5564C51.6192 37.0824 50.8189 40.6712 48.8647 43.6491C46.9104 46.627 43.9366 48.7894 40.5013 49.7304C37.0659 50.6714 33.4053 50.3264 30.2063 48.7601L22 50.2226" stroke="#2457F5" stroke-width="2" stroke-linecap="round" stroke-linejoin="round"/>
<path d="M32 33.4375C32 33.653 32.0856 33.8597 32.238 34.012C32.3903 34.1644 32.597 34.25 32.8125 34.25C33.028 34.25 33.2347 34.1644 33.387 34.012C33.5394 33.8597 33.625 33.653 33.625 33.4375V31.8125C33.625 31.597 33.5394 31.3903 33.387 31.238C33.2347 31.0856 33.028 31 32.8125 31C32.597 31 32.3903 31.0856 32.238 31.238C32.0856 31.3903 32 31.597 32 31.8125V33.4375ZM32 33.4375C32 35.5924 32.856 37.659 34.3798 39.1827C35.9035 40.7065 37.9701 41.5625 40.125 41.5625H41.75C41.9655 41.5625 42.1722 41.4769 42.3245 41.3245C42.4769 41.1722 42.5625 40.9655 42.5625 40.75C42.5625 40.5345 42.4769 40.3278 42.3245 40.1755C42.1722 40.0231 41.9655 39.9375 41.75 39.9375H40.125C39.9095 39.9375 39.7028 40.0231 39.5505 40.1755C39.3981 40.3278 39.3125 40.5345 39.3125 40.75C39.3125 40.9655 39.3981 41.1722 39.5505 41.3245C39.7028 41.4769 39.9095 41.5625 40.125 41.5625" stroke="#0657CF" stroke-width="2" stroke-linecap="round" stroke-linejoin="round"/>
</svg>
