<svg width="63" height="62" viewBox="0 0 63 62" fill="none" xmlns="http://www.w3.org/2000/svg">
<ellipse cx="31.5" cy="31" rx="31.5" ry="31" fill="#205284"/>
<path d="M19.25 21.0833C19.25 20.7076 19.3993 20.3472 19.6649 20.0816C19.9306 19.8159 20.2909 19.6666 20.6667 19.6666H43.3333C43.7091 19.6666 44.0694 19.8159 44.3351 20.0816C44.6007 20.3472 44.75 20.7076 44.75 21.0833V35.25C44.75 35.6257 44.6007 35.986 44.3351 36.2517C44.0694 36.5174 43.7091 36.6666 43.3333 36.6666H20.6667C20.2909 36.6666 19.9306 36.5174 19.6649 36.2517C19.3993 35.986 19.25 35.6257 19.25 35.25V21.0833Z" stroke="white" stroke-width="2" stroke-linecap="round" stroke-linejoin="round"/>
<path d="M24.916 42.3334H39.0827" stroke="white" stroke-width="2" stroke-linecap="round" stroke-linejoin="round"/>
<path d="M27.75 36.6666V42.3333" stroke="white" stroke-width="2" stroke-linecap="round" stroke-linejoin="round"/>
<path d="M36.25 36.6666V42.3333" stroke="white" stroke-width="2" stroke-linecap="round" stroke-linejoin="round"/>
<path d="M26.334 31L30.584 26.75L33.4173 29.5834L37.6673 25.3334" stroke="white" stroke-width="2" stroke-linecap="round" stroke-linejoin="round"/>
</svg>
