<svg width="63" height="62" viewBox="0 0 63 62" fill="none" xmlns="http://www.w3.org/2000/svg">
<ellipse cx="31.5" cy="31" rx="31.5" ry="31" fill="#3A7BD5"/>
<path d="M15.375 20.2083C15.375 21.7554 15.9896 23.2392 17.0835 24.3331C18.1775 25.4271 19.6612 26.0417 21.2083 26.0417C22.7554 26.0417 24.2392 25.4271 25.3331 24.3331C26.4271 23.2392 27.0417 21.7554 27.0417 20.2083C27.0417 18.6612 26.4271 17.1775 25.3331 16.0835C24.2392 14.9896 22.7554 14.375 21.2083 14.375C19.6612 14.375 18.1775 14.9896 17.0835 16.0835C15.9896 17.1775 15.375 18.6612 15.375 20.2083Z" stroke="white" stroke-width="2" stroke-linecap="round" stroke-linejoin="round"/>
<path d="M21.209 14.375V20.2083H27.0423" stroke="white" stroke-width="2" stroke-linecap="round" stroke-linejoin="round"/>
<path d="M24.125 34.7916V40.625" stroke="white" stroke-width="2" stroke-linecap="round" stroke-linejoin="round"/>
<path d="M35.791 30.4166V40.625" stroke="white" stroke-width="2" stroke-linecap="round" stroke-linejoin="round"/>
<path d="M29.959 28.9584V40.625" stroke="white" stroke-width="2" stroke-linecap="round" stroke-linejoin="round"/>
<path d="M41.625 27.5V40.625" stroke="white" stroke-width="2" stroke-linecap="round" stroke-linejoin="round"/>
</svg>
