<svg width="63" height="62" viewBox="0 0 63 62" fill="none" xmlns="http://www.w3.org/2000/svg">
<ellipse cx="31.5" cy="31" rx="31.5" ry="31" fill="#1B1464"/>
<path d="M29.1675 18.5333C26.9514 19.0471 24.9131 20.1444 23.2641 21.7114C21.615 23.2784 20.4152 25.2581 19.7892 27.4451C19.1632 29.6322 19.1336 31.9468 19.7037 34.1491C20.2738 36.3514 21.4227 38.361 23.0313 39.9696C24.6398 41.5781 26.6495 42.727 28.8517 43.2971C31.054 43.8672 33.3687 43.8377 35.5557 43.2116C37.7427 42.5856 39.7224 41.3858 41.2894 39.7368C42.8565 38.0877 43.9537 36.0494 44.4675 33.8333C44.4675 33.4576 44.3182 33.0973 44.0526 32.8316C43.7869 32.5659 43.4265 32.4167 43.0508 32.4167H33.4175C32.666 32.4167 31.9454 32.1182 31.414 31.5868C30.8827 31.0555 30.5842 30.3348 30.5842 29.5833V19.6667C30.5666 19.4988 30.5158 19.3362 30.4349 19.1881C30.3539 19.04 30.2444 18.9095 30.1126 18.8041C29.9808 18.6986 29.8294 18.6204 29.6672 18.5739C29.5049 18.5275 29.3351 18.5137 29.1675 18.5333Z" stroke="white" stroke-width="2" stroke-linecap="round" stroke-linejoin="round"/>
<path d="M36.25 18.9584C38.0488 19.5917 39.6826 20.6205 41.031 21.969C42.3795 23.3175 43.4083 24.9513 44.0417 26.75H37.6667C37.2909 26.75 36.9306 26.6008 36.6649 26.3351C36.3993 26.0694 36.25 25.7091 36.25 25.3334V18.9584Z" stroke="white" stroke-width="2" stroke-linecap="round" stroke-linejoin="round"/>
</svg>
